<svg width="155" height="16" viewBox="0 0 155 16" fill="none" xmlns="http://www.w3.org/2000/svg">
<path d="M8.57031 12H0.773438V10.4531L4.45312 6.53125C4.95833 5.97917 5.33073 5.4974 5.57031 5.08594C5.8151 4.67448 5.9375 4.28385 5.9375 3.91406C5.9375 3.40885 5.8099 3.01302 5.55469 2.72656C5.29948 2.4349 4.9349 2.28906 4.46094 2.28906C3.95052 2.28906 3.54688 2.46615 3.25 2.82031C2.95833 3.16927 2.8125 3.63021 2.8125 4.20312H0.546875C0.546875 3.51042 0.710938 2.8776 1.03906 2.30469C1.3724 1.73177 1.84115 1.28385 2.44531 0.960938C3.04948 0.632812 3.73438 0.46875 4.5 0.46875C5.67188 0.46875 6.58073 0.75 7.22656 1.3125C7.8776 1.875 8.20312 2.66927 8.20312 3.69531C8.20312 4.25781 8.05729 4.83073 7.76562 5.41406C7.47396 5.9974 6.97396 6.67708 6.26562 7.45312L3.67969 10.1797H8.57031V12ZM21.6484 7.85156C21.6484 9.15365 21.3516 10.1979 20.7578 10.9844C20.1693 11.7656 19.3724 12.1562 18.3672 12.1562C17.513 12.1562 16.8229 11.8594 16.2969 11.2656V15.25H14.0391V3.54688H16.1328L16.2109 4.375C16.7578 3.71875 17.4714 3.39062 18.3516 3.39062C19.3932 3.39062 20.2031 3.77604 20.7812 4.54688C21.3594 5.31771 21.6484 6.38021 21.6484 7.73438V7.85156ZM19.3906 7.6875C19.3906 6.90104 19.25 6.29427 18.9688 5.86719C18.6927 5.4401 18.2891 5.22656 17.7578 5.22656C17.0495 5.22656 16.5625 5.4974 16.2969 6.03906V9.5C16.5729 10.0573 17.0651 10.3359 17.7734 10.3359C18.8516 10.3359 19.3906 9.45312 19.3906 7.6875ZM22.7031 7.69531C22.7031 6.85677 22.8646 6.10938 23.1875 5.45312C23.5104 4.79688 23.974 4.28906 24.5781 3.92969C25.1875 3.57031 25.8932 3.39062 26.6953 3.39062C27.8359 3.39062 28.7656 3.73958 29.4844 4.4375C30.2083 5.13542 30.612 6.08333 30.6953 7.28125L30.7109 7.85938C30.7109 9.15625 30.349 10.1979 29.625 10.9844C28.901 11.7656 27.9297 12.1562 26.7109 12.1562C25.4922 12.1562 24.5182 11.7656 23.7891 10.9844C23.0651 10.2031 22.7031 9.14062 22.7031 7.79688V7.69531ZM24.9609 7.85938C24.9609 8.66146 25.112 9.27604 25.4141 9.70312C25.7161 10.125 26.1484 10.3359 26.7109 10.3359C27.2578 10.3359 27.6849 10.1276 27.9922 9.71094C28.2995 9.28906 28.4531 8.61719 28.4531 7.69531C28.4531 6.90885 28.2995 6.29948 27.9922 5.86719C27.6849 5.4349 27.2526 5.21875 26.6953 5.21875C26.1432 5.21875 25.7161 5.4349 25.4141 5.86719C25.112 6.29427 24.9609 6.95833 24.9609 7.85938ZM34.1797 3.54688L34.25 4.52344C34.8542 3.76823 35.6641 3.39062 36.6797 3.39062C37.5755 3.39062 38.2422 3.65365 38.6797 4.17969C39.1172 4.70573 39.3411 5.49219 39.3516 6.53906V12H37.0938V6.59375C37.0938 6.11458 36.9896 5.76823 36.7812 5.55469C36.5729 5.33594 36.2266 5.22656 35.7422 5.22656C35.1068 5.22656 34.6302 5.4974 34.3125 6.03906V12H32.0547V3.54688H34.1797ZM43.7734 1.46875V3.54688H45.2188V5.20312H43.7734V9.42188C43.7734 9.73438 43.8333 9.95833 43.9531 10.0938C44.0729 10.2292 44.3021 10.2969 44.6406 10.2969C44.8906 10.2969 45.112 10.2786 45.3047 10.2422V11.9531C44.862 12.0885 44.4062 12.1562 43.9375 12.1562C42.3542 12.1562 41.5469 11.3568 41.5156 9.75781V5.20312H40.2812V3.54688H41.5156V1.46875H43.7734ZM45.8906 7.69531C45.8906 6.85677 46.0521 6.10938 46.375 5.45312C46.6979 4.79688 47.1615 4.28906 47.7656 3.92969C48.375 3.57031 49.0807 3.39062 49.8828 3.39062C51.0234 3.39062 51.9531 3.73958 52.6719 4.4375C53.3958 5.13542 53.7995 6.08333 53.8828 7.28125L53.8984 7.85938C53.8984 9.15625 53.5365 10.1979 52.8125 10.9844C52.0885 11.7656 51.1172 12.1562 49.8984 12.1562C48.6797 12.1562 47.7057 11.7656 46.9766 10.9844C46.2526 10.2031 45.8906 9.14062 45.8906 7.79688V7.69531ZM48.1484 7.85938C48.1484 8.66146 48.2995 9.27604 48.6016 9.70312C48.9036 10.125 49.3359 10.3359 49.8984 10.3359C50.4453 10.3359 50.8724 10.1276 51.1797 9.71094C51.487 9.28906 51.6406 8.61719 51.6406 7.69531C51.6406 6.90885 51.487 6.29948 51.1797 5.86719C50.8724 5.4349 50.4401 5.21875 49.8828 5.21875C49.3307 5.21875 48.9036 5.4349 48.6016 5.86719C48.2995 6.29427 48.1484 6.95833 48.1484 7.85938ZM59.8672 9.66406C59.8672 9.38802 59.7292 9.17188 59.4531 9.01562C59.1823 8.85417 58.7448 8.71094 58.1406 8.58594C56.1302 8.16406 55.125 7.3099 55.125 6.02344C55.125 5.27344 55.4349 4.64844 56.0547 4.14844C56.6797 3.64323 57.4948 3.39062 58.5 3.39062C59.5729 3.39062 60.4297 3.64323 61.0703 4.14844C61.7161 4.65365 62.0391 5.3099 62.0391 6.11719H59.7812C59.7812 5.79427 59.6771 5.52865 59.4688 5.32031C59.2604 5.10677 58.9349 5 58.4922 5C58.112 5 57.8177 5.08594 57.6094 5.25781C57.401 5.42969 57.2969 5.64844 57.2969 5.91406C57.2969 6.16406 57.4141 6.36719 57.6484 6.52344C57.888 6.67448 58.2891 6.80729 58.8516 6.92188C59.4141 7.03125 59.888 7.15625 60.2734 7.29688C61.4661 7.73438 62.0625 8.49219 62.0625 9.57031C62.0625 10.3411 61.7318 10.9661 61.0703 11.4453C60.4089 11.9193 59.5547 12.1562 58.5078 12.1562C57.7995 12.1562 57.1693 12.0312 56.6172 11.7812C56.0703 11.526 55.6406 11.1797 55.3281 10.7422C55.0156 10.2995 54.8594 9.82292 54.8594 9.3125H57C57.0208 9.71354 57.1693 10.0208 57.4453 10.2344C57.7214 10.4479 58.0911 10.5547 58.5547 10.5547C58.987 10.5547 59.3125 10.474 59.5312 10.3125C59.7552 10.1458 59.8672 9.92969 59.8672 9.66406ZM71.2266 12.1562C70.0807 12.1562 69.1484 11.7812 68.4297 11.0312C67.7109 10.276 67.3516 9.26823 67.3516 8.00781V7.74219C67.3516 6.90365 67.5104 6.15625 67.8281 5.5C68.151 4.83854 68.599 4.32292 69.1719 3.95312C69.75 3.57812 70.375 3.39062 71.0469 3.39062C72.1458 3.39062 73 3.7526 73.6094 4.47656C74.2188 5.20052 74.5234 6.23698 74.5234 7.58594V8.1875H68.7969C68.8177 9.02083 69.0599 9.69531 69.5234 10.2109C69.9922 10.7214 70.5859 10.9766 71.3047 10.9766C71.8151 10.9766 72.2474 10.8724 72.6016 10.6641C72.9557 10.4557 73.2656 10.1797 73.5312 9.83594L74.4141 10.5234C73.7057 11.612 72.6432 12.1562 71.2266 12.1562ZM71.0469 4.57812C70.4635 4.57812 69.974 4.79167 69.5781 5.21875C69.1823 5.64062 68.9375 6.23438 68.8438 7H73.0781V6.89062C73.0365 6.15625 72.8385 5.58854 72.4844 5.1875C72.1302 4.78125 71.651 4.57812 71.0469 4.57812ZM77.5703 3.54688L77.6172 4.60938C78.263 3.79688 79.1068 3.39062 80.1484 3.39062C81.9349 3.39062 82.8359 4.39844 82.8516 6.41406V12H81.4062V6.40625C81.401 5.79688 81.2604 5.34635 80.9844 5.05469C80.7135 4.76302 80.2891 4.61719 79.7109 4.61719C79.2422 4.61719 78.8307 4.74219 78.4766 4.99219C78.1224 5.24219 77.8464 5.57031 77.6484 5.97656V12H76.2031V3.54688H77.5703ZM88.4219 10.9766C88.9375 10.9766 89.388 10.8203 89.7734 10.5078C90.1589 10.1953 90.3724 9.80469 90.4141 9.33594H91.7812C91.7552 9.82031 91.5885 10.2812 91.2812 10.7188C90.974 11.1562 90.5625 11.5052 90.0469 11.7656C89.5365 12.026 88.9948 12.1562 88.4219 12.1562C87.2708 12.1562 86.3542 11.7734 85.6719 11.0078C84.9948 10.237 84.6562 9.1849 84.6562 7.85156V7.60938C84.6562 6.78646 84.8073 6.05469 85.1094 5.41406C85.4115 4.77344 85.8438 4.27604 86.4062 3.92188C86.974 3.56771 87.6432 3.39062 88.4141 3.39062C89.362 3.39062 90.1484 3.67448 90.7734 4.24219C91.4036 4.8099 91.7396 5.54688 91.7812 6.45312H90.4141C90.3724 5.90625 90.1641 5.45833 89.7891 5.10938C89.4193 4.75521 88.9609 4.57812 88.4141 4.57812C87.6797 4.57812 87.1094 4.84375 86.7031 5.375C86.3021 5.90104 86.1016 6.66406 86.1016 7.66406V7.9375C86.1016 8.91146 86.3021 9.66146 86.7031 10.1875C87.1042 10.7135 87.6771 10.9766 88.4219 10.9766ZM93.0234 7.69531C93.0234 6.86719 93.1849 6.1224 93.5078 5.46094C93.8359 4.79948 94.2891 4.28906 94.8672 3.92969C95.4505 3.57031 96.1146 3.39062 96.8594 3.39062C98.0104 3.39062 98.9401 3.78906 99.6484 4.58594C100.362 5.38281 100.719 6.44271 100.719 7.76562V7.86719C100.719 8.6901 100.56 9.42969 100.242 10.0859C99.9297 10.737 99.4792 11.2448 98.8906 11.6094C98.3073 11.974 97.6354 12.1562 96.875 12.1562C95.7292 12.1562 94.7995 11.7578 94.0859 10.9609C93.3776 10.1641 93.0234 9.10938 93.0234 7.79688V7.69531ZM94.4766 7.86719C94.4766 8.80469 94.6927 9.55729 95.125 10.125C95.5625 10.6927 96.1458 10.9766 96.875 10.9766C97.6094 10.9766 98.1927 10.6901 98.625 10.1172C99.0573 9.53906 99.2734 8.73177 99.2734 7.69531C99.2734 6.76823 99.0521 6.01823 98.6094 5.44531C98.1719 4.86719 97.5885 4.57812 96.8594 4.57812C96.1458 4.57812 95.5703 4.86198 95.1328 5.42969C94.6953 5.9974 94.4766 6.8099 94.4766 7.86719ZM103.898 3.54688L103.945 4.60938C104.591 3.79688 105.435 3.39062 106.477 3.39062C108.263 3.39062 109.164 4.39844 109.18 6.41406V12H107.734V6.40625C107.729 5.79688 107.589 5.34635 107.312 5.05469C107.042 4.76302 106.617 4.61719 106.039 4.61719C105.57 4.61719 105.159 4.74219 104.805 4.99219C104.451 5.24219 104.174 5.57031 103.977 5.97656V12H102.531V3.54688H103.898ZM113.32 1.5V3.54688H114.898V4.66406H113.32V9.90625C113.32 10.2448 113.391 10.5 113.531 10.6719C113.672 10.8385 113.911 10.9219 114.25 10.9219C114.417 10.9219 114.646 10.8906 114.938 10.8281V12C114.557 12.1042 114.188 12.1562 113.828 12.1562C113.182 12.1562 112.695 11.9609 112.367 11.5703C112.039 11.1797 111.875 10.625 111.875 9.90625V4.66406H110.336V3.54688H111.875V1.5H113.32ZM120.68 4.84375C120.461 4.80729 120.224 4.78906 119.969 4.78906C119.021 4.78906 118.378 5.19271 118.039 6V12H116.594V3.54688H118L118.023 4.52344C118.497 3.76823 119.169 3.39062 120.039 3.39062C120.32 3.39062 120.534 3.42708 120.68 3.5V4.84375ZM126.922 12C126.839 11.8333 126.771 11.5365 126.719 11.1094C126.047 11.8073 125.245 12.1562 124.312 12.1562C123.479 12.1562 122.794 11.9219 122.258 11.4531C121.727 10.9792 121.461 10.3802 121.461 9.65625C121.461 8.77604 121.794 8.09375 122.461 7.60938C123.133 7.11979 124.076 6.875 125.289 6.875H126.695V6.21094C126.695 5.70573 126.544 5.30469 126.242 5.00781C125.94 4.70573 125.495 4.55469 124.906 4.55469C124.391 4.55469 123.958 4.6849 123.609 4.94531C123.26 5.20573 123.086 5.52083 123.086 5.89062H121.633C121.633 5.46875 121.781 5.0625 122.078 4.67188C122.38 4.27604 122.786 3.96354 123.297 3.73438C123.812 3.50521 124.378 3.39062 124.992 3.39062C125.966 3.39062 126.729 3.63542 127.281 4.125C127.833 4.60938 128.12 5.27865 128.141 6.13281V10.0234C128.141 10.7995 128.24 11.4167 128.438 11.875V12H126.922ZM124.523 10.8984C124.977 10.8984 125.406 10.7812 125.812 10.5469C126.219 10.3125 126.513 10.0078 126.695 9.63281V7.89844H125.562C123.792 7.89844 122.906 8.41667 122.906 9.45312C122.906 9.90625 123.057 10.2604 123.359 10.5156C123.661 10.7708 124.049 10.8984 124.523 10.8984ZM130.055 7.70312C130.055 6.40625 130.362 5.36458 130.977 4.57812C131.591 3.78646 132.396 3.39062 133.391 3.39062C134.38 3.39062 135.164 3.72917 135.742 4.40625V0H137.188V12H135.859L135.789 11.0938C135.211 11.8021 134.406 12.1562 133.375 12.1562C132.396 12.1562 131.596 11.7552 130.977 10.9531C130.362 10.151 130.055 9.10417 130.055 7.8125V7.70312ZM131.5 7.86719C131.5 8.82552 131.698 9.57552 132.094 10.1172C132.49 10.6589 133.036 10.9297 133.734 10.9297C134.651 10.9297 135.32 10.5182 135.742 9.69531V5.8125C135.31 5.01562 134.646 4.61719 133.75 4.61719C133.042 4.61719 132.49 4.89062 132.094 5.4375C131.698 5.98438 131.5 6.79427 131.5 7.86719ZM139.055 7.69531C139.055 6.86719 139.216 6.1224 139.539 5.46094C139.867 4.79948 140.32 4.28906 140.898 3.92969C141.482 3.57031 142.146 3.39062 142.891 3.39062C144.042 3.39062 144.971 3.78906 145.68 4.58594C146.393 5.38281 146.75 6.44271 146.75 7.76562V7.86719C146.75 8.6901 146.591 9.42969 146.273 10.0859C145.961 10.737 145.51 11.2448 144.922 11.6094C144.339 11.974 143.667 12.1562 142.906 12.1562C141.76 12.1562 140.831 11.7578 140.117 10.9609C139.409 10.1641 139.055 9.10938 139.055 7.79688V7.69531ZM140.508 7.86719C140.508 8.80469 140.724 9.55729 141.156 10.125C141.594 10.6927 142.177 10.9766 142.906 10.9766C143.641 10.9766 144.224 10.6901 144.656 10.1172C145.089 9.53906 145.305 8.73177 145.305 7.69531C145.305 6.76823 145.083 6.01823 144.641 5.44531C144.203 4.86719 143.62 4.57812 142.891 4.57812C142.177 4.57812 141.602 4.86198 141.164 5.42969C140.727 5.9974 140.508 6.8099 140.508 7.86719ZM153.484 9.75781C153.484 9.36719 153.336 9.0651 153.039 8.85156C152.747 8.63281 152.234 8.44531 151.5 8.28906C150.771 8.13281 150.19 7.94531 149.758 7.72656C149.331 7.50781 149.013 7.2474 148.805 6.94531C148.602 6.64323 148.5 6.28385 148.5 5.86719C148.5 5.17448 148.792 4.58854 149.375 4.10938C149.964 3.63021 150.714 3.39062 151.625 3.39062C152.583 3.39062 153.359 3.63802 153.953 4.13281C154.552 4.6276 154.852 5.26042 154.852 6.03125H153.398C153.398 5.63542 153.229 5.29427 152.891 5.00781C152.557 4.72135 152.135 4.57812 151.625 4.57812C151.099 4.57812 150.688 4.69271 150.391 4.92188C150.094 5.15104 149.945 5.45052 149.945 5.82031C149.945 6.16927 150.083 6.43229 150.359 6.60938C150.635 6.78646 151.133 6.95573 151.852 7.11719C152.576 7.27865 153.161 7.47135 153.609 7.69531C154.057 7.91927 154.388 8.1901 154.602 8.50781C154.82 8.82031 154.93 9.20312 154.93 9.65625C154.93 10.4115 154.628 11.0182 154.023 11.4766C153.419 11.9297 152.635 12.1562 151.672 12.1562C150.995 12.1562 150.396 12.0365 149.875 11.7969C149.354 11.5573 148.945 11.224 148.648 10.7969C148.357 10.3646 148.211 9.89844 148.211 9.39844H149.656C149.682 9.88281 149.875 10.2682 150.234 10.5547C150.599 10.8359 151.078 10.9766 151.672 10.9766C152.219 10.9766 152.656 10.8672 152.984 10.6484C153.318 10.4245 153.484 10.1276 153.484 9.75781Z" fill="#6C6C80"/>
</svg>
