<svg width="295" height="57" viewBox="0 0 295 57" fill="none" xmlns="http://www.w3.org/2000/svg">
<path d="M110.84 18V0.9375H115.656C117.141 0.9375 118.453 1.26562 119.594 1.92188C120.734 2.57812 121.613 3.51172 122.23 4.72266C122.855 5.93359 123.172 7.32422 123.18 8.89453V9.98438C123.18 11.5938 122.867 13.0039 122.242 14.2148C121.625 15.4258 120.738 16.3555 119.582 17.0039C118.434 17.6523 117.094 17.9844 115.562 18H110.84ZM113.09 2.78906V16.1602H115.457C117.191 16.1602 118.539 15.6211 119.5 14.543C120.469 13.4648 120.953 11.9297 120.953 9.9375V8.94141C120.953 7.00391 120.496 5.5 119.582 4.42969C118.676 3.35156 117.387 2.80469 115.715 2.78906H113.09ZM131.512 18.2344C129.793 18.2344 128.395 17.6719 127.316 16.5469C126.238 15.4141 125.699 13.9023 125.699 12.0117V11.6133C125.699 10.3555 125.938 9.23438 126.414 8.25C126.898 7.25781 127.57 6.48438 128.43 5.92969C129.297 5.36719 130.234 5.08594 131.242 5.08594C132.891 5.08594 134.172 5.62891 135.086 6.71484C136 7.80078 136.457 9.35547 136.457 11.3789V12.2812H127.867C127.898 13.5312 128.262 14.543 128.957 15.3164C129.66 16.082 130.551 16.4648 131.629 16.4648C132.395 16.4648 133.043 16.3086 133.574 15.9961C134.105 15.6836 134.57 15.2695 134.969 14.7539L136.293 15.7852C135.23 17.418 133.637 18.2344 131.512 18.2344ZM131.242 6.86719C130.367 6.86719 129.633 7.1875 129.039 7.82812C128.445 8.46094 128.078 9.35156 127.938 10.5H134.289V10.3359C134.227 9.23438 133.93 8.38281 133.398 7.78125C132.867 7.17188 132.148 6.86719 131.242 6.86719ZM141.332 18H139.164V0H141.332V18ZM152.641 18C152.516 17.75 152.414 17.3047 152.336 16.6641C151.328 17.7109 150.125 18.2344 148.727 18.2344C147.477 18.2344 146.449 17.8828 145.645 17.1797C144.848 16.4688 144.449 15.5703 144.449 14.4844C144.449 13.1641 144.949 12.1406 145.949 11.4141C146.957 10.6797 148.371 10.3125 150.191 10.3125H152.301V9.31641C152.301 8.55859 152.074 7.95703 151.621 7.51172C151.168 7.05859 150.5 6.83203 149.617 6.83203C148.844 6.83203 148.195 7.02734 147.672 7.41797C147.148 7.80859 146.887 8.28125 146.887 8.83594H144.707C144.707 8.20312 144.93 7.59375 145.375 7.00781C145.828 6.41406 146.438 5.94531 147.203 5.60156C147.977 5.25781 148.824 5.08594 149.746 5.08594C151.207 5.08594 152.352 5.45312 153.18 6.1875C154.008 6.91406 154.438 7.91797 154.469 9.19922V15.0352C154.469 16.1992 154.617 17.125 154.914 17.8125V18H152.641ZM149.043 16.3477C149.723 16.3477 150.367 16.1719 150.977 15.8203C151.586 15.4688 152.027 15.0117 152.301 14.4492V11.8477H150.602C147.945 11.8477 146.617 12.625 146.617 14.1797C146.617 14.8594 146.844 15.3906 147.297 15.7734C147.75 16.1562 148.332 16.3477 149.043 16.3477ZM161.828 14.8242L164.781 5.32031H167.102L162.004 19.957C161.215 22.0664 159.961 23.1211 158.242 23.1211L157.832 23.0859L157.023 22.9336V21.1758L157.609 21.2227C158.344 21.2227 158.914 21.0742 159.32 20.7773C159.734 20.4805 160.074 19.9375 160.34 19.1484L160.82 17.8594L156.297 5.32031H158.664L161.828 14.8242ZM182.828 18C182.703 17.75 182.602 17.3047 182.523 16.6641C181.516 17.7109 180.312 18.2344 178.914 18.2344C177.664 18.2344 176.637 17.8828 175.832 17.1797C175.035 16.4688 174.637 15.5703 174.637 14.4844C174.637 13.1641 175.137 12.1406 176.137 11.4141C177.145 10.6797 178.559 10.3125 180.379 10.3125H182.488V9.31641C182.488 8.55859 182.262 7.95703 181.809 7.51172C181.355 7.05859 180.688 6.83203 179.805 6.83203C179.031 6.83203 178.383 7.02734 177.859 7.41797C177.336 7.80859 177.074 8.28125 177.074 8.83594H174.895C174.895 8.20312 175.117 7.59375 175.562 7.00781C176.016 6.41406 176.625 5.94531 177.391 5.60156C178.164 5.25781 179.012 5.08594 179.934 5.08594C181.395 5.08594 182.539 5.45312 183.367 6.1875C184.195 6.91406 184.625 7.91797 184.656 9.19922V15.0352C184.656 16.1992 184.805 17.125 185.102 17.8125V18H182.828ZM179.23 16.3477C179.91 16.3477 180.555 16.1719 181.164 15.8203C181.773 15.4688 182.215 15.0117 182.488 14.4492V11.8477H180.789C178.133 11.8477 176.805 12.625 176.805 14.1797C176.805 14.8594 177.031 15.3906 177.484 15.7734C177.938 16.1562 178.52 16.3477 179.23 16.3477ZM195.883 16.7461C195.039 17.7383 193.801 18.2344 192.168 18.2344C190.816 18.2344 189.785 17.8438 189.074 17.0625C188.371 16.2734 188.016 15.1094 188.008 13.5703V5.32031H190.176V13.5117C190.176 15.4336 190.957 16.3945 192.52 16.3945C194.176 16.3945 195.277 15.7773 195.824 14.543V5.32031H197.992V18H195.93L195.883 16.7461ZM204.238 2.25V5.32031H206.605V6.99609H204.238V14.8594C204.238 15.3672 204.344 15.75 204.555 16.0078C204.766 16.2578 205.125 16.3828 205.633 16.3828C205.883 16.3828 206.227 16.3359 206.664 16.2422V18C206.094 18.1562 205.539 18.2344 205 18.2344C204.031 18.2344 203.301 17.9414 202.809 17.3555C202.316 16.7695 202.07 15.9375 202.07 14.8594V6.99609H199.762V5.32031H202.07V2.25H204.238ZM208.34 11.543C208.34 10.3008 208.582 9.18359 209.066 8.19141C209.559 7.19922 210.238 6.43359 211.105 5.89453C211.98 5.35547 212.977 5.08594 214.094 5.08594C215.82 5.08594 217.215 5.68359 218.277 6.87891C219.348 8.07422 219.883 9.66406 219.883 11.6484V11.8008C219.883 13.0352 219.645 14.1445 219.168 15.1289C218.699 16.1055 218.023 16.8672 217.141 17.4141C216.266 17.9609 215.258 18.2344 214.117 18.2344C212.398 18.2344 211.004 17.6367 209.934 16.4414C208.871 15.2461 208.34 13.6641 208.34 11.6953V11.543ZM210.52 11.8008C210.52 13.207 210.844 14.3359 211.492 15.1875C212.148 16.0391 213.023 16.4648 214.117 16.4648C215.219 16.4648 216.094 16.0352 216.742 15.1758C217.391 14.3086 217.715 13.0977 217.715 11.543C217.715 10.1523 217.383 9.02734 216.719 8.16797C216.062 7.30078 215.188 6.86719 214.094 6.86719C213.023 6.86719 212.16 7.29297 211.504 8.14453C210.848 8.99609 210.52 10.2148 210.52 11.8008ZM224.641 5.32031L224.699 6.72656C225.629 5.63281 226.883 5.08594 228.461 5.08594C230.234 5.08594 231.441 5.76562 232.082 7.125C232.504 6.51562 233.051 6.02344 233.723 5.64844C234.402 5.27344 235.203 5.08594 236.125 5.08594C238.906 5.08594 240.32 6.55859 240.367 9.50391V18H238.199V9.63281C238.199 8.72656 237.992 8.05078 237.578 7.60547C237.164 7.15234 236.469 6.92578 235.492 6.92578C234.688 6.92578 234.02 7.16797 233.488 7.65234C232.957 8.12891 232.648 8.77344 232.562 9.58594V18H230.383V9.69141C230.383 7.84766 229.48 6.92578 227.676 6.92578C226.254 6.92578 225.281 7.53125 224.758 8.74219V18H222.59V5.32031H224.641ZM251.477 18C251.352 17.75 251.25 17.3047 251.172 16.6641C250.164 17.7109 248.961 18.2344 247.562 18.2344C246.312 18.2344 245.285 17.8828 244.48 17.1797C243.684 16.4688 243.285 15.5703 243.285 14.4844C243.285 13.1641 243.785 12.1406 244.785 11.4141C245.793 10.6797 247.207 10.3125 249.027 10.3125H251.137V9.31641C251.137 8.55859 250.91 7.95703 250.457 7.51172C250.004 7.05859 249.336 6.83203 248.453 6.83203C247.68 6.83203 247.031 7.02734 246.508 7.41797C245.984 7.80859 245.723 8.28125 245.723 8.83594H243.543C243.543 8.20312 243.766 7.59375 244.211 7.00781C244.664 6.41406 245.273 5.94531 246.039 5.60156C246.812 5.25781 247.66 5.08594 248.582 5.08594C250.043 5.08594 251.188 5.45312 252.016 6.1875C252.844 6.91406 253.273 7.91797 253.305 9.19922V15.0352C253.305 16.1992 253.453 17.125 253.75 17.8125V18H251.477ZM247.879 16.3477C248.559 16.3477 249.203 16.1719 249.812 15.8203C250.422 15.4688 250.863 15.0117 251.137 14.4492V11.8477H249.438C246.781 11.8477 245.453 12.625 245.453 14.1797C245.453 14.8594 245.68 15.3906 246.133 15.7734C246.586 16.1562 247.168 16.3477 247.879 16.3477ZM249.883 0H252.508L249.367 3.44531H247.621L249.883 0ZM259.645 2.25V5.32031H262.012V6.99609H259.645V14.8594C259.645 15.3672 259.75 15.75 259.961 16.0078C260.172 16.2578 260.531 16.3828 261.039 16.3828C261.289 16.3828 261.633 16.3359 262.07 16.2422V18C261.5 18.1562 260.945 18.2344 260.406 18.2344C259.438 18.2344 258.707 17.9414 258.215 17.3555C257.723 16.7695 257.477 15.9375 257.477 14.8594V6.99609H255.168V5.32031H257.477V2.25H259.645ZM266.91 18H264.742V5.32031H266.91V18ZM264.566 1.95703C264.566 1.60547 264.672 1.30859 264.883 1.06641C265.102 0.824219 265.422 0.703125 265.844 0.703125C266.266 0.703125 266.586 0.824219 266.805 1.06641C267.023 1.30859 267.133 1.60547 267.133 1.95703C267.133 2.30859 267.023 2.60156 266.805 2.83594C266.586 3.07031 266.266 3.1875 265.844 3.1875C265.422 3.1875 265.102 3.07031 264.883 2.83594C264.672 2.60156 264.566 2.30859 264.566 1.95703ZM275.477 16.4648C276.25 16.4648 276.926 16.2305 277.504 15.7617C278.082 15.293 278.402 14.707 278.465 14.0039H280.516C280.477 14.7305 280.227 15.4219 279.766 16.0781C279.305 16.7344 278.688 17.2578 277.914 17.6484C277.148 18.0391 276.336 18.2344 275.477 18.2344C273.75 18.2344 272.375 17.6602 271.352 16.5117C270.336 15.3555 269.828 13.7773 269.828 11.7773V11.4141C269.828 10.1797 270.055 9.08203 270.508 8.12109C270.961 7.16016 271.609 6.41406 272.453 5.88281C273.305 5.35156 274.309 5.08594 275.465 5.08594C276.887 5.08594 278.066 5.51172 279.004 6.36328C279.949 7.21484 280.453 8.32031 280.516 9.67969H278.465C278.402 8.85938 278.09 8.1875 277.527 7.66406C276.973 7.13281 276.285 6.86719 275.465 6.86719C274.363 6.86719 273.508 7.26562 272.898 8.0625C272.297 8.85156 271.996 9.99609 271.996 11.4961V11.9062C271.996 13.3672 272.297 14.4922 272.898 15.2812C273.5 16.0703 274.359 16.4648 275.477 16.4648ZM282.379 11.543C282.379 10.3008 282.621 9.18359 283.105 8.19141C283.598 7.19922 284.277 6.43359 285.145 5.89453C286.02 5.35547 287.016 5.08594 288.133 5.08594C289.859 5.08594 291.254 5.68359 292.316 6.87891C293.387 8.07422 293.922 9.66406 293.922 11.6484V11.8008C293.922 13.0352 293.684 14.1445 293.207 15.1289C292.738 16.1055 292.062 16.8672 291.18 17.4141C290.305 17.9609 289.297 18.2344 288.156 18.2344C286.438 18.2344 285.043 17.6367 283.973 16.4414C282.91 15.2461 282.379 13.6641 282.379 11.6953V11.543ZM284.559 11.8008C284.559 13.207 284.883 14.3359 285.531 15.1875C286.188 16.0391 287.062 16.4648 288.156 16.4648C289.258 16.4648 290.133 16.0352 290.781 15.1758C291.43 14.3086 291.754 13.0977 291.754 11.543C291.754 10.1523 291.422 9.02734 290.758 8.16797C290.102 7.30078 289.227 6.86719 288.133 6.86719C287.062 6.86719 286.199 7.29297 285.543 8.14453C284.887 8.99609 284.559 10.2148 284.559 11.8008ZM0.941406 45.5547C0.941406 43.6094 1.40234 42.0469 2.32422 40.8672C3.24609 39.6797 4.45312 39.0859 5.94531 39.0859C7.42969 39.0859 8.60547 39.5938 9.47266 40.6094V34H11.6406V52H9.64844L9.54297 50.6406C8.67578 51.7031 7.46875 52.2344 5.92188 52.2344C4.45312 52.2344 3.25391 51.6328 2.32422 50.4297C1.40234 49.2266 0.941406 47.6562 0.941406 45.7188V45.5547ZM3.10938 45.8008C3.10938 47.2383 3.40625 48.3633 4 49.1758C4.59375 49.9883 5.41406 50.3945 6.46094 50.3945C7.83594 50.3945 8.83984 49.7773 9.47266 48.543V42.7188C8.82422 41.5234 7.82812 40.9258 6.48438 40.9258C5.42188 40.9258 4.59375 41.3359 4 42.1562C3.40625 42.9766 3.10938 44.1914 3.10938 45.8008ZM20.2773 52.2344C18.5586 52.2344 17.1602 51.6719 16.082 50.5469C15.0039 49.4141 14.4648 47.9023 14.4648 46.0117V45.6133C14.4648 44.3555 14.7031 43.2344 15.1797 42.25C15.6641 41.2578 16.3359 40.4844 17.1953 39.9297C18.0625 39.3672 19 39.0859 20.0078 39.0859C21.6562 39.0859 22.9375 39.6289 23.8516 40.7148C24.7656 41.8008 25.2227 43.3555 25.2227 45.3789V46.2812H16.6328C16.6641 47.5312 17.0273 48.543 17.7227 49.3164C18.4258 50.082 19.3164 50.4648 20.3945 50.4648C21.1602 50.4648 21.8086 50.3086 22.3398 49.9961C22.8711 49.6836 23.3359 49.2695 23.7344 48.7539L25.0586 49.7852C23.9961 51.418 22.4023 52.2344 20.2773 52.2344ZM20.0078 40.8672C19.1328 40.8672 18.3984 41.1875 17.8047 41.8281C17.2109 42.4609 16.8438 43.3516 16.7031 44.5H23.0547V44.3359C22.9922 43.2344 22.6953 42.3828 22.1641 41.7812C21.6328 41.1719 20.9141 40.8672 20.0078 40.8672ZM44.6523 52H33.4727V50.4414L39.3789 43.8789C40.2539 42.8867 40.8555 42.082 41.1836 41.4648C41.5195 40.8398 41.6875 40.1953 41.6875 39.5312C41.6875 38.6406 41.418 37.9102 40.8789 37.3398C40.3398 36.7695 39.6211 36.4844 38.7227 36.4844C37.6445 36.4844 36.8047 36.793 36.2031 37.4102C35.6094 38.0195 35.3125 38.8711 35.3125 39.9648H33.1445C33.1445 38.3945 33.6484 37.125 34.6562 36.1562C35.6719 35.1875 37.0273 34.7031 38.7227 34.7031C40.3086 34.7031 41.5625 35.1211 42.4844 35.957C43.4062 36.7852 43.8672 37.8906 43.8672 39.2734C43.8672 40.9531 42.7969 42.9531 40.6562 45.2734L36.0859 50.2305H44.6523V52ZM60.5078 48.6367C60.5078 48.0508 60.2852 47.5977 59.8398 47.2773C59.4023 46.9492 58.6328 46.668 57.5312 46.4336C56.4375 46.1992 55.5664 45.918 54.918 45.5898C54.2773 45.2617 53.8008 44.8711 53.4883 44.418C53.1836 43.9648 53.0312 43.4258 53.0312 42.8008C53.0312 41.7617 53.4688 40.8828 54.3438 40.1641C55.2266 39.4453 56.3516 39.0859 57.7188 39.0859C59.1562 39.0859 60.3203 39.457 61.2109 40.1992C62.1094 40.9414 62.5586 41.8906 62.5586 43.0469H60.3789C60.3789 42.4531 60.125 41.9414 59.6172 41.5117C59.1172 41.082 58.4844 40.8672 57.7188 40.8672C56.9297 40.8672 56.3125 41.0391 55.8672 41.3828C55.4219 41.7266 55.1992 42.1758 55.1992 42.7305C55.1992 43.2539 55.4062 43.6484 55.8203 43.9141C56.2344 44.1797 56.9805 44.4336 58.0586 44.6758C59.1445 44.918 60.0234 45.207 60.6953 45.543C61.3672 45.8789 61.8633 46.2852 62.1836 46.7617C62.5117 47.2305 62.6758 47.8047 62.6758 48.4844C62.6758 49.6172 62.2227 50.5273 61.3164 51.2148C60.4102 51.8945 59.2344 52.2344 57.7891 52.2344C56.7734 52.2344 55.875 52.0547 55.0938 51.6953C54.3125 51.3359 53.6992 50.8359 53.2539 50.1953C52.8164 49.5469 52.5977 48.8477 52.5977 48.0977H54.7656C54.8047 48.8242 55.0938 49.4023 55.6328 49.832C56.1797 50.2539 56.8984 50.4648 57.7891 50.4648C58.6094 50.4648 59.2656 50.3008 59.7578 49.9727C60.2578 49.6367 60.5078 49.1914 60.5078 48.6367ZM70.7617 52.2344C69.043 52.2344 67.6445 51.6719 66.5664 50.5469C65.4883 49.4141 64.9492 47.9023 64.9492 46.0117V45.6133C64.9492 44.3555 65.1875 43.2344 65.6641 42.25C66.1484 41.2578 66.8203 40.4844 67.6797 39.9297C68.5469 39.3672 69.4844 39.0859 70.4922 39.0859C72.1406 39.0859 73.4219 39.6289 74.3359 40.7148C75.25 41.8008 75.707 43.3555 75.707 45.3789V46.2812H67.1172C67.1484 47.5312 67.5117 48.543 68.207 49.3164C68.9102 50.082 69.8008 50.4648 70.8789 50.4648C71.6445 50.4648 72.293 50.3086 72.8242 49.9961C73.3555 49.6836 73.8203 49.2695 74.2188 48.7539L75.543 49.7852C74.4805 51.418 72.8867 52.2344 70.7617 52.2344ZM70.4922 40.8672C69.6172 40.8672 68.8828 41.1875 68.2891 41.8281C67.6953 42.4609 67.3281 43.3516 67.1875 44.5H73.5391V44.3359C73.4766 43.2344 73.1797 42.3828 72.6484 41.7812C72.1172 41.1719 71.3984 40.8672 70.4922 40.8672ZM77.7109 45.5547C77.7109 43.5781 78.168 42.0078 79.082 40.8438C79.9961 39.6719 81.207 39.0859 82.7148 39.0859C84.2617 39.0859 85.4688 39.6328 86.3359 40.7266L86.4414 39.3203H88.4219V51.6953C88.4219 53.3359 87.9336 54.6289 86.957 55.5742C85.9883 56.5195 84.6836 56.9922 83.043 56.9922C82.1289 56.9922 81.2344 56.7969 80.3594 56.4062C79.4844 56.0156 78.8164 55.4805 78.3555 54.8008L79.4805 53.5C80.4102 54.6484 81.5469 55.2227 82.8906 55.2227C83.9453 55.2227 84.7656 54.9258 85.3516 54.332C85.9453 53.7383 86.2422 52.9023 86.2422 51.8242V50.7344C85.375 51.7344 84.1914 52.2344 82.6914 52.2344C81.207 52.2344 80.0039 51.6367 79.082 50.4414C78.168 49.2461 77.7109 47.6172 77.7109 45.5547ZM79.8906 45.8008C79.8906 47.2305 80.1836 48.3555 80.7695 49.1758C81.3555 49.9883 82.1758 50.3945 83.2305 50.3945C84.5977 50.3945 85.6016 49.7734 86.2422 48.5312V42.7422C85.5781 41.5312 84.582 40.9258 83.2539 40.9258C82.1992 40.9258 81.375 41.3359 80.7812 42.1562C80.1875 42.9766 79.8906 44.1914 79.8906 45.8008ZM99.5312 50.7461C98.6875 51.7383 97.4492 52.2344 95.8164 52.2344C94.4648 52.2344 93.4336 51.8438 92.7227 51.0625C92.0195 50.2734 91.6641 49.1094 91.6562 47.5703V39.3203H93.8242V47.5117C93.8242 49.4336 94.6055 50.3945 96.168 50.3945C97.8242 50.3945 98.9258 49.7773 99.4727 48.543V39.3203H101.641V52H99.5781L99.5312 50.7461ZM106.996 39.3203L107.066 40.9141C108.035 39.6953 109.301 39.0859 110.863 39.0859C113.543 39.0859 114.895 40.5977 114.918 43.6211V52H112.75V43.6094C112.742 42.6953 112.531 42.0195 112.117 41.582C111.711 41.1445 111.074 40.9258 110.207 40.9258C109.504 40.9258 108.887 41.1133 108.355 41.4883C107.824 41.8633 107.41 42.3555 107.113 42.9648V52H104.945V39.3203H106.996ZM117.66 45.5547C117.66 43.6094 118.121 42.0469 119.043 40.8672C119.965 39.6797 121.172 39.0859 122.664 39.0859C124.148 39.0859 125.324 39.5938 126.191 40.6094V34H128.359V52H126.367L126.262 50.6406C125.395 51.7031 124.188 52.2344 122.641 52.2344C121.172 52.2344 119.973 51.6328 119.043 50.4297C118.121 49.2266 117.66 47.6562 117.66 45.7188V45.5547ZM119.828 45.8008C119.828 47.2383 120.125 48.3633 120.719 49.1758C121.312 49.9883 122.133 50.3945 123.18 50.3945C124.555 50.3945 125.559 49.7773 126.191 48.543V42.7188C125.543 41.5234 124.547 40.9258 123.203 40.9258C122.141 40.9258 121.312 41.3359 120.719 42.1562C120.125 42.9766 119.828 44.1914 119.828 45.8008ZM131.16 45.543C131.16 44.3008 131.402 43.1836 131.887 42.1914C132.379 41.1992 133.059 40.4336 133.926 39.8945C134.801 39.3555 135.797 39.0859 136.914 39.0859C138.641 39.0859 140.035 39.6836 141.098 40.8789C142.168 42.0742 142.703 43.6641 142.703 45.6484V45.8008C142.703 47.0352 142.465 48.1445 141.988 49.1289C141.52 50.1055 140.844 50.8672 139.961 51.4141C139.086 51.9609 138.078 52.2344 136.938 52.2344C135.219 52.2344 133.824 51.6367 132.754 50.4414C131.691 49.2461 131.16 47.6641 131.16 45.6953V45.543ZM133.34 45.8008C133.34 47.207 133.664 48.3359 134.312 49.1875C134.969 50.0391 135.844 50.4648 136.938 50.4648C138.039 50.4648 138.914 50.0352 139.562 49.1758C140.211 48.3086 140.535 47.0977 140.535 45.543C140.535 44.1523 140.203 43.0273 139.539 42.168C138.883 41.3008 138.008 40.8672 136.914 40.8672C135.844 40.8672 134.98 41.293 134.324 42.1445C133.668 42.9961 133.34 44.2148 133.34 45.8008ZM152.805 48.6367C152.805 48.0508 152.582 47.5977 152.137 47.2773C151.699 46.9492 150.93 46.668 149.828 46.4336C148.734 46.1992 147.863 45.918 147.215 45.5898C146.574 45.2617 146.098 44.8711 145.785 44.418C145.48 43.9648 145.328 43.4258 145.328 42.8008C145.328 41.7617 145.766 40.8828 146.641 40.1641C147.523 39.4453 148.648 39.0859 150.016 39.0859C151.453 39.0859 152.617 39.457 153.508 40.1992C154.406 40.9414 154.855 41.8906 154.855 43.0469H152.676C152.676 42.4531 152.422 41.9414 151.914 41.5117C151.414 41.082 150.781 40.8672 150.016 40.8672C149.227 40.8672 148.609 41.0391 148.164 41.3828C147.719 41.7266 147.496 42.1758 147.496 42.7305C147.496 43.2539 147.703 43.6484 148.117 43.9141C148.531 44.1797 149.277 44.4336 150.355 44.6758C151.441 44.918 152.32 45.207 152.992 45.543C153.664 45.8789 154.16 46.2852 154.48 46.7617C154.809 47.2305 154.973 47.8047 154.973 48.4844C154.973 49.6172 154.52 50.5273 153.613 51.2148C152.707 51.8945 151.531 52.2344 150.086 52.2344C149.07 52.2344 148.172 52.0547 147.391 51.6953C146.609 51.3359 145.996 50.8359 145.551 50.1953C145.113 49.5469 144.895 48.8477 144.895 48.0977H147.062C147.102 48.8242 147.391 49.4023 147.93 49.832C148.477 50.2539 149.195 50.4648 150.086 50.4648C150.906 50.4648 151.562 50.3008 152.055 49.9727C152.555 49.6367 152.805 49.1914 152.805 48.6367ZM174.461 45.8008C174.461 47.7305 174.02 49.2852 173.137 50.4648C172.254 51.6445 171.059 52.2344 169.551 52.2344C168.012 52.2344 166.801 51.7461 165.918 50.7695V56.875H163.75V39.3203H165.73L165.836 40.7266C166.719 39.6328 167.945 39.0859 169.516 39.0859C171.039 39.0859 172.242 39.6602 173.125 40.8086C174.016 41.957 174.461 43.5547 174.461 45.6016V45.8008ZM172.293 45.5547C172.293 44.125 171.988 42.9961 171.379 42.168C170.77 41.3398 169.934 40.9258 168.871 40.9258C167.559 40.9258 166.574 41.5078 165.918 42.6719V48.7305C166.566 49.8867 167.559 50.4648 168.895 50.4648C169.934 50.4648 170.758 50.0547 171.367 49.2344C171.984 48.4062 172.293 47.1797 172.293 45.5547ZM185.055 52C184.93 51.75 184.828 51.3047 184.75 50.6641C183.742 51.7109 182.539 52.2344 181.141 52.2344C179.891 52.2344 178.863 51.8828 178.059 51.1797C177.262 50.4688 176.863 49.5703 176.863 48.4844C176.863 47.1641 177.363 46.1406 178.363 45.4141C179.371 44.6797 180.785 44.3125 182.605 44.3125H184.715V43.3164C184.715 42.5586 184.488 41.957 184.035 41.5117C183.582 41.0586 182.914 40.832 182.031 40.832C181.258 40.832 180.609 41.0273 180.086 41.418C179.562 41.8086 179.301 42.2812 179.301 42.8359H177.121C177.121 42.2031 177.344 41.5938 177.789 41.0078C178.242 40.4141 178.852 39.9453 179.617 39.6016C180.391 39.2578 181.238 39.0859 182.16 39.0859C183.621 39.0859 184.766 39.4531 185.594 40.1875C186.422 40.9141 186.852 41.918 186.883 43.1992V49.0352C186.883 50.1992 187.031 51.125 187.328 51.8125V52H185.055ZM181.457 50.3477C182.137 50.3477 182.781 50.1719 183.391 49.8203C184 49.4688 184.441 49.0117 184.715 48.4492V45.8477H183.016C180.359 45.8477 179.031 46.625 179.031 48.1797C179.031 48.8594 179.258 49.3906 179.711 49.7734C180.164 50.1562 180.746 50.3477 181.457 50.3477ZM196.41 41.2656C196.082 41.2109 195.727 41.1836 195.344 41.1836C193.922 41.1836 192.957 41.7891 192.449 43V52H190.281V39.3203H192.391L192.426 40.7852C193.137 39.6523 194.145 39.0859 195.449 39.0859C195.871 39.0859 196.191 39.1406 196.41 39.25V41.2656ZM205.773 52C205.648 51.75 205.547 51.3047 205.469 50.6641C204.461 51.7109 203.258 52.2344 201.859 52.2344C200.609 52.2344 199.582 51.8828 198.777 51.1797C197.98 50.4688 197.582 49.5703 197.582 48.4844C197.582 47.1641 198.082 46.1406 199.082 45.4141C200.09 44.6797 201.504 44.3125 203.324 44.3125H205.434V43.3164C205.434 42.5586 205.207 41.957 204.754 41.5117C204.301 41.0586 203.633 40.832 202.75 40.832C201.977 40.832 201.328 41.0273 200.805 41.418C200.281 41.8086 200.02 42.2812 200.02 42.8359H197.84C197.84 42.2031 198.062 41.5938 198.508 41.0078C198.961 40.4141 199.57 39.9453 200.336 39.6016C201.109 39.2578 201.957 39.0859 202.879 39.0859C204.34 39.0859 205.484 39.4531 206.312 40.1875C207.141 40.9141 207.57 41.918 207.602 43.1992V49.0352C207.602 50.1992 207.75 51.125 208.047 51.8125V52H205.773ZM202.176 50.3477C202.855 50.3477 203.5 50.1719 204.109 49.8203C204.719 49.4688 205.16 49.0117 205.434 48.4492V45.8477H203.734C201.078 45.8477 199.75 46.625 199.75 48.1797C199.75 48.8594 199.977 49.3906 200.43 49.7734C200.883 50.1562 201.465 50.3477 202.176 50.3477ZM224.781 52C224.656 51.75 224.555 51.3047 224.477 50.6641C223.469 51.7109 222.266 52.2344 220.867 52.2344C219.617 52.2344 218.59 51.8828 217.785 51.1797C216.988 50.4688 216.59 49.5703 216.59 48.4844C216.59 47.1641 217.09 46.1406 218.09 45.4141C219.098 44.6797 220.512 44.3125 222.332 44.3125H224.441V43.3164C224.441 42.5586 224.215 41.957 223.762 41.5117C223.309 41.0586 222.641 40.832 221.758 40.832C220.984 40.832 220.336 41.0273 219.812 41.418C219.289 41.8086 219.027 42.2812 219.027 42.8359H216.848C216.848 42.2031 217.07 41.5938 217.516 41.0078C217.969 40.4141 218.578 39.9453 219.344 39.6016C220.117 39.2578 220.965 39.0859 221.887 39.0859C223.348 39.0859 224.492 39.4531 225.32 40.1875C226.148 40.9141 226.578 41.918 226.609 43.1992V49.0352C226.609 50.1992 226.758 51.125 227.055 51.8125V52H224.781ZM221.184 50.3477C221.863 50.3477 222.508 50.1719 223.117 49.8203C223.727 49.4688 224.168 49.0117 224.441 48.4492V45.8477H222.742C220.086 45.8477 218.758 46.625 218.758 48.1797C218.758 48.8594 218.984 49.3906 219.438 49.7734C219.891 50.1562 220.473 50.3477 221.184 50.3477ZM238.129 40.8555C239.09 39.6758 240.34 39.0859 241.879 39.0859C244.559 39.0859 245.91 40.5977 245.934 43.6211V52H243.766V43.6094C243.758 42.6953 243.547 42.0195 243.133 41.582C242.727 41.1445 242.09 40.9258 241.223 40.9258C240.52 40.9258 239.902 41.1133 239.371 41.4883C238.84 41.8633 238.426 42.3555 238.129 42.9648V52H235.961V34H238.129V40.8555ZM248.605 45.543C248.605 44.3008 248.848 43.1836 249.332 42.1914C249.824 41.1992 250.504 40.4336 251.371 39.8945C252.246 39.3555 253.242 39.0859 254.359 39.0859C256.086 39.0859 257.48 39.6836 258.543 40.8789C259.613 42.0742 260.148 43.6641 260.148 45.6484V45.8008C260.148 47.0352 259.91 48.1445 259.434 49.1289C258.965 50.1055 258.289 50.8672 257.406 51.4141C256.531 51.9609 255.523 52.2344 254.383 52.2344C252.664 52.2344 251.27 51.6367 250.199 50.4414C249.137 49.2461 248.605 47.6641 248.605 45.6953V45.543ZM250.785 45.8008C250.785 47.207 251.109 48.3359 251.758 49.1875C252.414 50.0391 253.289 50.4648 254.383 50.4648C255.484 50.4648 256.359 50.0352 257.008 49.1758C257.656 48.3086 257.98 47.0977 257.98 45.543C257.98 44.1523 257.648 43.0273 256.984 42.168C256.328 41.3008 255.453 40.8672 254.359 40.8672C253.289 40.8672 252.426 41.293 251.77 42.1445C251.113 42.9961 250.785 44.2148 250.785 45.8008ZM264.906 39.3203L264.965 40.7266C265.895 39.6328 267.148 39.0859 268.727 39.0859C270.5 39.0859 271.707 39.7656 272.348 41.125C272.77 40.5156 273.316 40.0234 273.988 39.6484C274.668 39.2734 275.469 39.0859 276.391 39.0859C279.172 39.0859 280.586 40.5586 280.633 43.5039V52H278.465V43.6328C278.465 42.7266 278.258 42.0508 277.844 41.6055C277.43 41.1523 276.734 40.9258 275.758 40.9258C274.953 40.9258 274.285 41.168 273.754 41.6523C273.223 42.1289 272.914 42.7734 272.828 43.5859V52H270.648V43.6914C270.648 41.8477 269.746 40.9258 267.941 40.9258C266.52 40.9258 265.547 41.5312 265.023 42.7422V52H262.855V39.3203H264.906ZM289.176 52.2344C287.457 52.2344 286.059 51.6719 284.98 50.5469C283.902 49.4141 283.363 47.9023 283.363 46.0117V45.6133C283.363 44.3555 283.602 43.2344 284.078 42.25C284.562 41.2578 285.234 40.4844 286.094 39.9297C286.961 39.3672 287.898 39.0859 288.906 39.0859C290.555 39.0859 291.836 39.6289 292.75 40.7148C293.664 41.8008 294.121 43.3555 294.121 45.3789V46.2812H285.531C285.562 47.5312 285.926 48.543 286.621 49.3164C287.324 50.082 288.215 50.4648 289.293 50.4648C290.059 50.4648 290.707 50.3086 291.238 49.9961C291.77 49.6836 292.234 49.2695 292.633 48.7539L293.957 49.7852C292.895 51.418 291.301 52.2344 289.176 52.2344ZM288.906 40.8672C288.031 40.8672 287.297 41.1875 286.703 41.8281C286.109 42.4609 285.742 43.3516 285.602 44.5H291.953V44.3359C291.891 43.2344 291.594 42.3828 291.062 41.7812C290.531 41.1719 289.812 40.8672 288.906 40.8672Z" fill="black"/>
</svg>
