<svg width="420" height="80" viewBox="0 0 420 80" fill="none" xmlns="http://www.w3.org/2000/svg">
<path d="M8.80469 13H7.48535L2.47461 5.33008V13H1.15527V3.04688H2.47461L7.49902 10.751V3.04688H8.80469V13ZM10.6025 9.2334C10.6025 8.50879 10.7438 7.8571 11.0264 7.27832C11.3135 6.69954 11.71 6.25293 12.2158 5.93848C12.7262 5.62402 13.3073 5.4668 13.959 5.4668C14.9661 5.4668 15.7796 5.81543 16.3994 6.5127C17.0238 7.20996 17.3359 8.13737 17.3359 9.29492V9.38379C17.3359 10.1038 17.1969 10.751 16.9189 11.3252C16.6455 11.8949 16.2513 12.3392 15.7363 12.6582C15.2259 12.9772 14.638 13.1367 13.9727 13.1367C12.9701 13.1367 12.1566 12.7881 11.5322 12.0908C10.9124 11.3936 10.6025 10.4707 10.6025 9.32227V9.2334ZM11.874 9.38379C11.874 10.2041 12.0632 10.8626 12.4414 11.3594C12.8242 11.8561 13.3346 12.1045 13.9727 12.1045C14.6152 12.1045 15.1257 11.8538 15.5039 11.3525C15.8822 10.8467 16.0713 10.1403 16.0713 9.2334C16.0713 8.4222 15.8776 7.76595 15.4902 7.26465C15.1074 6.75879 14.597 6.50586 13.959 6.50586C13.3346 6.50586 12.8311 6.75423 12.4482 7.25098C12.0654 7.74772 11.874 8.45866 11.874 9.38379ZM20.1113 5.60352L20.1455 6.42383C20.6878 5.78581 21.4193 5.4668 22.3398 5.4668C23.3743 5.4668 24.0785 5.86328 24.4521 6.65625C24.6982 6.30078 25.0173 6.01367 25.4092 5.79492C25.8057 5.57617 26.2728 5.4668 26.8105 5.4668C28.4329 5.4668 29.2578 6.32585 29.2852 8.04395V13H28.0205V8.11914C28.0205 7.59049 27.8997 7.19629 27.6582 6.93652C27.4167 6.6722 27.0111 6.54004 26.4414 6.54004C25.972 6.54004 25.5824 6.68132 25.2725 6.96387C24.9626 7.24186 24.7826 7.61784 24.7324 8.0918V13H23.4609V8.15332C23.4609 7.0778 22.9346 6.54004 21.8818 6.54004C21.0524 6.54004 20.485 6.89323 20.1797 7.59961V13H18.915V5.60352H20.1113ZM34.2686 13.1367C33.266 13.1367 32.4502 12.8086 31.8213 12.1523C31.1924 11.4915 30.8779 10.6097 30.8779 9.50684V9.27441C30.8779 8.54069 31.0169 7.88672 31.2949 7.3125C31.5775 6.73372 31.9694 6.28255 32.4707 5.95898C32.9766 5.63086 33.5234 5.4668 34.1113 5.4668C35.0729 5.4668 35.8203 5.78353 36.3535 6.41699C36.8867 7.05046 37.1533 7.95736 37.1533 9.1377V9.66406H32.1426C32.1608 10.3932 32.3727 10.9834 32.7783 11.4346C33.1885 11.8812 33.708 12.1045 34.3369 12.1045C34.7835 12.1045 35.1618 12.0133 35.4717 11.8311C35.7816 11.6488 36.0527 11.4072 36.2852 11.1064L37.0576 11.708C36.4378 12.6605 35.5081 13.1367 34.2686 13.1367ZM34.1113 6.50586C33.6009 6.50586 33.1725 6.69271 32.8262 7.06641C32.4798 7.43555 32.2656 7.95508 32.1836 8.625H35.8887V8.5293C35.8522 7.88672 35.679 7.38997 35.3691 7.03906C35.0592 6.68359 34.64 6.50586 34.1113 6.50586ZM41.7881 9.24023C41.7881 8.10547 42.057 7.19401 42.5947 6.50586C43.1325 5.81315 43.8366 5.4668 44.707 5.4668C45.5729 5.4668 46.2588 5.76302 46.7646 6.35547V2.5H48.0293V13H46.8672L46.8057 12.207C46.2998 12.8268 45.5957 13.1367 44.6934 13.1367C43.8366 13.1367 43.137 12.7858 42.5947 12.084C42.057 11.3822 41.7881 10.4661 41.7881 9.33594V9.24023ZM43.0527 9.38379C43.0527 10.2223 43.2259 10.8786 43.5723 11.3525C43.9186 11.8265 44.3971 12.0635 45.0078 12.0635C45.8099 12.0635 46.3955 11.7035 46.7646 10.9834V7.58594C46.3864 6.88867 45.8053 6.54004 45.0215 6.54004C44.4017 6.54004 43.9186 6.7793 43.5723 7.25781C43.2259 7.73633 43.0527 8.44499 43.0527 9.38379ZM49.6631 9.2334C49.6631 8.50879 49.8044 7.8571 50.0869 7.27832C50.374 6.69954 50.7705 6.25293 51.2764 5.93848C51.7868 5.62402 52.3678 5.4668 53.0195 5.4668C54.0267 5.4668 54.8402 5.81543 55.46 6.5127C56.0843 7.20996 56.3965 8.13737 56.3965 9.29492V9.38379C56.3965 10.1038 56.2575 10.751 55.9795 11.3252C55.7061 11.8949 55.3118 12.3392 54.7969 12.6582C54.2865 12.9772 53.6986 13.1367 53.0332 13.1367C52.0306 13.1367 51.2171 12.7881 50.5928 12.0908C49.973 11.3936 49.6631 10.4707 49.6631 9.32227V9.2334ZM50.9346 9.38379C50.9346 10.2041 51.1237 10.8626 51.502 11.3594C51.8848 11.8561 52.3952 12.1045 53.0332 12.1045C53.6758 12.1045 54.1862 11.8538 54.5645 11.3525C54.9427 10.8467 55.1318 10.1403 55.1318 9.2334C55.1318 8.4222 54.9382 7.76595 54.5508 7.26465C54.168 6.75879 53.6576 6.50586 53.0195 6.50586C52.3952 6.50586 51.8916 6.75423 51.5088 7.25098C51.126 7.74772 50.9346 8.45866 50.9346 9.38379ZM62.8291 13H61.5645V5.60352H62.8291V13ZM61.4619 3.6416C61.4619 3.43652 61.5234 3.26335 61.6465 3.12207C61.7741 2.98079 61.9609 2.91016 62.207 2.91016C62.4531 2.91016 62.64 2.98079 62.7676 3.12207C62.8952 3.26335 62.959 3.43652 62.959 3.6416C62.959 3.84668 62.8952 4.01758 62.7676 4.1543C62.64 4.29102 62.4531 4.35938 62.207 4.35938C61.9609 4.35938 61.7741 4.29102 61.6465 4.1543C61.5234 4.01758 61.4619 3.84668 61.4619 3.6416ZM66.0557 5.60352L66.0967 6.5332C66.6618 5.82227 67.4001 5.4668 68.3115 5.4668C69.8747 5.4668 70.6631 6.34863 70.6768 8.1123V13H69.4121V8.10547C69.4076 7.57227 69.2845 7.17806 69.043 6.92285C68.806 6.66764 68.4346 6.54004 67.9287 6.54004C67.5186 6.54004 67.1585 6.64941 66.8486 6.86816C66.5387 7.08691 66.2972 7.37402 66.124 7.72949V13H64.8594V5.60352H66.0557ZM78.832 9.38379C78.832 10.5094 78.5745 11.4163 78.0596 12.1045C77.5446 12.7926 76.8473 13.1367 75.9678 13.1367C75.07 13.1367 74.3636 12.8519 73.8486 12.2822V15.8438H72.584V5.60352H73.7393L73.8008 6.42383C74.3158 5.78581 75.0312 5.4668 75.9473 5.4668C76.8359 5.4668 77.5378 5.80176 78.0527 6.47168C78.5723 7.1416 78.832 8.07357 78.832 9.26758V9.38379ZM77.5674 9.24023C77.5674 8.40625 77.3896 7.74772 77.0342 7.26465C76.6787 6.78158 76.1911 6.54004 75.5713 6.54004C74.8057 6.54004 74.2314 6.87956 73.8486 7.55859V11.0928C74.2269 11.7673 74.8057 12.1045 75.585 12.1045C76.1911 12.1045 76.6719 11.8652 77.0273 11.3867C77.3874 10.9036 77.5674 10.1882 77.5674 9.24023ZM85.0117 12.2686C84.5195 12.8473 83.7972 13.1367 82.8447 13.1367C82.0563 13.1367 81.4548 12.9089 81.04 12.4531C80.6299 11.9928 80.4225 11.3138 80.418 10.416V5.60352H81.6826V10.3818C81.6826 11.5029 82.1383 12.0635 83.0498 12.0635C84.016 12.0635 84.6585 11.7035 84.9775 10.9834V5.60352H86.2422V13H85.0391L85.0117 12.2686ZM89.8857 3.8125V5.60352H91.2666V6.58105H89.8857V11.168C89.8857 11.4642 89.9473 11.6875 90.0703 11.8379C90.1934 11.9837 90.403 12.0566 90.6992 12.0566C90.8451 12.0566 91.0456 12.0293 91.3008 11.9746V13C90.9681 13.0911 90.6445 13.1367 90.3301 13.1367C89.765 13.1367 89.3389 12.9658 89.0518 12.624C88.7646 12.2822 88.6211 11.7969 88.6211 11.168V6.58105H87.2744V5.60352H88.6211V3.8125H89.8857Z" fill="#6C6C80"/>
<rect y="24" width="420" height="56" rx="8" fill="#F0F0F5"/>
<path d="M26.9297 58H25.4297V46.625H26.9297V58ZM30.8203 49.5469L30.8672 50.6094C31.513 49.7969 32.3568 49.3906 33.3984 49.3906C35.1849 49.3906 36.0859 50.3984 36.1016 52.4141V58H34.6562V52.4062C34.651 51.7969 34.5104 51.3464 34.2344 51.0547C33.9635 50.763 33.5391 50.6172 32.9609 50.6172C32.4922 50.6172 32.0807 50.7422 31.7266 50.9922C31.3724 51.2422 31.0964 51.5703 30.8984 51.9766V58H29.4531V49.5469H30.8203ZM45.4219 53.8672C45.4219 55.1536 45.1276 56.1901 44.5391 56.9766C43.9505 57.763 43.1536 58.1562 42.1484 58.1562C41.1224 58.1562 40.3151 57.8307 39.7266 57.1797V61.25H38.2812V49.5469H39.6016L39.6719 50.4844C40.2604 49.7552 41.0781 49.3906 42.125 49.3906C43.1406 49.3906 43.9427 49.7734 44.5312 50.5391C45.125 51.3047 45.4219 52.3698 45.4219 53.7344V53.8672ZM43.9766 53.7031C43.9766 52.75 43.7734 51.9974 43.3672 51.4453C42.9609 50.8932 42.4036 50.6172 41.6953 50.6172C40.8203 50.6172 40.1641 51.0052 39.7266 51.7812V55.8203C40.1589 56.5911 40.8203 56.9766 41.7109 56.9766C42.4036 56.9766 42.9531 56.7031 43.3594 56.1562C43.7708 55.6042 43.9766 54.7865 43.9766 53.7031ZM52.4844 57.1641C51.9219 57.8255 51.0964 58.1562 50.0078 58.1562C49.1068 58.1562 48.4193 57.8958 47.9453 57.375C47.4766 56.849 47.2396 56.0729 47.2344 55.0469V49.5469H48.6797V55.0078C48.6797 56.2891 49.2005 56.9297 50.2422 56.9297C51.3464 56.9297 52.0807 56.5182 52.4453 55.6953V49.5469H53.8906V58H52.5156L52.4844 57.1641ZM58.0547 47.5V49.5469H59.6328V50.6641H58.0547V55.9062C58.0547 56.2448 58.125 56.5 58.2656 56.6719C58.4062 56.8385 58.6458 56.9219 58.9844 56.9219C59.151 56.9219 59.3802 56.8906 59.6719 56.8281V58C59.2917 58.1042 58.9219 58.1562 58.5625 58.1562C57.9167 58.1562 57.4297 57.9609 57.1016 57.5703C56.7734 57.1797 56.6094 56.625 56.6094 55.9062V50.6641H55.0703V49.5469H56.6094V47.5H58.0547ZM72.4375 53.8672C72.4375 55.1536 72.1432 56.1901 71.5547 56.9766C70.9661 57.763 70.1693 58.1562 69.1641 58.1562C68.138 58.1562 67.3307 57.8307 66.7422 57.1797V61.25H65.2969V49.5469H66.6172L66.6875 50.4844C67.276 49.7552 68.0938 49.3906 69.1406 49.3906C70.1562 49.3906 70.9583 49.7734 71.5469 50.5391C72.1406 51.3047 72.4375 52.3698 72.4375 53.7344V53.8672ZM70.9922 53.7031C70.9922 52.75 70.7891 51.9974 70.3828 51.4453C69.9766 50.8932 69.4193 50.6172 68.7109 50.6172C67.8359 50.6172 67.1797 51.0052 66.7422 51.7812V55.8203C67.1745 56.5911 67.8359 56.9766 68.7266 56.9766C69.4193 56.9766 69.9688 56.7031 70.375 56.1562C70.7865 55.6042 70.9922 54.7865 70.9922 53.7031ZM78.3672 50.8438C78.1484 50.8073 77.9115 50.7891 77.6562 50.7891C76.7083 50.7891 76.0651 51.1927 75.7266 52V58H74.2812V49.5469H75.6875L75.7109 50.5234C76.1849 49.7682 76.8568 49.3906 77.7266 49.3906C78.0078 49.3906 78.2214 49.4271 78.3672 49.5V50.8438ZM83.0547 58.1562C81.9089 58.1562 80.9766 57.7812 80.2578 57.0312C79.5391 56.276 79.1797 55.2682 79.1797 54.0078V53.7422C79.1797 52.9036 79.3385 52.1562 79.6562 51.5C79.9792 50.8385 80.4271 50.3229 81 49.9531C81.5781 49.5781 82.2031 49.3906 82.875 49.3906C83.974 49.3906 84.8281 49.7526 85.4375 50.4766C86.0469 51.2005 86.3516 52.237 86.3516 53.5859V54.1875H80.625C80.6458 55.0208 80.888 55.6953 81.3516 56.2109C81.8203 56.7214 82.4141 56.9766 83.1328 56.9766C83.6432 56.9766 84.0755 56.8724 84.4297 56.6641C84.7839 56.4557 85.0938 56.1797 85.3594 55.8359L86.2422 56.5234C85.5339 57.612 84.4714 58.1562 83.0547 58.1562ZM82.875 50.5781C82.2917 50.5781 81.8021 50.7917 81.4062 51.2188C81.0104 51.6406 80.7656 52.2344 80.6719 53H84.9062V52.8906C84.8646 52.1562 84.6667 51.5885 84.3125 51.1875C83.9583 50.7812 83.4792 50.5781 82.875 50.5781ZM91.5391 58.1562C90.3932 58.1562 89.4609 57.7812 88.7422 57.0312C88.0234 56.276 87.6641 55.2682 87.6641 54.0078V53.7422C87.6641 52.9036 87.8229 52.1562 88.1406 51.5C88.4635 50.8385 88.9115 50.3229 89.4844 49.9531C90.0625 49.5781 90.6875 49.3906 91.3594 49.3906C92.4583 49.3906 93.3125 49.7526 93.9219 50.4766C94.5312 51.2005 94.8359 52.237 94.8359 53.5859V54.1875H89.1094C89.1302 55.0208 89.3724 55.6953 89.8359 56.2109C90.3047 56.7214 90.8984 56.9766 91.6172 56.9766C92.1276 56.9766 92.5599 56.8724 92.9141 56.6641C93.2682 56.4557 93.5781 56.1797 93.8438 55.8359L94.7266 56.5234C94.0182 57.612 92.9557 58.1562 91.5391 58.1562ZM91.3594 50.5781C90.776 50.5781 90.2865 50.7917 89.8906 51.2188C89.4948 51.6406 89.25 52.2344 89.1562 53H93.3906V52.8906C93.349 52.1562 93.151 51.5885 92.7969 51.1875C92.4427 50.7812 91.9635 50.5781 91.3594 50.5781ZM97.8828 49.5469L97.9297 50.6094C98.5755 49.7969 99.4193 49.3906 100.461 49.3906C102.247 49.3906 103.148 50.3984 103.164 52.4141V58H101.719V52.4062C101.714 51.7969 101.573 51.3464 101.297 51.0547C101.026 50.763 100.602 50.6172 100.023 50.6172C99.5547 50.6172 99.1432 50.7422 98.7891 50.9922C98.4349 51.2422 98.1589 51.5703 97.9609 51.9766V58H96.5156V49.5469H97.8828ZM108.734 56.9766C109.25 56.9766 109.701 56.8203 110.086 56.5078C110.471 56.1953 110.685 55.8047 110.727 55.3359H112.094C112.068 55.8203 111.901 56.2812 111.594 56.7188C111.286 57.1562 110.875 57.5052 110.359 57.7656C109.849 58.026 109.307 58.1562 108.734 58.1562C107.583 58.1562 106.667 57.7734 105.984 57.0078C105.307 56.237 104.969 55.1849 104.969 53.8516V53.6094C104.969 52.7865 105.12 52.0547 105.422 51.4141C105.724 50.7734 106.156 50.276 106.719 49.9219C107.286 49.5677 107.956 49.3906 108.727 49.3906C109.674 49.3906 110.461 49.6745 111.086 50.2422C111.716 50.8099 112.052 51.5469 112.094 52.4531H110.727C110.685 51.9062 110.477 51.4583 110.102 51.1094C109.732 50.7552 109.273 50.5781 108.727 50.5781C107.992 50.5781 107.422 50.8438 107.016 51.375C106.615 51.901 106.414 52.6641 106.414 53.6641V53.9375C106.414 54.9115 106.615 55.6615 107.016 56.1875C107.417 56.7135 107.99 56.9766 108.734 56.9766ZM115.164 50.5703C115.805 49.7839 116.638 49.3906 117.664 49.3906C119.451 49.3906 120.352 50.3984 120.367 52.4141V58H118.922V52.4062C118.917 51.7969 118.776 51.3464 118.5 51.0547C118.229 50.763 117.805 50.6172 117.227 50.6172C116.758 50.6172 116.346 50.7422 115.992 50.9922C115.638 51.2422 115.362 51.5703 115.164 51.9766V58H113.719V46H115.164V50.5703ZM124.102 58H122.656V49.5469H124.102V58ZM122.539 47.3047C122.539 47.0703 122.609 46.8724 122.75 46.7109C122.896 46.5495 123.109 46.4688 123.391 46.4688C123.672 46.4688 123.885 46.5495 124.031 46.7109C124.177 46.8724 124.25 47.0703 124.25 47.3047C124.25 47.5391 124.177 47.7344 124.031 47.8906C123.885 48.0469 123.672 48.125 123.391 48.125C123.109 48.125 122.896 48.0469 122.75 47.8906C122.609 47.7344 122.539 47.5391 122.539 47.3047ZM126.07 53.7031C126.07 52.4062 126.378 51.3646 126.992 50.5781C127.607 49.7865 128.411 49.3906 129.406 49.3906C130.396 49.3906 131.18 49.7292 131.758 50.4062V46H133.203V58H131.875L131.805 57.0938C131.227 57.8021 130.422 58.1562 129.391 58.1562C128.411 58.1562 127.612 57.7552 126.992 56.9531C126.378 56.151 126.07 55.1042 126.07 53.8125V53.7031ZM127.516 53.8672C127.516 54.8255 127.714 55.5755 128.109 56.1172C128.505 56.6589 129.052 56.9297 129.75 56.9297C130.667 56.9297 131.336 56.5182 131.758 55.6953V51.8125C131.326 51.0156 130.661 50.6172 129.766 50.6172C129.057 50.6172 128.505 50.8906 128.109 51.4375C127.714 51.9844 127.516 52.7943 127.516 53.8672ZM135.07 53.6953C135.07 52.8672 135.232 52.1224 135.555 51.4609C135.883 50.7995 136.336 50.2891 136.914 49.9297C137.497 49.5703 138.161 49.3906 138.906 49.3906C140.057 49.3906 140.987 49.7891 141.695 50.5859C142.409 51.3828 142.766 52.4427 142.766 53.7656V53.8672C142.766 54.6901 142.607 55.4297 142.289 56.0859C141.977 56.737 141.526 57.2448 140.938 57.6094C140.354 57.974 139.682 58.1562 138.922 58.1562C137.776 58.1562 136.846 57.7578 136.133 56.9609C135.424 56.1641 135.07 55.1094 135.07 53.7969V53.6953ZM136.523 53.8672C136.523 54.8047 136.74 55.5573 137.172 56.125C137.609 56.6927 138.193 56.9766 138.922 56.9766C139.656 56.9766 140.24 56.6901 140.672 56.1172C141.104 55.5391 141.32 54.7318 141.32 53.6953C141.32 52.7682 141.099 52.0182 140.656 51.4453C140.219 50.8672 139.635 50.5781 138.906 50.5781C138.193 50.5781 137.617 50.862 137.18 51.4297C136.742 51.9974 136.523 52.8099 136.523 53.8672Z" fill="#6C6C80"/>
</svg>
