<svg width="493" height="118" viewBox="0 0 493 118" fill="none" xmlns="http://www.w3.org/2000/svg">
<path d="M64.1406 86.1562C64.1406 81.7292 62.5781 78.3438 59.4531 76C56.3281 73.6042 50.7031 71.1042 42.5781 68.5C34.4531 65.8438 28.0208 63.2396 23.2812 60.6875C10.3646 53.7083 3.90625 44.3073 3.90625 32.4844C3.90625 26.3385 5.625 20.8698 9.0625 16.0781C12.5521 11.2344 17.526 7.45833 23.9844 4.75C30.4948 2.04167 37.7865 0.6875 45.8594 0.6875C53.9844 0.6875 61.224 2.17188 67.5781 5.14062C73.9323 8.05729 78.8542 12.1979 82.3438 17.5625C85.8854 22.9271 87.6562 29.0208 87.6562 35.8438H64.2188C64.2188 30.6354 62.5781 26.599 59.2969 23.7344C56.0156 20.8177 51.4062 19.3594 45.4688 19.3594C39.7396 19.3594 35.2865 20.5833 32.1094 23.0312C28.9323 25.4271 27.3438 28.6042 27.3438 32.5625C27.3438 36.2604 29.1927 39.3594 32.8906 41.8594C36.6406 44.3594 42.1354 46.7031 49.375 48.8906C62.7083 52.901 72.4219 57.875 78.5156 63.8125C84.6094 69.75 87.6562 77.1458 87.6562 86C87.6562 95.8438 83.9323 103.578 76.4844 109.203C69.0365 114.776 59.0104 117.562 46.4062 117.562C37.6562 117.562 29.6875 115.974 22.5 112.797C15.3125 109.568 9.81771 105.167 6.01562 99.5938C2.26562 94.0208 0.390625 87.5625 0.390625 80.2188H23.9062C23.9062 92.7708 31.4062 99.0469 46.4062 99.0469C51.9792 99.0469 56.3281 97.9271 59.4531 95.6875C62.5781 93.3958 64.1406 90.2188 64.1406 86.1562ZM129.141 10.6875V31.4688H143.594V48.0312H129.141V90.2188C129.141 93.3438 129.74 95.5833 130.938 96.9375C132.135 98.2917 134.427 98.9688 137.812 98.9688C140.312 98.9688 142.526 98.7865 144.453 98.4219V115.531C140.026 116.885 135.469 117.562 130.781 117.562C114.948 117.562 106.875 109.568 106.562 93.5781V48.0312H94.2188V31.4688H106.562V10.6875H129.141ZM205.156 116C204.115 113.969 203.359 111.443 202.891 108.422C197.422 114.516 190.312 117.562 181.562 117.562C173.281 117.562 166.406 115.167 160.938 110.375C155.521 105.583 152.812 99.5417 152.812 92.25C152.812 83.2917 156.12 76.4167 162.734 71.625C169.401 66.8333 179.01 64.4115 191.562 64.3594H201.953V59.5156C201.953 55.6094 200.938 52.4844 198.906 50.1406C196.927 47.7969 193.776 46.625 189.453 46.625C185.651 46.625 182.656 47.5365 180.469 49.3594C178.333 51.1823 177.266 53.6823 177.266 56.8594H154.688C154.688 51.9635 156.198 47.4323 159.219 43.2656C162.24 39.099 166.51 35.8438 172.031 33.5C177.552 31.1042 183.75 29.9062 190.625 29.9062C201.042 29.9062 209.297 32.5365 215.391 37.7969C221.536 43.0052 224.609 50.349 224.609 59.8281V96.4688C224.661 104.49 225.781 110.557 227.969 114.672V116H205.156ZM186.484 100.297C189.818 100.297 192.891 99.5677 195.703 98.1094C198.516 96.599 200.599 94.5938 201.953 92.0938V77.5625H193.516C182.214 77.5625 176.198 81.4688 175.469 89.2812L175.391 90.6094C175.391 93.4219 176.38 95.7396 178.359 97.5625C180.339 99.3854 183.047 100.297 186.484 100.297ZM289.453 52.6406C286.38 52.224 283.672 52.0156 281.328 52.0156C272.786 52.0156 267.188 54.9062 264.531 60.6875V116H241.953V31.4688H263.281L263.906 41.5469C268.438 33.7865 274.714 29.9062 282.734 29.9062C285.234 29.9062 287.578 30.2448 289.766 30.9219L289.453 52.6406ZM331.328 10.6875V31.4688H345.781V48.0312H331.328V90.2188C331.328 93.3438 331.927 95.5833 333.125 96.9375C334.323 98.2917 336.615 98.9688 340 98.9688C342.5 98.9688 344.714 98.7865 346.641 98.4219V115.531C342.214 116.885 337.656 117.562 332.969 117.562C317.135 117.562 309.062 109.568 308.75 93.5781V48.0312H296.406V31.4688H308.75V10.6875H331.328ZM397.266 117.562C384.87 117.562 374.766 113.76 366.953 106.156C359.193 98.5521 355.312 88.4219 355.312 75.7656V73.5781C355.312 65.0885 356.953 57.5104 360.234 50.8438C363.516 44.125 368.151 38.9688 374.141 35.375C380.182 31.7292 387.057 29.9062 394.766 29.9062C406.328 29.9062 415.417 33.5521 422.031 40.8438C428.698 48.1354 432.031 58.474 432.031 71.8594V81.0781H378.203C378.932 86.599 381.12 91.026 384.766 94.3594C388.464 97.6927 393.125 99.3594 398.75 99.3594C407.448 99.3594 414.245 96.2083 419.141 89.9062L430.234 102.328C426.849 107.12 422.266 110.87 416.484 113.578C410.703 116.234 404.297 117.562 397.266 117.562ZM394.688 48.1875C390.208 48.1875 386.562 49.6979 383.75 52.7188C380.99 55.7396 379.219 60.0625 378.438 65.6875H409.844V63.8906C409.74 58.8906 408.385 55.0365 405.781 52.3281C403.177 49.5677 399.479 48.1875 394.688 48.1875ZM492.422 52.6406C489.349 52.224 486.641 52.0156 484.297 52.0156C475.755 52.0156 470.156 54.9062 467.5 60.6875V116H444.922V31.4688H466.25L466.875 41.5469C471.406 33.7865 477.682 29.9062 485.703 29.9062C488.203 29.9062 490.547 30.2448 492.734 30.9219L492.422 52.6406Z" fill="#322153"/>
</svg>
