<svg width="362" height="50" viewBox="0 0 362 50" fill="none" xmlns="http://www.w3.org/2000/svg">
<path d="M9.50195 11.2891H3.54492L2.20703 15H0.273438L5.70312 0.78125H7.34375L12.7832 15H10.8594L9.50195 11.2891ZM4.11133 9.74609H8.94531L6.52344 3.0957L4.11133 9.74609ZM18.6523 13.7207C19.2969 13.7207 19.86 13.5254 20.3418 13.1348C20.8236 12.7441 21.0905 12.2559 21.1426 11.6699H22.8516C22.819 12.2754 22.6107 12.8516 22.2266 13.3984C21.8424 13.9453 21.3281 14.3815 20.6836 14.707C20.0456 15.0326 19.3685 15.1953 18.6523 15.1953C17.2135 15.1953 16.0677 14.7168 15.2148 13.7598C14.3685 12.7962 13.9453 11.4811 13.9453 9.81445V9.51172C13.9453 8.48307 14.1341 7.56836 14.5117 6.76758C14.8893 5.9668 15.4297 5.34505 16.1328 4.90234C16.8424 4.45964 17.679 4.23828 18.6426 4.23828C19.8275 4.23828 20.8105 4.5931 21.5918 5.30273C22.3796 6.01237 22.7995 6.93359 22.8516 8.06641H21.1426C21.0905 7.38281 20.8301 6.82292 20.3613 6.38672C19.8991 5.94401 19.3262 5.72266 18.6426 5.72266C17.7246 5.72266 17.0117 6.05469 16.5039 6.71875C16.0026 7.3763 15.752 8.33008 15.752 9.58008V9.92188C15.752 11.1393 16.0026 12.0768 16.5039 12.7344C17.0052 13.3919 17.7214 13.7207 18.6523 13.7207ZM29.2676 15.1953C27.8353 15.1953 26.6699 14.7266 25.7715 13.7891C24.873 12.8451 24.4238 11.5853 24.4238 10.0098V9.67773C24.4238 8.62956 24.6224 7.69531 25.0195 6.875C25.4232 6.04818 25.9831 5.40365 26.6992 4.94141C27.4219 4.47266 28.2031 4.23828 29.043 4.23828C30.4167 4.23828 31.4844 4.69076 32.2461 5.5957C33.0078 6.50065 33.3887 7.79622 33.3887 9.48242V10.2344H26.2305C26.2565 11.276 26.5592 12.1191 27.1387 12.7637C27.7246 13.4017 28.4668 13.7207 29.3652 13.7207C30.0033 13.7207 30.5436 13.5905 30.9863 13.3301C31.429 13.0697 31.8164 12.7246 32.1484 12.2949L33.252 13.1543C32.3665 14.515 31.0384 15.1953 29.2676 15.1953ZM29.043 5.72266C28.3138 5.72266 27.7018 5.98958 27.207 6.52344C26.7122 7.05078 26.4062 7.79297 26.2891 8.75H31.582V8.61328C31.5299 7.69531 31.2826 6.98568 30.8398 6.48438C30.3971 5.97656 29.7982 5.72266 29.043 5.72266ZM41.6406 12.1973C41.6406 11.709 41.4551 11.3314 41.084 11.0645C40.7194 10.791 40.0781 10.5566 39.1602 10.3613C38.2487 10.166 37.5228 9.93164 36.9824 9.6582C36.4486 9.38477 36.0514 9.05924 35.791 8.68164C35.5371 8.30404 35.4102 7.85482 35.4102 7.33398C35.4102 6.4681 35.7747 5.73568 36.5039 5.13672C37.2396 4.53776 38.1771 4.23828 39.3164 4.23828C40.5143 4.23828 41.4844 4.54753 42.2266 5.16602C42.9753 5.78451 43.3496 6.57552 43.3496 7.53906H41.5332C41.5332 7.04427 41.3216 6.61784 40.8984 6.25977C40.4818 5.90169 39.9544 5.72266 39.3164 5.72266C38.6589 5.72266 38.1445 5.86589 37.7734 6.15234C37.4023 6.4388 37.2168 6.81315 37.2168 7.27539C37.2168 7.71159 37.3893 8.04036 37.7344 8.26172C38.0794 8.48307 38.7012 8.69466 39.5996 8.89648C40.5046 9.09831 41.237 9.33919 41.7969 9.61914C42.3568 9.89909 42.7702 10.2376 43.0371 10.6348C43.3105 11.0254 43.4473 11.5039 43.4473 12.0703C43.4473 13.0143 43.0697 13.7728 42.3145 14.3457C41.5592 14.9121 40.5794 15.1953 39.375 15.1953C38.5286 15.1953 37.7799 15.0456 37.1289 14.7461C36.4779 14.4466 35.9668 14.0299 35.5957 13.4961C35.2311 12.9557 35.0488 12.373 35.0488 11.748H36.8555C36.888 12.3535 37.1289 12.8353 37.5781 13.1934C38.0339 13.5449 38.6328 13.7207 39.375 13.7207C40.0586 13.7207 40.6055 13.584 41.0156 13.3105C41.4323 13.0306 41.6406 12.6595 41.6406 12.1973ZM51.9531 12.1973C51.9531 11.709 51.7676 11.3314 51.3965 11.0645C51.0319 10.791 50.3906 10.5566 49.4727 10.3613C48.5612 10.166 47.8353 9.93164 47.2949 9.6582C46.7611 9.38477 46.3639 9.05924 46.1035 8.68164C45.8496 8.30404 45.7227 7.85482 45.7227 7.33398C45.7227 6.4681 46.0872 5.73568 46.8164 5.13672C47.5521 4.53776 48.4896 4.23828 49.6289 4.23828C50.8268 4.23828 51.7969 4.54753 52.5391 5.16602C53.2878 5.78451 53.6621 6.57552 53.6621 7.53906H51.8457C51.8457 7.04427 51.6341 6.61784 51.2109 6.25977C50.7943 5.90169 50.2669 5.72266 49.6289 5.72266C48.9714 5.72266 48.457 5.86589 48.0859 6.15234C47.7148 6.4388 47.5293 6.81315 47.5293 7.27539C47.5293 7.71159 47.7018 8.04036 48.0469 8.26172C48.3919 8.48307 49.0137 8.69466 49.9121 8.89648C50.8171 9.09831 51.5495 9.33919 52.1094 9.61914C52.6693 9.89909 53.0827 10.2376 53.3496 10.6348C53.623 11.0254 53.7598 11.5039 53.7598 12.0703C53.7598 13.0143 53.3822 13.7728 52.627 14.3457C51.8717 14.9121 50.8919 15.1953 49.6875 15.1953C48.8411 15.1953 48.0924 15.0456 47.4414 14.7461C46.7904 14.4466 46.2793 14.0299 45.9082 13.4961C45.5436 12.9557 45.3613 12.373 45.3613 11.748H47.168C47.2005 12.3535 47.4414 12.8353 47.8906 13.1934C48.3464 13.5449 48.9453 13.7207 49.6875 13.7207C50.3711 13.7207 50.918 13.584 51.3281 13.3105C51.7448 13.0306 51.9531 12.6595 51.9531 12.1973ZM60.498 15.1953C59.0658 15.1953 57.9004 14.7266 57.002 13.7891C56.1035 12.8451 55.6543 11.5853 55.6543 10.0098V9.67773C55.6543 8.62956 55.8529 7.69531 56.25 6.875C56.6536 6.04818 57.2135 5.40365 57.9297 4.94141C58.6523 4.47266 59.4336 4.23828 60.2734 4.23828C61.6471 4.23828 62.7148 4.69076 63.4766 5.5957C64.2383 6.50065 64.6191 7.79622 64.6191 9.48242V10.2344H57.4609C57.487 11.276 57.7897 12.1191 58.3691 12.7637C58.9551 13.4017 59.6973 13.7207 60.5957 13.7207C61.2337 13.7207 61.7741 13.5905 62.2168 13.3301C62.6595 13.0697 63.0469 12.7246 63.3789 12.2949L64.4824 13.1543C63.597 14.515 62.2689 15.1953 60.498 15.1953ZM60.2734 5.72266C59.5443 5.72266 58.9323 5.98958 58.4375 6.52344C57.9427 7.05078 57.6367 7.79297 57.5195 8.75H62.8125V8.61328C62.7604 7.69531 62.513 6.98568 62.0703 6.48438C61.6276 5.97656 61.0286 5.72266 60.2734 5.72266ZM76.0645 15.1953C74.6322 15.1953 73.4668 14.7266 72.5684 13.7891C71.6699 12.8451 71.2207 11.5853 71.2207 10.0098V9.67773C71.2207 8.62956 71.4193 7.69531 71.8164 6.875C72.2201 6.04818 72.7799 5.40365 73.4961 4.94141C74.2188 4.47266 75 4.23828 75.8398 4.23828C77.2135 4.23828 78.2812 4.69076 79.043 5.5957C79.8047 6.50065 80.1855 7.79622 80.1855 9.48242V10.2344H73.0273C73.0534 11.276 73.3561 12.1191 73.9355 12.7637C74.5215 13.4017 75.2637 13.7207 76.1621 13.7207C76.8001 13.7207 77.3405 13.5905 77.7832 13.3301C78.2259 13.0697 78.6133 12.7246 78.9453 12.2949L80.0488 13.1543C79.1634 14.515 77.8353 15.1953 76.0645 15.1953ZM75.8398 5.72266C75.1107 5.72266 74.4987 5.98958 74.0039 6.52344C73.5091 7.05078 73.2031 7.79297 73.0859 8.75H78.3789V8.61328C78.3268 7.69531 78.0794 6.98568 77.6367 6.48438C77.194 5.97656 76.5951 5.72266 75.8398 5.72266ZM83.9941 4.43359L84.0527 5.76172C84.86 4.74609 85.9147 4.23828 87.2168 4.23828C89.4499 4.23828 90.5762 5.49805 90.5957 8.01758V15H88.7891V8.00781C88.7826 7.24609 88.6068 6.68294 88.2617 6.31836C87.9232 5.95378 87.3926 5.77148 86.6699 5.77148C86.084 5.77148 85.5697 5.92773 85.127 6.24023C84.6842 6.55273 84.3392 6.96289 84.0918 7.4707V15H82.2852V4.43359H83.9941ZM95.7715 1.875V4.43359H97.7441V5.83008H95.7715V12.3828C95.7715 12.806 95.8594 13.125 96.0352 13.3398C96.2109 13.5482 96.5104 13.6523 96.9336 13.6523C97.1419 13.6523 97.4284 13.6133 97.793 13.5352V15C97.3177 15.1302 96.8555 15.1953 96.4062 15.1953C95.599 15.1953 94.9902 14.9512 94.5801 14.4629C94.1699 13.9746 93.9648 13.2812 93.9648 12.3828V5.83008H92.041V4.43359H93.9648V1.875H95.7715ZM104.971 6.05469C104.697 6.00911 104.401 5.98633 104.082 5.98633C102.897 5.98633 102.093 6.49089 101.67 7.5V15H99.8633V4.43359H101.621L101.65 5.6543C102.243 4.71029 103.083 4.23828 104.17 4.23828C104.521 4.23828 104.788 4.28385 104.971 4.375V6.05469ZM110.83 15.1953C109.398 15.1953 108.232 14.7266 107.334 13.7891C106.436 12.8451 105.986 11.5853 105.986 10.0098V9.67773C105.986 8.62956 106.185 7.69531 106.582 6.875C106.986 6.04818 107.546 5.40365 108.262 4.94141C108.984 4.47266 109.766 4.23828 110.605 4.23828C111.979 4.23828 113.047 4.69076 113.809 5.5957C114.57 6.50065 114.951 7.79622 114.951 9.48242V10.2344H107.793C107.819 11.276 108.122 12.1191 108.701 12.7637C109.287 13.4017 110.029 13.7207 110.928 13.7207C111.566 13.7207 112.106 13.5905 112.549 13.3301C112.992 13.0697 113.379 12.7246 113.711 12.2949L114.814 13.1543C113.929 14.515 112.601 15.1953 110.83 15.1953ZM110.605 5.72266C109.876 5.72266 109.264 5.98958 108.77 6.52344C108.275 7.05078 107.969 7.79297 107.852 8.75H113.145V8.61328C113.092 7.69531 112.845 6.98568 112.402 6.48438C111.96 5.97656 111.361 5.72266 110.605 5.72266ZM126.484 8.66211C124.876 8.19987 123.704 7.63346 122.969 6.96289C122.24 6.28581 121.875 5.45247 121.875 4.46289C121.875 3.3431 122.321 2.41862 123.213 1.68945C124.111 0.953776 125.277 0.585938 126.709 0.585938C127.686 0.585938 128.555 0.77474 129.316 1.15234C130.085 1.52995 130.677 2.05078 131.094 2.71484C131.517 3.37891 131.729 4.10482 131.729 4.89258H129.844C129.844 4.0332 129.57 3.35938 129.023 2.87109C128.477 2.3763 127.705 2.12891 126.709 2.12891C125.785 2.12891 125.062 2.33398 124.541 2.74414C124.027 3.14779 123.77 3.71094 123.77 4.43359C123.77 5.01302 124.014 5.50456 124.502 5.9082C124.997 6.30534 125.833 6.66992 127.012 7.00195C128.197 7.33398 129.121 7.70182 129.785 8.10547C130.456 8.5026 130.951 8.9681 131.27 9.50195C131.595 10.0358 131.758 10.6641 131.758 11.3867C131.758 12.5391 131.309 13.4635 130.41 14.1602C129.512 14.8503 128.311 15.1953 126.807 15.1953C125.83 15.1953 124.919 15.0098 124.072 14.6387C123.226 14.2611 122.572 13.7467 122.109 13.0957C121.654 12.4447 121.426 11.7057 121.426 10.8789H123.311C123.311 11.7383 123.626 12.4186 124.258 12.9199C124.896 13.4147 125.745 13.6621 126.807 13.6621C127.796 13.6621 128.555 13.4603 129.082 13.0566C129.609 12.653 129.873 12.1029 129.873 11.4062C129.873 10.7096 129.629 10.1725 129.141 9.79492C128.652 9.41081 127.767 9.0332 126.484 8.66211ZM136.338 1.875V4.43359H138.311V5.83008H136.338V12.3828C136.338 12.806 136.426 13.125 136.602 13.3398C136.777 13.5482 137.077 13.6523 137.5 13.6523C137.708 13.6523 137.995 13.6133 138.359 13.5352V15C137.884 15.1302 137.422 15.1953 136.973 15.1953C136.165 15.1953 135.557 14.9512 135.146 14.4629C134.736 13.9746 134.531 13.2812 134.531 12.3828V5.83008H132.607V4.43359H134.531V1.875H136.338ZM146.953 15C146.849 14.7917 146.764 14.4206 146.699 13.8867C145.859 14.7591 144.857 15.1953 143.691 15.1953C142.65 15.1953 141.794 14.9023 141.123 14.3164C140.459 13.724 140.127 12.9753 140.127 12.0703C140.127 10.9701 140.544 10.1172 141.377 9.51172C142.217 8.89974 143.395 8.59375 144.912 8.59375H146.67V7.76367C146.67 7.13216 146.481 6.63086 146.104 6.25977C145.726 5.88216 145.169 5.69336 144.434 5.69336C143.789 5.69336 143.249 5.85612 142.812 6.18164C142.376 6.50716 142.158 6.90104 142.158 7.36328H140.342C140.342 6.83594 140.527 6.32812 140.898 5.83984C141.276 5.34505 141.784 4.95443 142.422 4.66797C143.066 4.38151 143.773 4.23828 144.541 4.23828C145.758 4.23828 146.712 4.54427 147.402 5.15625C148.092 5.76172 148.451 6.59831 148.477 7.66602V12.5293C148.477 13.4993 148.6 14.2708 148.848 14.8438V15H146.953ZM143.955 13.623C144.521 13.623 145.059 13.4766 145.566 13.1836C146.074 12.8906 146.442 12.5098 146.67 12.041V9.87305H145.254C143.04 9.87305 141.934 10.5208 141.934 11.8164C141.934 12.3828 142.122 12.8255 142.5 13.1445C142.878 13.4635 143.363 13.623 143.955 13.623ZM156.416 6.05469C156.143 6.00911 155.846 5.98633 155.527 5.98633C154.342 5.98633 153.538 6.49089 153.115 7.5V15H151.309V4.43359H153.066L153.096 5.6543C153.688 4.71029 154.528 4.23828 155.615 4.23828C155.967 4.23828 156.234 4.28385 156.416 4.375V6.05469ZM161.025 1.875V4.43359H162.998V5.83008H161.025V12.3828C161.025 12.806 161.113 13.125 161.289 13.3398C161.465 13.5482 161.764 13.6523 162.188 13.6523C162.396 13.6523 162.682 13.6133 163.047 13.5352V15C162.572 15.1302 162.109 15.1953 161.66 15.1953C160.853 15.1953 160.244 14.9512 159.834 14.4629C159.424 13.9746 159.219 13.2812 159.219 12.3828V5.83008H157.295V4.43359H159.219V1.875H161.025ZM169.502 15.1953C168.07 15.1953 166.904 14.7266 166.006 13.7891C165.107 12.8451 164.658 11.5853 164.658 10.0098V9.67773C164.658 8.62956 164.857 7.69531 165.254 6.875C165.658 6.04818 166.217 5.40365 166.934 4.94141C167.656 4.47266 168.438 4.23828 169.277 4.23828C170.651 4.23828 171.719 4.69076 172.48 5.5957C173.242 6.50065 173.623 7.79622 173.623 9.48242V10.2344H166.465C166.491 11.276 166.794 12.1191 167.373 12.7637C167.959 13.4017 168.701 13.7207 169.6 13.7207C170.238 13.7207 170.778 13.5905 171.221 13.3301C171.663 13.0697 172.051 12.7246 172.383 12.2949L173.486 13.1543C172.601 14.515 171.273 15.1953 169.502 15.1953ZM169.277 5.72266C168.548 5.72266 167.936 5.98958 167.441 6.52344C166.947 7.05078 166.641 7.79297 166.523 8.75H171.816V8.61328C171.764 7.69531 171.517 6.98568 171.074 6.48438C170.632 5.97656 170.033 5.72266 169.277 5.72266ZM180.83 6.05469C180.557 6.00911 180.26 5.98633 179.941 5.98633C178.757 5.98633 177.952 6.49089 177.529 7.5V15H175.723V4.43359H177.48L177.51 5.6543C178.102 4.71029 178.942 4.23828 180.029 4.23828C180.381 4.23828 180.648 4.28385 180.83 4.375V6.05469ZM187.021 9.62891C187.021 8.00781 187.406 6.70573 188.174 5.72266C188.942 4.73307 189.948 4.23828 191.191 4.23828C192.428 4.23828 193.408 4.66146 194.131 5.50781V0H195.938V15H194.277L194.189 13.8672C193.467 14.7526 192.461 15.1953 191.172 15.1953C189.948 15.1953 188.949 14.694 188.174 13.6914C187.406 12.6888 187.021 11.3802 187.021 9.76562V9.62891ZM188.828 9.83398C188.828 11.0319 189.076 11.9694 189.57 12.6465C190.065 13.3236 190.749 13.6621 191.621 13.6621C192.767 13.6621 193.604 13.1478 194.131 12.1191V7.26562C193.59 6.26953 192.76 5.77148 191.641 5.77148C190.755 5.77148 190.065 6.11328 189.57 6.79688C189.076 7.48047 188.828 8.49284 188.828 9.83398ZM203.135 15.1953C201.702 15.1953 200.537 14.7266 199.639 13.7891C198.74 12.8451 198.291 11.5853 198.291 10.0098V9.67773C198.291 8.62956 198.49 7.69531 198.887 6.875C199.29 6.04818 199.85 5.40365 200.566 4.94141C201.289 4.47266 202.07 4.23828 202.91 4.23828C204.284 4.23828 205.352 4.69076 206.113 5.5957C206.875 6.50065 207.256 7.79622 207.256 9.48242V10.2344H200.098C200.124 11.276 200.426 12.1191 201.006 12.7637C201.592 13.4017 202.334 13.7207 203.232 13.7207C203.87 13.7207 204.411 13.5905 204.854 13.3301C205.296 13.0697 205.684 12.7246 206.016 12.2949L207.119 13.1543C206.234 14.515 204.906 15.1953 203.135 15.1953ZM202.91 5.72266C202.181 5.72266 201.569 5.98958 201.074 6.52344C200.579 7.05078 200.273 7.79297 200.156 8.75H205.449V8.61328C205.397 7.69531 205.15 6.98568 204.707 6.48438C204.264 5.97656 203.665 5.72266 202.91 5.72266ZM214.6 15V0.78125H219.248C220.791 0.78125 221.95 1.10026 222.725 1.73828C223.506 2.3763 223.896 3.32031 223.896 4.57031C223.896 5.23438 223.708 5.82357 223.33 6.33789C222.952 6.8457 222.438 7.23958 221.787 7.51953C222.555 7.73438 223.161 8.14453 223.604 8.75C224.053 9.34896 224.277 10.0651 224.277 10.8984C224.277 12.1745 223.864 13.1771 223.037 13.9062C222.21 14.6354 221.042 15 219.531 15H214.6ZM216.475 8.34961V13.4668H219.57C220.443 13.4668 221.13 13.2422 221.631 12.793C222.139 12.3372 222.393 11.7122 222.393 10.918C222.393 9.20573 221.462 8.34961 219.6 8.34961H216.475ZM216.475 6.8457H219.307C220.127 6.8457 220.781 6.64062 221.27 6.23047C221.764 5.82031 222.012 5.26367 222.012 4.56055C222.012 3.7793 221.784 3.21289 221.328 2.86133C220.872 2.50326 220.179 2.32422 219.248 2.32422H216.475V6.8457ZM226.299 9.61914C226.299 8.58398 226.501 7.65299 226.904 6.82617C227.314 5.99935 227.881 5.36133 228.604 4.91211C229.333 4.46289 230.163 4.23828 231.094 4.23828C232.533 4.23828 233.695 4.73633 234.58 5.73242C235.472 6.72852 235.918 8.05339 235.918 9.70703V9.83398C235.918 10.8626 235.719 11.7871 235.322 12.6074C234.932 13.4212 234.368 14.056 233.633 14.5117C232.904 14.9674 232.064 15.1953 231.113 15.1953C229.681 15.1953 228.519 14.6973 227.627 13.7012C226.742 12.7051 226.299 11.3867 226.299 9.74609V9.61914ZM228.115 9.83398C228.115 11.0059 228.385 11.9466 228.926 12.6562C229.473 13.3659 230.202 13.7207 231.113 13.7207C232.031 13.7207 232.76 13.3626 233.301 12.6465C233.841 11.9238 234.111 10.9147 234.111 9.61914C234.111 8.46029 233.835 7.52279 233.281 6.80664C232.734 6.08398 232.005 5.72266 231.094 5.72266C230.202 5.72266 229.482 6.07747 228.936 6.78711C228.389 7.49674 228.115 8.51237 228.115 9.83398ZM237.705 9.61914C237.705 8.58398 237.907 7.65299 238.311 6.82617C238.721 5.99935 239.287 5.36133 240.01 4.91211C240.739 4.46289 241.569 4.23828 242.5 4.23828C243.939 4.23828 245.101 4.73633 245.986 5.73242C246.878 6.72852 247.324 8.05339 247.324 9.70703V9.83398C247.324 10.8626 247.126 11.7871 246.729 12.6074C246.338 13.4212 245.775 14.056 245.039 14.5117C244.31 14.9674 243.47 15.1953 242.52 15.1953C241.087 15.1953 239.925 14.6973 239.033 13.7012C238.148 12.7051 237.705 11.3867 237.705 9.74609V9.61914ZM239.521 9.83398C239.521 11.0059 239.792 11.9466 240.332 12.6562C240.879 13.3659 241.608 13.7207 242.52 13.7207C243.438 13.7207 244.167 13.3626 244.707 12.6465C245.247 11.9238 245.518 10.9147 245.518 9.61914C245.518 8.46029 245.241 7.52279 244.688 6.80664C244.141 6.08398 243.411 5.72266 242.5 5.72266C241.608 5.72266 240.889 6.07747 240.342 6.78711C239.795 7.49674 239.521 8.51237 239.521 9.83398ZM255.742 12.1973C255.742 11.709 255.557 11.3314 255.186 11.0645C254.821 10.791 254.18 10.5566 253.262 10.3613C252.35 10.166 251.624 9.93164 251.084 9.6582C250.55 9.38477 250.153 9.05924 249.893 8.68164C249.639 8.30404 249.512 7.85482 249.512 7.33398C249.512 6.4681 249.876 5.73568 250.605 5.13672C251.341 4.53776 252.279 4.23828 253.418 4.23828C254.616 4.23828 255.586 4.54753 256.328 5.16602C257.077 5.78451 257.451 6.57552 257.451 7.53906H255.635C255.635 7.04427 255.423 6.61784 255 6.25977C254.583 5.90169 254.056 5.72266 253.418 5.72266C252.76 5.72266 252.246 5.86589 251.875 6.15234C251.504 6.4388 251.318 6.81315 251.318 7.27539C251.318 7.71159 251.491 8.04036 251.836 8.26172C252.181 8.48307 252.803 8.69466 253.701 8.89648C254.606 9.09831 255.339 9.33919 255.898 9.61914C256.458 9.89909 256.872 10.2376 257.139 10.6348C257.412 11.0254 257.549 11.5039 257.549 12.0703C257.549 13.0143 257.171 13.7728 256.416 14.3457C255.661 14.9121 254.681 15.1953 253.477 15.1953C252.63 15.1953 251.882 15.0456 251.23 14.7461C250.579 14.4466 250.068 14.0299 249.697 13.4961C249.333 12.9557 249.15 12.373 249.15 11.748H250.957C250.99 12.3535 251.23 12.8353 251.68 13.1934C252.135 13.5449 252.734 13.7207 253.477 13.7207C254.16 13.7207 254.707 13.584 255.117 13.3105C255.534 13.0306 255.742 12.6595 255.742 12.1973ZM262.354 1.875V4.43359H264.326V5.83008H262.354V12.3828C262.354 12.806 262.441 13.125 262.617 13.3398C262.793 13.5482 263.092 13.6523 263.516 13.6523C263.724 13.6523 264.01 13.6133 264.375 13.5352V15C263.9 15.1302 263.438 15.1953 262.988 15.1953C262.181 15.1953 261.572 14.9512 261.162 14.4629C260.752 13.9746 260.547 13.2812 260.547 12.3828V5.83008H258.623V4.43359H260.547V1.875H262.354ZM270.83 15.1953C269.398 15.1953 268.232 14.7266 267.334 13.7891C266.436 12.8451 265.986 11.5853 265.986 10.0098V9.67773C265.986 8.62956 266.185 7.69531 266.582 6.875C266.986 6.04818 267.546 5.40365 268.262 4.94141C268.984 4.47266 269.766 4.23828 270.605 4.23828C271.979 4.23828 273.047 4.69076 273.809 5.5957C274.57 6.50065 274.951 7.79622 274.951 9.48242V10.2344H267.793C267.819 11.276 268.122 12.1191 268.701 12.7637C269.287 13.4017 270.029 13.7207 270.928 13.7207C271.566 13.7207 272.106 13.5905 272.549 13.3301C272.992 13.0697 273.379 12.7246 273.711 12.2949L274.814 13.1543C273.929 14.515 272.601 15.1953 270.83 15.1953ZM270.605 5.72266C269.876 5.72266 269.264 5.98958 268.77 6.52344C268.275 7.05078 267.969 7.79297 267.852 8.75H273.145V8.61328C273.092 7.69531 272.845 6.98568 272.402 6.48438C271.96 5.97656 271.361 5.72266 270.605 5.72266ZM282.158 6.05469C281.885 6.00911 281.589 5.98633 281.27 5.98633C280.085 5.98633 279.281 6.49089 278.857 7.5V15H277.051V4.43359H278.809L278.838 5.6543C279.43 4.71029 280.27 4.23828 281.357 4.23828C281.709 4.23828 281.976 4.28385 282.158 4.375V6.05469ZM297.715 9.83398C297.715 11.4421 297.347 12.7376 296.611 13.7207C295.876 14.7038 294.88 15.1953 293.623 15.1953C292.34 15.1953 291.331 14.7884 290.596 13.9746V19.0625H288.789V4.43359H290.439L290.527 5.60547C291.263 4.69401 292.285 4.23828 293.594 4.23828C294.863 4.23828 295.866 4.7168 296.602 5.67383C297.344 6.63086 297.715 7.96224 297.715 9.66797V9.83398ZM295.908 9.62891C295.908 8.4375 295.654 7.49674 295.146 6.80664C294.639 6.11654 293.942 5.77148 293.057 5.77148C291.963 5.77148 291.143 6.25651 290.596 7.22656V12.2754C291.136 13.2389 291.963 13.7207 293.076 13.7207C293.942 13.7207 294.629 13.3789 295.137 12.6953C295.651 12.0052 295.908 10.9831 295.908 9.62891ZM304.404 15.1953C302.972 15.1953 301.807 14.7266 300.908 13.7891C300.01 12.8451 299.561 11.5853 299.561 10.0098V9.67773C299.561 8.62956 299.759 7.69531 300.156 6.875C300.56 6.04818 301.12 5.40365 301.836 4.94141C302.559 4.47266 303.34 4.23828 304.18 4.23828C305.553 4.23828 306.621 4.69076 307.383 5.5957C308.145 6.50065 308.525 7.79622 308.525 9.48242V10.2344H301.367C301.393 11.276 301.696 12.1191 302.275 12.7637C302.861 13.4017 303.604 13.7207 304.502 13.7207C305.14 13.7207 305.68 13.5905 306.123 13.3301C306.566 13.0697 306.953 12.7246 307.285 12.2949L308.389 13.1543C307.503 14.515 306.175 15.1953 304.404 15.1953ZM304.18 5.72266C303.451 5.72266 302.839 5.98958 302.344 6.52344C301.849 7.05078 301.543 7.79297 301.426 8.75H306.719V8.61328C306.667 7.69531 306.419 6.98568 305.977 6.48438C305.534 5.97656 304.935 5.72266 304.18 5.72266ZM312.588 15H310.781V0H312.588V15ZM322.012 15C321.908 14.7917 321.823 14.4206 321.758 13.8867C320.918 14.7591 319.915 15.1953 318.75 15.1953C317.708 15.1953 316.852 14.9023 316.182 14.3164C315.518 13.724 315.186 12.9753 315.186 12.0703C315.186 10.9701 315.602 10.1172 316.436 9.51172C317.275 8.89974 318.454 8.59375 319.971 8.59375H321.729V7.76367C321.729 7.13216 321.54 6.63086 321.162 6.25977C320.785 5.88216 320.228 5.69336 319.492 5.69336C318.848 5.69336 318.307 5.85612 317.871 6.18164C317.435 6.50716 317.217 6.90104 317.217 7.36328H315.4C315.4 6.83594 315.586 6.32812 315.957 5.83984C316.335 5.34505 316.842 4.95443 317.48 4.66797C318.125 4.38151 318.831 4.23828 319.6 4.23828C320.817 4.23828 321.771 4.54427 322.461 5.15625C323.151 5.76172 323.509 6.59831 323.535 7.66602V12.5293C323.535 13.4993 323.659 14.2708 323.906 14.8438V15H322.012ZM319.014 13.623C319.58 13.623 320.117 13.4766 320.625 13.1836C321.133 12.8906 321.501 12.5098 321.729 12.041V9.87305H320.312C318.099 9.87305 316.992 10.5208 316.992 11.8164C316.992 12.3828 317.181 12.8255 317.559 13.1445C317.936 13.4635 318.421 13.623 319.014 13.623ZM337.852 15C337.747 14.7917 337.663 14.4206 337.598 13.8867C336.758 14.7591 335.755 15.1953 334.59 15.1953C333.548 15.1953 332.692 14.9023 332.021 14.3164C331.357 13.724 331.025 12.9753 331.025 12.0703C331.025 10.9701 331.442 10.1172 332.275 9.51172C333.115 8.89974 334.294 8.59375 335.811 8.59375H337.568V7.76367C337.568 7.13216 337.38 6.63086 337.002 6.25977C336.624 5.88216 336.068 5.69336 335.332 5.69336C334.688 5.69336 334.147 5.85612 333.711 6.18164C333.275 6.50716 333.057 6.90104 333.057 7.36328H331.24C331.24 6.83594 331.426 6.32812 331.797 5.83984C332.174 5.34505 332.682 4.95443 333.32 4.66797C333.965 4.38151 334.671 4.23828 335.439 4.23828C336.657 4.23828 337.611 4.54427 338.301 5.15625C338.991 5.76172 339.349 6.59831 339.375 7.66602V12.5293C339.375 13.4993 339.499 14.2708 339.746 14.8438V15H337.852ZM334.854 13.623C335.42 13.623 335.957 13.4766 336.465 13.1836C336.973 12.8906 337.34 12.5098 337.568 12.041V9.87305H336.152C333.939 9.87305 332.832 10.5208 332.832 11.8164C332.832 12.3828 333.021 12.8255 333.398 13.1445C333.776 13.4635 334.261 13.623 334.854 13.623ZM351.152 9.83398C351.152 11.4486 350.781 12.7474 350.039 13.7305C349.297 14.707 348.301 15.1953 347.051 15.1953C345.716 15.1953 344.684 14.7233 343.955 13.7793L343.867 15H342.207V0H344.014V5.5957C344.743 4.69076 345.749 4.23828 347.031 4.23828C348.314 4.23828 349.32 4.72331 350.049 5.69336C350.785 6.66341 351.152 7.99154 351.152 9.67773V9.83398ZM349.346 9.62891C349.346 8.39844 349.108 7.44792 348.633 6.77734C348.158 6.10677 347.474 5.77148 346.582 5.77148C345.391 5.77148 344.535 6.32487 344.014 7.43164V12.002C344.567 13.1087 345.43 13.6621 346.602 13.6621C347.467 13.6621 348.141 13.3268 348.623 12.6562C349.105 11.9857 349.346 10.9766 349.346 9.62891ZM359.961 15C359.857 14.7917 359.772 14.4206 359.707 13.8867C358.867 14.7591 357.865 15.1953 356.699 15.1953C355.658 15.1953 354.801 14.9023 354.131 14.3164C353.467 13.724 353.135 12.9753 353.135 12.0703C353.135 10.9701 353.551 10.1172 354.385 9.51172C355.225 8.89974 356.403 8.59375 357.92 8.59375H359.678V7.76367C359.678 7.13216 359.489 6.63086 359.111 6.25977C358.734 5.88216 358.177 5.69336 357.441 5.69336C356.797 5.69336 356.257 5.85612 355.82 6.18164C355.384 6.50716 355.166 6.90104 355.166 7.36328H353.35C353.35 6.83594 353.535 6.32812 353.906 5.83984C354.284 5.34505 354.792 4.95443 355.43 4.66797C356.074 4.38151 356.781 4.23828 357.549 4.23828C358.766 4.23828 359.72 4.54427 360.41 5.15625C361.1 5.76172 361.458 6.59831 361.484 7.66602V12.5293C361.484 13.4993 361.608 14.2708 361.855 14.8438V15H359.961ZM356.963 13.623C357.529 13.623 358.066 13.4766 358.574 13.1836C359.082 12.8906 359.45 12.5098 359.678 12.041V9.87305H358.262C356.048 9.87305 354.941 10.5208 354.941 11.8164C354.941 12.3828 355.13 12.8255 355.508 13.1445C355.885 13.4635 356.37 13.623 356.963 13.623ZM0.927734 39.6289C0.927734 38.0078 1.31185 36.7057 2.08008 35.7227C2.84831 34.7331 3.85417 34.2383 5.09766 34.2383C6.33464 34.2383 7.31445 34.6615 8.03711 35.5078V30H9.84375V45H8.18359L8.0957 43.8672C7.37305 44.7526 6.36719 45.1953 5.07812 45.1953C3.85417 45.1953 2.85482 44.694 2.08008 43.6914C1.31185 42.6888 0.927734 41.3802 0.927734 39.7656V39.6289ZM2.73438 39.834C2.73438 41.0319 2.98177 41.9694 3.47656 42.6465C3.97135 43.3236 4.65495 43.6621 5.52734 43.6621C6.67318 43.6621 7.50977 43.1478 8.03711 42.1191V37.2656C7.49674 36.2695 6.66667 35.7715 5.54688 35.7715C4.66146 35.7715 3.97135 36.1133 3.47656 36.7969C2.98177 37.4805 2.73438 38.4928 2.73438 39.834ZM17.041 45.1953C15.6087 45.1953 14.4434 44.7266 13.5449 43.7891C12.6465 42.8451 12.1973 41.5853 12.1973 40.0098V39.6777C12.1973 38.6296 12.3958 37.6953 12.793 36.875C13.1966 36.0482 13.7565 35.4036 14.4727 34.9414C15.1953 34.4727 15.9766 34.2383 16.8164 34.2383C18.1901 34.2383 19.2578 34.6908 20.0195 35.5957C20.7812 36.5007 21.1621 37.7962 21.1621 39.4824V40.2344H14.0039C14.0299 41.276 14.3327 42.1191 14.9121 42.7637C15.498 43.4017 16.2402 43.7207 17.1387 43.7207C17.7767 43.7207 18.3171 43.5905 18.7598 43.3301C19.2025 43.0697 19.5898 42.7246 19.9219 42.2949L21.0254 43.1543C20.14 44.515 18.8118 45.1953 17.041 45.1953ZM16.8164 35.7227C16.0872 35.7227 15.4753 35.9896 14.9805 36.5234C14.4857 37.0508 14.1797 37.793 14.0625 38.75H19.3555V38.6133C19.3034 37.6953 19.056 36.9857 18.6133 36.4844C18.1706 35.9766 17.5716 35.7227 16.8164 35.7227ZM37.1484 39.834C37.1484 41.4421 36.7806 42.7376 36.0449 43.7207C35.3092 44.7038 34.3132 45.1953 33.0566 45.1953C31.7741 45.1953 30.765 44.7884 30.0293 43.9746V49.0625H28.2227V34.4336H29.873L29.9609 35.6055C30.6966 34.694 31.7188 34.2383 33.0273 34.2383C34.2969 34.2383 35.2995 34.7168 36.0352 35.6738C36.7773 36.6309 37.1484 37.9622 37.1484 39.668V39.834ZM35.3418 39.6289C35.3418 38.4375 35.0879 37.4967 34.5801 36.8066C34.0723 36.1165 33.3757 35.7715 32.4902 35.7715C31.3965 35.7715 30.5762 36.2565 30.0293 37.2266V42.2754C30.5697 43.2389 31.3965 43.7207 32.5098 43.7207C33.3757 43.7207 34.0625 43.3789 34.5703 42.6953C35.0846 42.0052 35.3418 40.9831 35.3418 39.6289ZM45.9766 45C45.8724 44.7917 45.7878 44.4206 45.7227 43.8867C44.8828 44.7591 43.8802 45.1953 42.7148 45.1953C41.6732 45.1953 40.8171 44.9023 40.1465 44.3164C39.4824 43.724 39.1504 42.9753 39.1504 42.0703C39.1504 40.9701 39.5671 40.1172 40.4004 39.5117C41.2402 38.8997 42.4186 38.5938 43.9355 38.5938H45.6934V37.7637C45.6934 37.1322 45.5046 36.6309 45.127 36.2598C44.7493 35.8822 44.1927 35.6934 43.457 35.6934C42.8125 35.6934 42.2721 35.8561 41.8359 36.1816C41.3997 36.5072 41.1816 36.901 41.1816 37.3633H39.3652C39.3652 36.8359 39.5508 36.3281 39.9219 35.8398C40.2995 35.3451 40.8073 34.9544 41.4453 34.668C42.0898 34.3815 42.7962 34.2383 43.5645 34.2383C44.7819 34.2383 45.7357 34.5443 46.4258 35.1562C47.1159 35.7617 47.474 36.5983 47.5 37.666V42.5293C47.5 43.4993 47.6237 44.2708 47.8711 44.8438V45H45.9766ZM42.9785 43.623C43.5449 43.623 44.082 43.4766 44.5898 43.1836C45.0977 42.8906 45.4655 42.5098 45.6934 42.041V39.873H44.2773C42.0638 39.873 40.957 40.5208 40.957 41.8164C40.957 42.3828 41.1458 42.8255 41.5234 43.1445C41.901 43.4635 42.3861 43.623 42.9785 43.623ZM44.6484 30H46.8359L44.2188 32.8711H42.7637L44.6484 30ZM49.9023 39.6289C49.9023 37.9818 50.2832 36.6732 51.0449 35.7031C51.8066 34.7266 52.8158 34.2383 54.0723 34.2383C55.3613 34.2383 56.3672 34.694 57.0898 35.6055L57.1777 34.4336H58.8281V44.7461C58.8281 46.1133 58.4212 47.1908 57.6074 47.9785C56.8001 48.7663 55.7129 49.1602 54.3457 49.1602C53.584 49.1602 52.8385 48.9974 52.1094 48.6719C51.3802 48.3464 50.8236 47.9004 50.4395 47.334L51.377 46.25C52.1517 47.207 53.099 47.6855 54.2188 47.6855C55.0977 47.6855 55.7812 47.4382 56.2695 46.9434C56.7643 46.4486 57.0117 45.752 57.0117 44.8535V43.9453C56.2891 44.7786 55.3027 45.1953 54.0527 45.1953C52.8158 45.1953 51.8132 44.6973 51.0449 43.7012C50.2832 42.7051 49.9023 41.3477 49.9023 39.6289ZM51.7188 39.834C51.7188 41.0254 51.9629 41.9629 52.4512 42.6465C52.9395 43.3236 53.623 43.6621 54.502 43.6621C55.6413 43.6621 56.4779 43.1445 57.0117 42.1094V37.2852C56.4583 36.276 55.6283 35.7715 54.5215 35.7715C53.6426 35.7715 52.9557 36.1133 52.4609 36.7969C51.9661 37.4805 51.7188 38.4928 51.7188 39.834ZM63.5254 45H61.7188V34.4336H63.5254V45ZM61.5723 31.6309C61.5723 31.3379 61.6602 31.0905 61.8359 30.8887C62.0182 30.6868 62.2852 30.5859 62.6367 30.5859C62.9883 30.5859 63.2552 30.6868 63.4375 30.8887C63.6198 31.0905 63.7109 31.3379 63.7109 31.6309C63.7109 31.9238 63.6198 32.168 63.4375 32.3633C63.2552 32.5586 62.9883 32.6562 62.6367 32.6562C62.2852 32.6562 62.0182 32.5586 61.8359 32.3633C61.6602 32.168 61.5723 31.9238 61.5723 31.6309ZM68.1348 34.4336L68.1934 35.7617C69.0007 34.7461 70.0553 34.2383 71.3574 34.2383C73.5905 34.2383 74.7168 35.498 74.7363 38.0176V45H72.9297V38.0078C72.9232 37.2461 72.7474 36.6829 72.4023 36.3184C72.0638 35.9538 71.5332 35.7715 70.8105 35.7715C70.2246 35.7715 69.7103 35.9277 69.2676 36.2402C68.8249 36.5527 68.4798 36.9629 68.2324 37.4707V45H66.4258V34.4336H68.1348ZM83.9844 45C83.8802 44.7917 83.7956 44.4206 83.7305 43.8867C82.8906 44.7591 81.888 45.1953 80.7227 45.1953C79.681 45.1953 78.8249 44.9023 78.1543 44.3164C77.4902 43.724 77.1582 42.9753 77.1582 42.0703C77.1582 40.9701 77.5749 40.1172 78.4082 39.5117C79.248 38.8997 80.4264 38.5938 81.9434 38.5938H83.7012V37.7637C83.7012 37.1322 83.5124 36.6309 83.1348 36.2598C82.7572 35.8822 82.2005 35.6934 81.4648 35.6934C80.8203 35.6934 80.2799 35.8561 79.8438 36.1816C79.4076 36.5072 79.1895 36.901 79.1895 37.3633H77.373C77.373 36.8359 77.5586 36.3281 77.9297 35.8398C78.3073 35.3451 78.8151 34.9544 79.4531 34.668C80.0977 34.3815 80.804 34.2383 81.5723 34.2383C82.7897 34.2383 83.7435 34.5443 84.4336 35.1562C85.1237 35.7617 85.4818 36.5983 85.5078 37.666V42.5293C85.5078 43.4993 85.6315 44.2708 85.8789 44.8438V45H83.9844ZM80.9863 43.623C81.5527 43.623 82.0898 43.4766 82.5977 43.1836C83.1055 42.8906 83.4733 42.5098 83.7012 42.041V39.873H82.2852C80.0716 39.873 78.9648 40.5208 78.9648 41.8164C78.9648 42.3828 79.1536 42.8255 79.5312 43.1445C79.9089 43.4635 80.3939 43.623 80.9863 43.623ZM95.0098 34.4336L95.0684 35.7617C95.8757 34.7461 96.9303 34.2383 98.2324 34.2383C100.465 34.2383 101.592 35.498 101.611 38.0176V45H99.8047V38.0078C99.7982 37.2461 99.6224 36.6829 99.2773 36.3184C98.9388 35.9538 98.4082 35.7715 97.6855 35.7715C97.0996 35.7715 96.5853 35.9277 96.1426 36.2402C95.6999 36.5527 95.3548 36.9629 95.1074 37.4707V45H93.3008V34.4336H95.0098ZM103.857 39.6191C103.857 38.584 104.059 37.653 104.463 36.8262C104.873 35.9993 105.439 35.3613 106.162 34.9121C106.891 34.4629 107.721 34.2383 108.652 34.2383C110.091 34.2383 111.253 34.7363 112.139 35.7324C113.031 36.7285 113.477 38.0534 113.477 39.707V39.834C113.477 40.8626 113.278 41.7871 112.881 42.6074C112.49 43.4212 111.927 44.056 111.191 44.5117C110.462 44.9674 109.622 45.1953 108.672 45.1953C107.24 45.1953 106.077 44.6973 105.186 43.7012C104.3 42.7051 103.857 41.3867 103.857 39.7461V39.6191ZM105.674 39.834C105.674 41.0059 105.944 41.9466 106.484 42.6562C107.031 43.3659 107.76 43.7207 108.672 43.7207C109.59 43.7207 110.319 43.3626 110.859 42.6465C111.4 41.9238 111.67 40.9147 111.67 39.6191C111.67 38.4603 111.393 37.5228 110.84 36.8066C110.293 36.084 109.564 35.7227 108.652 35.7227C107.76 35.7227 107.041 36.0775 106.494 36.7871C105.947 37.4967 105.674 38.5124 105.674 39.834ZM122.666 45H120.859V30H122.666V45ZM132.09 45C131.986 44.7917 131.901 44.4206 131.836 43.8867C130.996 44.7591 129.993 45.1953 128.828 45.1953C127.786 45.1953 126.93 44.9023 126.26 44.3164C125.596 43.724 125.264 42.9753 125.264 42.0703C125.264 40.9701 125.68 40.1172 126.514 39.5117C127.354 38.8997 128.532 38.5938 130.049 38.5938H131.807V37.7637C131.807 37.1322 131.618 36.6309 131.24 36.2598C130.863 35.8822 130.306 35.6934 129.57 35.6934C128.926 35.6934 128.385 35.8561 127.949 36.1816C127.513 36.5072 127.295 36.901 127.295 37.3633H125.479C125.479 36.8359 125.664 36.3281 126.035 35.8398C126.413 35.3451 126.921 34.9544 127.559 34.668C128.203 34.3815 128.91 34.2383 129.678 34.2383C130.895 34.2383 131.849 34.5443 132.539 35.1562C133.229 35.7617 133.587 36.5983 133.613 37.666V42.5293C133.613 43.4993 133.737 44.2708 133.984 44.8438V45H132.09ZM129.092 43.623C129.658 43.623 130.195 43.4766 130.703 43.1836C131.211 42.8906 131.579 42.5098 131.807 42.041V39.873H130.391C128.177 39.873 127.07 40.5208 127.07 41.8164C127.07 42.3828 127.259 42.8255 127.637 43.1445C128.014 43.4635 128.499 43.623 129.092 43.623ZM136.006 39.6289C136.006 38.0078 136.39 36.7057 137.158 35.7227C137.926 34.7331 138.932 34.2383 140.176 34.2383C141.413 34.2383 142.393 34.6615 143.115 35.5078V30H144.922V45H143.262L143.174 43.8672C142.451 44.7526 141.445 45.1953 140.156 45.1953C138.932 45.1953 137.933 44.694 137.158 43.6914C136.39 42.6888 136.006 41.3802 136.006 39.7656V39.6289ZM137.812 39.834C137.812 41.0319 138.06 41.9694 138.555 42.6465C139.049 43.3236 139.733 43.6621 140.605 43.6621C141.751 43.6621 142.588 43.1478 143.115 42.1191V37.2656C142.575 36.2695 141.745 35.7715 140.625 35.7715C139.74 35.7715 139.049 36.1133 138.555 36.7969C138.06 37.4805 137.812 38.4928 137.812 39.834ZM147.256 39.6191C147.256 38.584 147.458 37.653 147.861 36.8262C148.271 35.9993 148.838 35.3613 149.561 34.9121C150.29 34.4629 151.12 34.2383 152.051 34.2383C153.49 34.2383 154.652 34.7363 155.537 35.7324C156.429 36.7285 156.875 38.0534 156.875 39.707V39.834C156.875 40.8626 156.676 41.7871 156.279 42.6074C155.889 43.4212 155.326 44.056 154.59 44.5117C153.861 44.9674 153.021 45.1953 152.07 45.1953C150.638 45.1953 149.476 44.6973 148.584 43.7012C147.699 42.7051 147.256 41.3867 147.256 39.7461V39.6191ZM149.072 39.834C149.072 41.0059 149.342 41.9466 149.883 42.6562C150.43 43.3659 151.159 43.7207 152.07 43.7207C152.988 43.7207 153.717 43.3626 154.258 42.6465C154.798 41.9238 155.068 40.9147 155.068 39.6191C155.068 38.4603 154.792 37.5228 154.238 36.8066C153.691 36.084 152.962 35.7227 152.051 35.7227C151.159 35.7227 150.439 36.0775 149.893 36.7871C149.346 37.4967 149.072 38.5124 149.072 39.834ZM170.254 42.1973C170.254 41.709 170.068 41.3314 169.697 41.0645C169.333 40.791 168.691 40.5566 167.773 40.3613C166.862 40.166 166.136 39.9316 165.596 39.6582C165.062 39.3848 164.665 39.0592 164.404 38.6816C164.15 38.304 164.023 37.8548 164.023 37.334C164.023 36.4681 164.388 35.7357 165.117 35.1367C165.853 34.5378 166.79 34.2383 167.93 34.2383C169.128 34.2383 170.098 34.5475 170.84 35.166C171.589 35.7845 171.963 36.5755 171.963 37.5391H170.146C170.146 37.0443 169.935 36.6178 169.512 36.2598C169.095 35.9017 168.568 35.7227 167.93 35.7227C167.272 35.7227 166.758 35.8659 166.387 36.1523C166.016 36.4388 165.83 36.8132 165.83 37.2754C165.83 37.7116 166.003 38.0404 166.348 38.2617C166.693 38.4831 167.314 38.6947 168.213 38.8965C169.118 39.0983 169.85 39.3392 170.41 39.6191C170.97 39.8991 171.383 40.2376 171.65 40.6348C171.924 41.0254 172.061 41.5039 172.061 42.0703C172.061 43.0143 171.683 43.7728 170.928 44.3457C170.173 44.9121 169.193 45.1953 167.988 45.1953C167.142 45.1953 166.393 45.0456 165.742 44.7461C165.091 44.4466 164.58 44.0299 164.209 43.4961C163.844 42.9557 163.662 42.373 163.662 41.748H165.469C165.501 42.3535 165.742 42.8353 166.191 43.1934C166.647 43.5449 167.246 43.7207 167.988 43.7207C168.672 43.7207 169.219 43.584 169.629 43.3105C170.046 43.0306 170.254 42.6595 170.254 42.1973ZM180.938 43.9551C180.234 44.7819 179.202 45.1953 177.842 45.1953C176.715 45.1953 175.856 44.8698 175.264 44.2188C174.678 43.5612 174.382 42.5911 174.375 41.3086V34.4336H176.182V41.2598C176.182 42.8613 176.833 43.6621 178.135 43.6621C179.515 43.6621 180.433 43.1478 180.889 42.1191V34.4336H182.695V45H180.977L180.938 43.9551ZM194.375 39.834C194.375 41.4421 194.007 42.7376 193.271 43.7207C192.536 44.7038 191.54 45.1953 190.283 45.1953C189.001 45.1953 187.992 44.7884 187.256 43.9746V49.0625H185.449V34.4336H187.1L187.188 35.6055C187.923 34.694 188.945 34.2383 190.254 34.2383C191.523 34.2383 192.526 34.7168 193.262 35.6738C194.004 36.6309 194.375 37.9622 194.375 39.668V39.834ZM192.568 39.6289C192.568 38.4375 192.314 37.4967 191.807 36.8066C191.299 36.1165 190.602 35.7715 189.717 35.7715C188.623 35.7715 187.803 36.2565 187.256 37.2266V42.2754C187.796 43.2389 188.623 43.7207 189.736 43.7207C190.602 43.7207 191.289 43.3789 191.797 42.6953C192.311 42.0052 192.568 40.9831 192.568 39.6289ZM201.064 45.1953C199.632 45.1953 198.467 44.7266 197.568 43.7891C196.67 42.8451 196.221 41.5853 196.221 40.0098V39.6777C196.221 38.6296 196.419 37.6953 196.816 36.875C197.22 36.0482 197.78 35.4036 198.496 34.9414C199.219 34.4727 200 34.2383 200.84 34.2383C202.214 34.2383 203.281 34.6908 204.043 35.5957C204.805 36.5007 205.186 37.7962 205.186 39.4824V40.2344H198.027C198.053 41.276 198.356 42.1191 198.936 42.7637C199.521 43.4017 200.264 43.7207 201.162 43.7207C201.8 43.7207 202.34 43.5905 202.783 43.3301C203.226 43.0697 203.613 42.7246 203.945 42.2949L205.049 43.1543C204.163 44.515 202.835 45.1953 201.064 45.1953ZM200.84 35.7227C200.111 35.7227 199.499 35.9896 199.004 36.5234C198.509 37.0508 198.203 37.793 198.086 38.75H203.379V38.6133C203.327 37.6953 203.079 36.9857 202.637 36.4844C202.194 35.9766 201.595 35.7227 200.84 35.7227ZM212.393 36.0547C212.119 36.0091 211.823 35.9863 211.504 35.9863C210.319 35.9863 209.515 36.4909 209.092 37.5V45H207.285V34.4336H209.043L209.072 35.6543C209.665 34.7103 210.505 34.2383 211.592 34.2383C211.943 34.2383 212.21 34.2839 212.393 34.375V36.0547ZM216.025 45H214.219V34.4336H216.025V45ZM214.072 31.6309C214.072 31.3379 214.16 31.0905 214.336 30.8887C214.518 30.6868 214.785 30.5859 215.137 30.5859C215.488 30.5859 215.755 30.6868 215.938 30.8887C216.12 31.0905 216.211 31.3379 216.211 31.6309C216.211 31.9238 216.12 32.168 215.938 32.3633C215.755 32.5586 215.488 32.6562 215.137 32.6562C214.785 32.6562 214.518 32.5586 214.336 32.3633C214.16 32.168 214.072 31.9238 214.072 31.6309ZM218.447 39.6191C218.447 38.584 218.649 37.653 219.053 36.8262C219.463 35.9993 220.029 35.3613 220.752 34.9121C221.481 34.4629 222.311 34.2383 223.242 34.2383C224.681 34.2383 225.843 34.7363 226.729 35.7324C227.62 36.7285 228.066 38.0534 228.066 39.707V39.834C228.066 40.8626 227.868 41.7871 227.471 42.6074C227.08 43.4212 226.517 44.056 225.781 44.5117C225.052 44.9674 224.212 45.1953 223.262 45.1953C221.829 45.1953 220.667 44.6973 219.775 43.7012C218.89 42.7051 218.447 41.3867 218.447 39.7461V39.6191ZM220.264 39.834C220.264 41.0059 220.534 41.9466 221.074 42.6562C221.621 43.3659 222.35 43.7207 223.262 43.7207C224.18 43.7207 224.909 43.3626 225.449 42.6465C225.99 41.9238 226.26 40.9147 226.26 39.6191C226.26 38.4603 225.983 37.5228 225.43 36.8066C224.883 36.084 224.154 35.7227 223.242 35.7227C222.35 35.7227 221.631 36.0775 221.084 36.7871C220.537 37.4967 220.264 38.5124 220.264 39.834ZM235.439 36.0547C235.166 36.0091 234.87 35.9863 234.551 35.9863C233.366 35.9863 232.562 36.4909 232.139 37.5V45H230.332V34.4336H232.09L232.119 35.6543C232.712 34.7103 233.551 34.2383 234.639 34.2383C234.99 34.2383 235.257 34.2839 235.439 34.375V36.0547ZM246.455 45.1953C245.023 45.1953 243.857 44.7266 242.959 43.7891C242.061 42.8451 241.611 41.5853 241.611 40.0098V39.6777C241.611 38.6296 241.81 37.6953 242.207 36.875C242.611 36.0482 243.171 35.4036 243.887 34.9414C244.609 34.4727 245.391 34.2383 246.23 34.2383C247.604 34.2383 248.672 34.6908 249.434 35.5957C250.195 36.5007 250.576 37.7962 250.576 39.4824V40.2344H243.418C243.444 41.276 243.747 42.1191 244.326 42.7637C244.912 43.4017 245.654 43.7207 246.553 43.7207C247.191 43.7207 247.731 43.5905 248.174 43.3301C248.617 43.0697 249.004 42.7246 249.336 42.2949L250.439 43.1543C249.554 44.515 248.226 45.1953 246.455 45.1953ZM246.23 35.7227C245.501 35.7227 244.889 35.9896 244.395 36.5234C243.9 37.0508 243.594 37.793 243.477 38.75H248.77V38.6133C248.717 37.6953 248.47 36.9857 248.027 36.4844C247.585 35.9766 246.986 35.7227 246.23 35.7227ZM258.828 42.1973C258.828 41.709 258.643 41.3314 258.271 41.0645C257.907 40.791 257.266 40.5566 256.348 40.3613C255.436 40.166 254.71 39.9316 254.17 39.6582C253.636 39.3848 253.239 39.0592 252.979 38.6816C252.725 38.304 252.598 37.8548 252.598 37.334C252.598 36.4681 252.962 35.7357 253.691 35.1367C254.427 34.5378 255.365 34.2383 256.504 34.2383C257.702 34.2383 258.672 34.5475 259.414 35.166C260.163 35.7845 260.537 36.5755 260.537 37.5391H258.721C258.721 37.0443 258.509 36.6178 258.086 36.2598C257.669 35.9017 257.142 35.7227 256.504 35.7227C255.846 35.7227 255.332 35.8659 254.961 36.1523C254.59 36.4388 254.404 36.8132 254.404 37.2754C254.404 37.7116 254.577 38.0404 254.922 38.2617C255.267 38.4831 255.889 38.6947 256.787 38.8965C257.692 39.0983 258.424 39.3392 258.984 39.6191C259.544 39.8991 259.958 40.2376 260.225 40.6348C260.498 41.0254 260.635 41.5039 260.635 42.0703C260.635 43.0143 260.257 43.7728 259.502 44.3457C258.747 44.9121 257.767 45.1953 256.562 45.1953C255.716 45.1953 254.967 45.0456 254.316 44.7461C253.665 44.4466 253.154 44.0299 252.783 43.4961C252.419 42.9557 252.236 42.373 252.236 41.748H254.043C254.076 42.3535 254.316 42.8353 254.766 43.1934C255.221 43.5449 255.82 43.7207 256.562 43.7207C257.246 43.7207 257.793 43.584 258.203 43.3105C258.62 43.0306 258.828 42.6595 258.828 42.1973ZM262.549 39.6289C262.549 37.9688 262.93 36.6569 263.691 35.6934C264.453 34.7233 265.475 34.2383 266.758 34.2383C268.008 34.2383 268.994 34.6582 269.717 35.498L269.795 34.4336H271.455V49.0625H269.648V44.0234C268.919 44.8047 267.949 45.1953 266.738 45.1953C265.462 45.1953 264.443 44.7005 263.682 43.7109C262.926 42.7148 262.549 41.3965 262.549 39.7559V39.6289ZM264.355 39.834C264.355 41.0449 264.609 41.9954 265.117 42.6855C265.632 43.3757 266.322 43.7207 267.188 43.7207C268.262 43.7207 269.082 43.2454 269.648 42.2949V37.1191C269.076 36.1882 268.262 35.7227 267.207 35.7227C266.335 35.7227 265.641 36.071 265.127 36.7676C264.613 37.4577 264.355 38.4798 264.355 39.834ZM280.879 43.9551C280.176 44.7819 279.144 45.1953 277.783 45.1953C276.657 45.1953 275.798 44.8698 275.205 44.2188C274.619 43.5612 274.323 42.5911 274.316 41.3086V34.4336H276.123V41.2598C276.123 42.8613 276.774 43.6621 278.076 43.6621C279.456 43.6621 280.374 43.1478 280.83 42.1191V34.4336H282.637V45H280.918L280.879 43.9551ZM289.775 45.1953C288.343 45.1953 287.178 44.7266 286.279 43.7891C285.381 42.8451 284.932 41.5853 284.932 40.0098V39.6777C284.932 38.6296 285.13 37.6953 285.527 36.875C285.931 36.0482 286.491 35.4036 287.207 34.9414C287.93 34.4727 288.711 34.2383 289.551 34.2383C290.924 34.2383 291.992 34.6908 292.754 35.5957C293.516 36.5007 293.896 37.7962 293.896 39.4824V40.2344H286.738C286.764 41.276 287.067 42.1191 287.646 42.7637C288.232 43.4017 288.975 43.7207 289.873 43.7207C290.511 43.7207 291.051 43.5905 291.494 43.3301C291.937 43.0697 292.324 42.7246 292.656 42.2949L293.76 43.1543C292.874 44.515 291.546 45.1953 289.775 45.1953ZM289.551 35.7227C288.822 35.7227 288.21 35.9896 287.715 36.5234C287.22 37.0508 286.914 37.793 286.797 38.75H292.09V38.6133C292.038 37.6953 291.79 36.9857 291.348 36.4844C290.905 35.9766 290.306 35.7227 289.551 35.7227ZM301.104 36.0547C300.83 36.0091 300.534 35.9863 300.215 35.9863C299.03 35.9863 298.226 36.4909 297.803 37.5V45H295.996V34.4336H297.754L297.783 35.6543C298.376 34.7103 299.215 34.2383 300.303 34.2383C300.654 34.2383 300.921 34.2839 301.104 34.375V36.0547ZM302.139 39.6289C302.139 38.0078 302.523 36.7057 303.291 35.7227C304.059 34.7331 305.065 34.2383 306.309 34.2383C307.546 34.2383 308.525 34.6615 309.248 35.5078V30H311.055V45H309.395L309.307 43.8672C308.584 44.7526 307.578 45.1953 306.289 45.1953C305.065 45.1953 304.066 44.694 303.291 43.6914C302.523 42.6888 302.139 41.3802 302.139 39.7656V39.6289ZM303.945 39.834C303.945 41.0319 304.193 41.9694 304.688 42.6465C305.182 43.3236 305.866 43.6621 306.738 43.6621C307.884 43.6621 308.721 43.1478 309.248 42.1191V37.2656C308.708 36.2695 307.878 35.7715 306.758 35.7715C305.872 35.7715 305.182 36.1133 304.688 36.7969C304.193 37.4805 303.945 38.4928 303.945 39.834ZM313.389 39.6191C313.389 38.584 313.59 37.653 313.994 36.8262C314.404 35.9993 314.971 35.3613 315.693 34.9121C316.423 34.4629 317.253 34.2383 318.184 34.2383C319.622 34.2383 320.785 34.7363 321.67 35.7324C322.562 36.7285 323.008 38.0534 323.008 39.707V39.834C323.008 40.8626 322.809 41.7871 322.412 42.6074C322.021 43.4212 321.458 44.056 320.723 44.5117C319.993 44.9674 319.154 45.1953 318.203 45.1953C316.771 45.1953 315.609 44.6973 314.717 43.7012C313.831 42.7051 313.389 41.3867 313.389 39.7461V39.6191ZM315.205 39.834C315.205 41.0059 315.475 41.9466 316.016 42.6562C316.562 43.3659 317.292 43.7207 318.203 43.7207C319.121 43.7207 319.85 43.3626 320.391 42.6465C320.931 41.9238 321.201 40.9147 321.201 39.6191C321.201 38.4603 320.924 37.5228 320.371 36.8066C319.824 36.084 319.095 35.7227 318.184 35.7227C317.292 35.7227 316.572 36.0775 316.025 36.7871C315.479 37.4967 315.205 38.5124 315.205 39.834ZM325.312 44.0527C325.312 43.7402 325.404 43.4798 325.586 43.2715C325.775 43.0632 326.055 42.959 326.426 42.959C326.797 42.959 327.077 43.0632 327.266 43.2715C327.461 43.4798 327.559 43.7402 327.559 44.0527C327.559 44.3522 327.461 44.6029 327.266 44.8047C327.077 45.0065 326.797 45.1074 326.426 45.1074C326.055 45.1074 325.775 45.0065 325.586 44.8047C325.404 44.6029 325.312 44.3522 325.312 44.0527Z" fill="#322153"/>
</svg>
