<svg width="265" height="201" viewBox="0 0 265 201" fill="none" xmlns="http://www.w3.org/2000/svg">
<path d="M10.368 8.764C14.088 8.764 16.944 9.424 18.936 10.744C20.928 12.04 21.924 14.176 21.924 17.152C21.924 20.152 20.916 22.324 18.9 23.668C16.884 24.988 14.004 25.648 10.26 25.648H8.496V34H2.88V9.412C4.104 9.172 5.4 9.004 6.768 8.908C8.136 8.812 9.336 8.764 10.368 8.764ZM10.728 13.552C10.32 13.552 9.912 13.564 9.504 13.588C9.12 13.612 8.784 13.636 8.496 13.66V20.86H10.26C12.204 20.86 13.668 20.596 14.652 20.068C15.636 19.54 16.128 18.556 16.128 17.116C16.128 16.42 15.996 15.844 15.732 15.388C15.492 14.932 15.132 14.572 14.652 14.308C14.196 14.02 13.632 13.828 12.96 13.732C12.288 13.612 11.544 13.552 10.728 13.552ZM32.2208 30.256C32.7488 30.256 33.2528 30.244 33.7328 30.22C34.2128 30.196 34.5968 30.16 34.8848 30.112V26.044C34.6688 25.996 34.3448 25.948 33.9128 25.9C33.4808 25.852 33.0848 25.828 32.7248 25.828C32.2208 25.828 31.7408 25.864 31.2848 25.936C30.8528 25.984 30.4688 26.092 30.1328 26.26C29.7968 26.428 29.5328 26.656 29.3408 26.944C29.1488 27.232 29.0528 27.592 29.0528 28.024C29.0528 28.864 29.3288 29.452 29.8808 29.788C30.4568 30.1 31.2368 30.256 32.2208 30.256ZM31.7888 14.56C33.3728 14.56 34.6928 14.74 35.7488 15.1C36.8048 15.46 37.6448 15.976 38.2688 16.648C38.9168 17.32 39.3728 18.136 39.6368 19.096C39.9008 20.056 40.0328 21.124 40.0328 22.3V33.46C39.2648 33.628 38.1968 33.82 36.8288 34.036C35.4608 34.276 33.8048 34.396 31.8608 34.396C30.6368 34.396 29.5208 34.288 28.5128 34.072C27.5288 33.856 26.6768 33.508 25.9568 33.028C25.2368 32.524 24.6848 31.876 24.3008 31.084C23.9168 30.292 23.7248 29.32 23.7248 28.168C23.7248 27.064 23.9408 26.128 24.3728 25.36C24.8288 24.592 25.4288 23.98 26.1728 23.524C26.9168 23.068 27.7688 22.744 28.7288 22.552C29.6888 22.336 30.6848 22.228 31.7168 22.228C32.4128 22.228 33.0248 22.264 33.5528 22.336C34.1048 22.384 34.5488 22.456 34.8848 22.552V22.048C34.8848 21.136 34.6088 20.404 34.0568 19.852C33.5048 19.3 32.5448 19.024 31.1768 19.024C30.2648 19.024 29.3648 19.096 28.4768 19.24C27.5888 19.36 26.8208 19.54 26.1728 19.78L25.4888 15.46C25.8008 15.364 26.1848 15.268 26.6408 15.172C27.1208 15.052 27.6368 14.956 28.1888 14.884C28.7408 14.788 29.3168 14.716 29.9168 14.668C30.5408 14.596 31.1648 14.56 31.7888 14.56ZM57.0153 24.676C57.0153 23.02 56.6433 21.7 55.8993 20.716C55.1553 19.708 54.0513 19.204 52.5873 19.204C52.1073 19.204 51.6633 19.228 51.2553 19.276C50.8473 19.3 50.5113 19.336 50.2473 19.384V29.068C50.5833 29.284 51.0153 29.464 51.5433 29.608C52.0953 29.752 52.6473 29.824 53.1993 29.824C55.7433 29.824 57.0153 28.108 57.0153 24.676ZM62.4873 24.532C62.4873 25.996 62.3073 27.328 61.9473 28.528C61.5873 29.728 61.0593 30.76 60.3633 31.624C59.6673 32.488 58.8033 33.16 57.7713 33.64C56.7393 34.12 55.5513 34.36 54.2073 34.36C53.4633 34.36 52.7673 34.288 52.1193 34.144C51.4713 34 50.8473 33.796 50.2473 33.532V40.66H44.8833V15.712C45.3633 15.568 45.9153 15.436 46.5393 15.316C47.1633 15.172 47.8113 15.052 48.4833 14.956C49.1793 14.86 49.8753 14.788 50.5713 14.74C51.2913 14.668 51.9753 14.632 52.6233 14.632C54.1833 14.632 55.5753 14.872 56.7993 15.352C58.0233 15.808 59.0553 16.468 59.8953 17.332C60.7353 18.172 61.3713 19.204 61.8033 20.428C62.2593 21.652 62.4873 23.02 62.4873 24.532ZM65.7098 24.676C65.7098 22.996 65.9618 21.532 66.4658 20.284C66.9938 19.012 67.6778 17.956 68.5178 17.116C69.3578 16.276 70.3178 15.64 71.3978 15.208C72.5018 14.776 73.6298 14.56 74.7818 14.56C77.4698 14.56 79.5938 15.388 81.1538 17.044C82.7138 18.676 83.4938 21.088 83.4938 24.28C83.4938 24.592 83.4818 24.94 83.4578 25.324C83.4338 25.684 83.4098 26.008 83.3858 26.296H71.2178C71.3378 27.4 71.8538 28.276 72.7658 28.924C73.6778 29.572 74.9018 29.896 76.4378 29.896C77.4218 29.896 78.3818 29.812 79.3178 29.644C80.2778 29.452 81.0578 29.224 81.6578 28.96L82.3778 33.316C82.0898 33.46 81.7058 33.604 81.2258 33.748C80.7458 33.892 80.2058 34.012 79.6058 34.108C79.0298 34.228 78.4058 34.324 77.7338 34.396C77.0618 34.468 76.3898 34.504 75.7178 34.504C74.0138 34.504 72.5258 34.252 71.2538 33.748C70.0058 33.244 68.9618 32.56 68.1218 31.696C67.3058 30.808 66.6938 29.764 66.2858 28.564C65.9018 27.364 65.7098 26.068 65.7098 24.676ZM78.3098 22.624C78.2858 22.168 78.2018 21.724 78.0578 21.292C77.9378 20.86 77.7338 20.476 77.4458 20.14C77.1818 19.804 76.8338 19.528 76.4018 19.312C75.9938 19.096 75.4778 18.988 74.8538 18.988C74.2538 18.988 73.7378 19.096 73.3058 19.312C72.8738 19.504 72.5138 19.768 72.2258 20.104C71.9378 20.44 71.7098 20.836 71.5418 21.292C71.3978 21.724 71.2898 22.168 71.2178 22.624H78.3098ZM99.0453 19.816C98.5653 19.696 98.0013 19.576 97.3533 19.456C96.7053 19.312 96.0093 19.24 95.2653 19.24C94.9293 19.24 94.5213 19.276 94.0413 19.348C93.5853 19.396 93.2373 19.456 92.9973 19.528V34H87.6333V16.072C88.5933 15.736 89.7213 15.424 91.0173 15.136C92.3373 14.824 93.8013 14.668 95.4093 14.668C95.6973 14.668 96.0453 14.692 96.4533 14.74C96.8613 14.764 97.2693 14.812 97.6773 14.884C98.0853 14.932 98.4933 15.004 98.9013 15.1C99.3093 15.172 99.6573 15.268 99.9453 15.388L99.0453 19.816ZM108.257 30.148C109.241 30.148 109.937 30.052 110.345 29.86C110.753 29.668 110.957 29.296 110.957 28.744C110.957 28.312 110.693 27.94 110.165 27.628C109.637 27.292 108.833 26.92 107.753 26.512C106.913 26.2 106.145 25.876 105.449 25.54C104.777 25.204 104.201 24.808 103.721 24.352C103.241 23.872 102.869 23.308 102.605 22.66C102.341 22.012 102.209 21.232 102.209 20.32C102.209 18.544 102.869 17.14 104.189 16.108C105.509 15.076 107.321 14.56 109.625 14.56C110.777 14.56 111.881 14.668 112.937 14.884C113.993 15.076 114.833 15.292 115.457 15.532L114.521 19.708C113.897 19.492 113.213 19.3 112.469 19.132C111.749 18.964 110.933 18.88 110.021 18.88C108.341 18.88 107.501 19.348 107.501 20.284C107.501 20.5 107.537 20.692 107.609 20.86C107.681 21.028 107.825 21.196 108.041 21.364C108.257 21.508 108.545 21.676 108.905 21.868C109.289 22.036 109.769 22.228 110.345 22.444C111.521 22.876 112.493 23.308 113.261 23.74C114.029 24.148 114.629 24.604 115.061 25.108C115.517 25.588 115.829 26.128 115.997 26.728C116.189 27.328 116.285 28.024 116.285 28.816C116.285 30.688 115.577 32.104 114.161 33.064C112.769 34.024 110.789 34.504 108.221 34.504C106.541 34.504 105.137 34.36 104.009 34.072C102.905 33.784 102.137 33.544 101.705 33.352L102.605 28.996C103.517 29.356 104.453 29.644 105.413 29.86C106.373 30.052 107.321 30.148 108.257 30.148ZM125.657 34H120.293V15.064H125.657V34ZM126.161 9.592C126.161 10.576 125.837 11.356 125.189 11.932C124.565 12.484 123.821 12.76 122.957 12.76C122.093 12.76 121.337 12.484 120.689 11.932C120.065 11.356 119.753 10.576 119.753 9.592C119.753 8.608 120.065 7.84 120.689 7.288C121.337 6.712 122.093 6.424 122.957 6.424C123.821 6.424 124.565 6.712 125.189 7.288C125.837 7.84 126.161 8.608 126.161 9.592ZM135.272 24.388C135.272 26.044 135.644 27.376 136.388 28.384C137.132 29.392 138.236 29.896 139.7 29.896C140.18 29.896 140.624 29.884 141.032 29.86C141.44 29.812 141.776 29.764 142.04 29.716V19.96C141.704 19.744 141.26 19.564 140.708 19.42C140.18 19.276 139.64 19.204 139.088 19.204C136.544 19.204 135.272 20.932 135.272 24.388ZM147.404 33.388C146.924 33.532 146.372 33.676 145.748 33.82C145.124 33.94 144.464 34.048 143.768 34.144C143.096 34.24 142.4 34.312 141.68 34.36C140.984 34.432 140.312 34.468 139.664 34.468C138.104 34.468 136.712 34.24 135.488 33.784C134.264 33.328 133.232 32.68 132.392 31.84C131.552 30.976 130.904 29.944 130.448 28.744C130.016 27.52 129.8 26.152 129.8 24.64C129.8 23.104 129.992 21.724 130.376 20.5C130.76 19.252 131.312 18.196 132.032 17.332C132.752 16.468 133.628 15.808 134.66 15.352C135.716 14.896 136.916 14.668 138.26 14.668C139.004 14.668 139.664 14.74 140.24 14.884C140.84 15.028 141.44 15.232 142.04 15.496V6.928L147.404 6.064V33.388ZM151.526 24.676C151.526 22.996 151.778 21.532 152.282 20.284C152.81 19.012 153.494 17.956 154.334 17.116C155.174 16.276 156.134 15.64 157.214 15.208C158.318 14.776 159.446 14.56 160.598 14.56C163.286 14.56 165.41 15.388 166.97 17.044C168.53 18.676 169.31 21.088 169.31 24.28C169.31 24.592 169.298 24.94 169.274 25.324C169.25 25.684 169.226 26.008 169.202 26.296H157.034C157.154 27.4 157.67 28.276 158.582 28.924C159.494 29.572 160.718 29.896 162.254 29.896C163.238 29.896 164.198 29.812 165.134 29.644C166.094 29.452 166.874 29.224 167.474 28.96L168.194 33.316C167.906 33.46 167.522 33.604 167.042 33.748C166.562 33.892 166.022 34.012 165.422 34.108C164.846 34.228 164.222 34.324 163.55 34.396C162.878 34.468 162.206 34.504 161.534 34.504C159.83 34.504 158.342 34.252 157.07 33.748C155.822 33.244 154.778 32.56 153.938 31.696C153.122 30.808 152.51 29.764 152.102 28.564C151.718 27.364 151.526 26.068 151.526 24.676ZM164.126 22.624C164.102 22.168 164.018 21.724 163.874 21.292C163.754 20.86 163.55 20.476 163.262 20.14C162.998 19.804 162.65 19.528 162.218 19.312C161.81 19.096 161.294 18.988 160.67 18.988C160.07 18.988 159.554 19.096 159.122 19.312C158.69 19.504 158.33 19.768 158.042 20.104C157.754 20.44 157.526 20.836 157.358 21.292C157.214 21.724 157.106 22.168 157.034 22.624H164.126ZM184.862 19.816C184.382 19.696 183.818 19.576 183.17 19.456C182.522 19.312 181.826 19.24 181.082 19.24C180.746 19.24 180.338 19.276 179.858 19.348C179.402 19.396 179.054 19.456 178.814 19.528V34H173.45V16.072C174.41 15.736 175.538 15.424 176.834 15.136C178.154 14.824 179.618 14.668 181.226 14.668C181.514 14.668 181.862 14.692 182.27 14.74C182.678 14.764 183.086 14.812 183.494 14.884C183.902 14.932 184.31 15.004 184.718 15.1C185.126 15.172 185.474 15.268 185.762 15.388L184.862 19.816Z" fill="#322153"/>
<path d="M5.49219 136.398H2.82031V141H1.3125V129.625H5.07812C6.35938 129.625 7.34375 129.917 8.03125 130.5C8.72396 131.083 9.07031 131.932 9.07031 133.047C9.07031 133.755 8.8776 134.372 8.49219 134.898C8.11198 135.424 7.58073 135.818 6.89844 136.078L9.57031 140.906V141H7.96094L5.49219 136.398ZM2.82031 135.172H5.125C5.86979 135.172 6.46094 134.979 6.89844 134.594C7.34115 134.208 7.5625 133.693 7.5625 133.047C7.5625 132.344 7.35156 131.805 6.92969 131.43C6.51302 131.055 5.90885 130.865 5.11719 130.859H2.82031V135.172ZM12.5234 141H11.0781V132.547H12.5234V141ZM10.9609 130.305C10.9609 130.07 11.0312 129.872 11.1719 129.711C11.3177 129.549 11.5312 129.469 11.8125 129.469C12.0938 129.469 12.3073 129.549 12.4531 129.711C12.599 129.872 12.6719 130.07 12.6719 130.305C12.6719 130.539 12.599 130.734 12.4531 130.891C12.3073 131.047 12.0938 131.125 11.8125 131.125C11.5312 131.125 11.3177 131.047 11.1719 130.891C11.0312 130.734 10.9609 130.539 10.9609 130.305ZM14.4609 136.695C14.4609 135.867 14.6224 135.122 14.9453 134.461C15.2734 133.799 15.7266 133.289 16.3047 132.93C16.888 132.57 17.5521 132.391 18.2969 132.391C19.4479 132.391 20.3776 132.789 21.0859 133.586C21.7995 134.383 22.1562 135.443 22.1562 136.766V136.867C22.1562 137.69 21.9974 138.43 21.6797 139.086C21.3672 139.737 20.9167 140.245 20.3281 140.609C19.7448 140.974 19.0729 141.156 18.3125 141.156C17.1667 141.156 16.237 140.758 15.5234 139.961C14.8151 139.164 14.4609 138.109 14.4609 136.797V136.695ZM15.9141 136.867C15.9141 137.805 16.1302 138.557 16.5625 139.125C17 139.693 17.5833 139.977 18.3125 139.977C19.0469 139.977 19.6302 139.69 20.0625 139.117C20.4948 138.539 20.7109 137.732 20.7109 136.695C20.7109 135.768 20.4896 135.018 20.0469 134.445C19.6094 133.867 19.026 133.578 18.2969 133.578C17.5833 133.578 17.0078 133.862 16.5703 134.43C16.1328 134.997 15.9141 135.81 15.9141 136.867ZM27.5859 136.703C27.5859 135.406 27.8932 134.365 28.5078 133.578C29.1224 132.786 29.9271 132.391 30.9219 132.391C31.9115 132.391 32.6953 132.729 33.2734 133.406V129H34.7188V141H33.3906L33.3203 140.094C32.7422 140.802 31.9375 141.156 30.9062 141.156C29.9271 141.156 29.1276 140.755 28.5078 139.953C27.8932 139.151 27.5859 138.104 27.5859 136.812V136.703ZM29.0312 136.867C29.0312 137.826 29.2292 138.576 29.625 139.117C30.0208 139.659 30.5677 139.93 31.2656 139.93C32.1823 139.93 32.8516 139.518 33.2734 138.695V134.812C32.8411 134.016 32.1771 133.617 31.2812 133.617C30.5729 133.617 30.0208 133.891 29.625 134.438C29.2292 134.984 29.0312 135.794 29.0312 136.867ZM36.5859 136.695C36.5859 135.867 36.7474 135.122 37.0703 134.461C37.3984 133.799 37.8516 133.289 38.4297 132.93C39.013 132.57 39.6771 132.391 40.4219 132.391C41.5729 132.391 42.5026 132.789 43.2109 133.586C43.9245 134.383 44.2812 135.443 44.2812 136.766V136.867C44.2812 137.69 44.1224 138.43 43.8047 139.086C43.4922 139.737 43.0417 140.245 42.4531 140.609C41.8698 140.974 41.1979 141.156 40.4375 141.156C39.2917 141.156 38.362 140.758 37.6484 139.961C36.9401 139.164 36.5859 138.109 36.5859 136.797V136.695ZM38.0391 136.867C38.0391 137.805 38.2552 138.557 38.6875 139.125C39.125 139.693 39.7083 139.977 40.4375 139.977C41.1719 139.977 41.7552 139.69 42.1875 139.117C42.6198 138.539 42.8359 137.732 42.8359 136.695C42.8359 135.768 42.6146 135.018 42.1719 134.445C41.7344 133.867 41.151 133.578 40.4219 133.578C39.7083 133.578 39.1328 133.862 38.6953 134.43C38.2578 134.997 38.0391 135.81 38.0391 136.867ZM53.6406 135.93C52.3542 135.56 51.4167 135.107 50.8281 134.57C50.2448 134.029 49.9531 133.362 49.9531 132.57C49.9531 131.674 50.3099 130.935 51.0234 130.352C51.7422 129.763 52.6745 129.469 53.8203 129.469C54.6016 129.469 55.2969 129.62 55.9062 129.922C56.5208 130.224 56.9948 130.641 57.3281 131.172C57.6667 131.703 57.8359 132.284 57.8359 132.914H56.3281C56.3281 132.227 56.1094 131.688 55.6719 131.297C55.2344 130.901 54.6172 130.703 53.8203 130.703C53.0807 130.703 52.5026 130.867 52.0859 131.195C51.6745 131.518 51.4688 131.969 51.4688 132.547C51.4688 133.01 51.6641 133.404 52.0547 133.727C52.4505 134.044 53.1198 134.336 54.0625 134.602C55.0104 134.867 55.75 135.161 56.2812 135.484C56.8177 135.802 57.2135 136.174 57.4688 136.602C57.7292 137.029 57.8594 137.531 57.8594 138.109C57.8594 139.031 57.5 139.771 56.7812 140.328C56.0625 140.88 55.1016 141.156 53.8984 141.156C53.1172 141.156 52.388 141.008 51.7109 140.711C51.0339 140.409 50.5104 139.997 50.1406 139.477C49.776 138.956 49.5938 138.365 49.5938 137.703H51.1016C51.1016 138.391 51.3542 138.935 51.8594 139.336C52.3698 139.732 53.0495 139.93 53.8984 139.93C54.6901 139.93 55.2969 139.768 55.7188 139.445C56.1406 139.122 56.3516 138.682 56.3516 138.125C56.3516 137.568 56.1562 137.138 55.7656 136.836C55.375 136.529 54.6667 136.227 53.6406 135.93ZM64.7812 140.164C64.2188 140.826 63.3932 141.156 62.3047 141.156C61.4036 141.156 60.7161 140.896 60.2422 140.375C59.7734 139.849 59.5365 139.073 59.5312 138.047V132.547H60.9766V138.008C60.9766 139.289 61.4974 139.93 62.5391 139.93C63.6432 139.93 64.3776 139.518 64.7422 138.695V132.547H66.1875V141H64.8125L64.7812 140.164ZM69.9609 141H68.5156V129H69.9609V141ZM72.2344 143.266L71.4141 142.703C71.9036 142.021 72.1589 141.318 72.1797 140.594V139.289H73.5938V140.422C73.5938 140.948 73.4635 141.474 73.2031 142C72.9479 142.526 72.625 142.948 72.2344 143.266ZM82.9688 135.93C81.6823 135.56 80.7448 135.107 80.1562 134.57C79.5729 134.029 79.2812 133.362 79.2812 132.57C79.2812 131.674 79.638 130.935 80.3516 130.352C81.0703 129.763 82.0026 129.469 83.1484 129.469C83.9297 129.469 84.625 129.62 85.2344 129.922C85.849 130.224 86.3229 130.641 86.6562 131.172C86.9948 131.703 87.1641 132.284 87.1641 132.914H85.6562C85.6562 132.227 85.4375 131.688 85 131.297C84.5625 130.901 83.9453 130.703 83.1484 130.703C82.4089 130.703 81.8307 130.867 81.4141 131.195C81.0026 131.518 80.7969 131.969 80.7969 132.547C80.7969 133.01 80.9922 133.404 81.3828 133.727C81.7786 134.044 82.4479 134.336 83.3906 134.602C84.3385 134.867 85.0781 135.161 85.6094 135.484C86.1458 135.802 86.5417 136.174 86.7969 136.602C87.0573 137.029 87.1875 137.531 87.1875 138.109C87.1875 139.031 86.8281 139.771 86.1094 140.328C85.3906 140.88 84.4297 141.156 83.2266 141.156C82.4453 141.156 81.7161 141.008 81.0391 140.711C80.362 140.409 79.8385 139.997 79.4688 139.477C79.1042 138.956 78.9219 138.365 78.9219 137.703H80.4297C80.4297 138.391 80.6823 138.935 81.1875 139.336C81.6979 139.732 82.3776 139.93 83.2266 139.93C84.0182 139.93 84.625 139.768 85.0469 139.445C85.4688 139.122 85.6797 138.682 85.6797 138.125C85.6797 137.568 85.4844 137.138 85.0938 136.836C84.7031 136.529 83.9948 136.227 82.9688 135.93ZM94.1094 141C94.026 140.833 93.9583 140.536 93.9062 140.109C93.2344 140.807 92.4323 141.156 91.5 141.156C90.6667 141.156 89.9818 140.922 89.4453 140.453C88.9141 139.979 88.6484 139.38 88.6484 138.656C88.6484 137.776 88.9818 137.094 89.6484 136.609C90.3203 136.12 91.263 135.875 92.4766 135.875H93.8828V135.211C93.8828 134.706 93.7318 134.305 93.4297 134.008C93.1276 133.706 92.6823 133.555 92.0938 133.555C91.5781 133.555 91.1458 133.685 90.7969 133.945C90.4479 134.206 90.2734 134.521 90.2734 134.891H88.8203C88.8203 134.469 88.9688 134.062 89.2656 133.672C89.5677 133.276 89.974 132.964 90.4844 132.734C91 132.505 91.5651 132.391 92.1797 132.391C93.1536 132.391 93.9167 132.635 94.4688 133.125C95.0208 133.609 95.3073 134.279 95.3281 135.133V139.023C95.3281 139.799 95.4271 140.417 95.625 140.875V141H94.1094ZM91.7109 139.898C92.1641 139.898 92.5938 139.781 93 139.547C93.4062 139.312 93.7005 139.008 93.8828 138.633V136.898H92.75C90.9792 136.898 90.0938 137.417 90.0938 138.453C90.0938 138.906 90.2448 139.26 90.5469 139.516C90.849 139.771 91.237 139.898 91.7109 139.898ZM98.9609 132.547L99.0078 133.609C99.6536 132.797 100.497 132.391 101.539 132.391C103.326 132.391 104.227 133.398 104.242 135.414V141H102.797V135.406C102.792 134.797 102.651 134.346 102.375 134.055C102.104 133.763 101.68 133.617 101.102 133.617C100.633 133.617 100.221 133.742 99.8672 133.992C99.513 134.242 99.237 134.57 99.0391 134.977V141H97.5938V132.547H98.9609ZM108.383 130.5V132.547H109.961V133.664H108.383V138.906C108.383 139.245 108.453 139.5 108.594 139.672C108.734 139.839 108.974 139.922 109.312 139.922C109.479 139.922 109.708 139.891 110 139.828V141C109.62 141.104 109.25 141.156 108.891 141.156C108.245 141.156 107.758 140.961 107.43 140.57C107.102 140.18 106.938 139.625 106.938 138.906V133.664H105.398V132.547H106.938V130.5H108.383ZM116.875 141C116.792 140.833 116.724 140.536 116.672 140.109C116 140.807 115.198 141.156 114.266 141.156C113.432 141.156 112.747 140.922 112.211 140.453C111.68 139.979 111.414 139.38 111.414 138.656C111.414 137.776 111.747 137.094 112.414 136.609C113.086 136.12 114.029 135.875 115.242 135.875H116.648V135.211C116.648 134.706 116.497 134.305 116.195 134.008C115.893 133.706 115.448 133.555 114.859 133.555C114.344 133.555 113.911 133.685 113.562 133.945C113.214 134.206 113.039 134.521 113.039 134.891H111.586C111.586 134.469 111.734 134.062 112.031 133.672C112.333 133.276 112.74 132.964 113.25 132.734C113.766 132.505 114.331 132.391 114.945 132.391C115.919 132.391 116.682 132.635 117.234 133.125C117.786 133.609 118.073 134.279 118.094 135.133V139.023C118.094 139.799 118.193 140.417 118.391 140.875V141H116.875ZM114.477 139.898C114.93 139.898 115.359 139.781 115.766 139.547C116.172 139.312 116.466 139.008 116.648 138.633V136.898H115.516C113.745 136.898 112.859 137.417 112.859 138.453C112.859 138.906 113.01 139.26 113.312 139.516C113.615 139.771 114.003 139.898 114.477 139.898ZM132.922 137.391C132.781 138.594 132.336 139.523 131.586 140.18C130.841 140.831 129.849 141.156 128.609 141.156C127.266 141.156 126.188 140.674 125.375 139.711C124.568 138.747 124.164 137.458 124.164 135.844V134.75C124.164 133.693 124.352 132.763 124.727 131.961C125.107 131.159 125.643 130.544 126.336 130.117C127.029 129.685 127.831 129.469 128.742 129.469C129.951 129.469 130.919 129.807 131.648 130.484C132.378 131.156 132.802 132.089 132.922 133.281H131.414C131.284 132.375 131 131.719 130.562 131.312C130.13 130.906 129.523 130.703 128.742 130.703C127.784 130.703 127.031 131.057 126.484 131.766C125.943 132.474 125.672 133.482 125.672 134.789V135.891C125.672 137.125 125.93 138.107 126.445 138.836C126.961 139.565 127.682 139.93 128.609 139.93C129.443 139.93 130.081 139.742 130.523 139.367C130.971 138.987 131.268 138.328 131.414 137.391H132.922ZM139.969 141C139.885 140.833 139.818 140.536 139.766 140.109C139.094 140.807 138.292 141.156 137.359 141.156C136.526 141.156 135.841 140.922 135.305 140.453C134.773 139.979 134.508 139.38 134.508 138.656C134.508 137.776 134.841 137.094 135.508 136.609C136.18 136.12 137.122 135.875 138.336 135.875H139.742V135.211C139.742 134.706 139.591 134.305 139.289 134.008C138.987 133.706 138.542 133.555 137.953 133.555C137.438 133.555 137.005 133.685 136.656 133.945C136.307 134.206 136.133 134.521 136.133 134.891H134.68C134.68 134.469 134.828 134.062 135.125 133.672C135.427 133.276 135.833 132.964 136.344 132.734C136.859 132.505 137.424 132.391 138.039 132.391C139.013 132.391 139.776 132.635 140.328 133.125C140.88 133.609 141.167 134.279 141.188 135.133V139.023C141.188 139.799 141.286 140.417 141.484 140.875V141H139.969ZM137.57 139.898C138.023 139.898 138.453 139.781 138.859 139.547C139.266 139.312 139.56 139.008 139.742 138.633V136.898H138.609C136.839 136.898 135.953 137.417 135.953 138.453C135.953 138.906 136.104 139.26 136.406 139.516C136.708 139.771 137.096 139.898 137.57 139.898ZM145.414 130.5V132.547H146.992V133.664H145.414V138.906C145.414 139.245 145.484 139.5 145.625 139.672C145.766 139.839 146.005 139.922 146.344 139.922C146.51 139.922 146.74 139.891 147.031 139.828V141C146.651 141.104 146.281 141.156 145.922 141.156C145.276 141.156 144.789 140.961 144.461 140.57C144.133 140.18 143.969 139.625 143.969 138.906V133.664H142.43V132.547H143.969V130.5H145.414ZM153.906 141C153.823 140.833 153.755 140.536 153.703 140.109C153.031 140.807 152.229 141.156 151.297 141.156C150.464 141.156 149.779 140.922 149.242 140.453C148.711 139.979 148.445 139.38 148.445 138.656C148.445 137.776 148.779 137.094 149.445 136.609C150.117 136.12 151.06 135.875 152.273 135.875H153.68V135.211C153.68 134.706 153.529 134.305 153.227 134.008C152.924 133.706 152.479 133.555 151.891 133.555C151.375 133.555 150.943 133.685 150.594 133.945C150.245 134.206 150.07 134.521 150.07 134.891H148.617C148.617 134.469 148.766 134.062 149.062 133.672C149.365 133.276 149.771 132.964 150.281 132.734C150.797 132.505 151.362 132.391 151.977 132.391C152.951 132.391 153.714 132.635 154.266 133.125C154.818 133.609 155.104 134.279 155.125 135.133V139.023C155.125 139.799 155.224 140.417 155.422 140.875V141H153.906ZM151.508 139.898C151.961 139.898 152.391 139.781 152.797 139.547C153.203 139.312 153.497 139.008 153.68 138.633V136.898H152.547C150.776 136.898 149.891 137.417 149.891 138.453C149.891 138.906 150.042 139.26 150.344 139.516C150.646 139.771 151.034 139.898 151.508 139.898ZM161.477 133.844C161.258 133.807 161.021 133.789 160.766 133.789C159.818 133.789 159.174 134.193 158.836 135V141H157.391V132.547H158.797L158.82 133.523C159.294 132.768 159.966 132.391 160.836 132.391C161.117 132.391 161.331 132.427 161.477 132.5V133.844ZM164.383 141H162.938V132.547H164.383V141ZM162.82 130.305C162.82 130.07 162.891 129.872 163.031 129.711C163.177 129.549 163.391 129.469 163.672 129.469C163.953 129.469 164.167 129.549 164.312 129.711C164.458 129.872 164.531 130.07 164.531 130.305C164.531 130.539 164.458 130.734 164.312 130.891C164.167 131.047 163.953 131.125 163.672 131.125C163.391 131.125 163.177 131.047 163.031 130.891C162.891 130.734 162.82 130.539 162.82 130.305ZM168.07 132.547L168.117 133.609C168.763 132.797 169.607 132.391 170.648 132.391C172.435 132.391 173.336 133.398 173.352 135.414V141H171.906V135.406C171.901 134.797 171.76 134.346 171.484 134.055C171.214 133.763 170.789 133.617 170.211 133.617C169.742 133.617 169.331 133.742 168.977 133.992C168.622 134.242 168.346 134.57 168.148 134.977V141H166.703V132.547H168.07ZM180.75 141C180.667 140.833 180.599 140.536 180.547 140.109C179.875 140.807 179.073 141.156 178.141 141.156C177.307 141.156 176.622 140.922 176.086 140.453C175.555 139.979 175.289 139.38 175.289 138.656C175.289 137.776 175.622 137.094 176.289 136.609C176.961 136.12 177.904 135.875 179.117 135.875H180.523V135.211C180.523 134.706 180.372 134.305 180.07 134.008C179.768 133.706 179.323 133.555 178.734 133.555C178.219 133.555 177.786 133.685 177.438 133.945C177.089 134.206 176.914 134.521 176.914 134.891H175.461C175.461 134.469 175.609 134.062 175.906 133.672C176.208 133.276 176.615 132.964 177.125 132.734C177.641 132.505 178.206 132.391 178.82 132.391C179.794 132.391 180.557 132.635 181.109 133.125C181.661 133.609 181.948 134.279 181.969 135.133V139.023C181.969 139.799 182.068 140.417 182.266 140.875V141H180.75ZM178.352 139.898C178.805 139.898 179.234 139.781 179.641 139.547C180.047 139.312 180.341 139.008 180.523 138.633V136.898H179.391C177.62 136.898 176.734 137.417 176.734 138.453C176.734 138.906 176.885 139.26 177.188 139.516C177.49 139.771 177.878 139.898 178.352 139.898ZM9.71875 165.508C9.33333 166.06 8.79427 166.474 8.10156 166.75C7.41406 167.021 6.61198 167.156 5.69531 167.156C4.76823 167.156 3.94531 166.94 3.22656 166.508C2.50781 166.07 1.95052 165.451 1.55469 164.648C1.16406 163.846 0.963542 162.917 0.953125 161.859V160.867C0.953125 159.154 1.35156 157.826 2.14844 156.883C2.95052 155.94 4.07552 155.469 5.52344 155.469C6.71094 155.469 7.66667 155.773 8.39062 156.383C9.11458 156.987 9.55729 157.846 9.71875 158.961H8.21875C7.9375 157.456 7.04167 156.703 5.53125 156.703C4.52604 156.703 3.76302 157.057 3.24219 157.766C2.72656 158.469 2.46615 159.49 2.46094 160.828V161.758C2.46094 163.034 2.7526 164.049 3.33594 164.805C3.91927 165.555 4.70833 165.93 5.70312 165.93C6.26562 165.93 6.75781 165.867 7.17969 165.742C7.60156 165.617 7.95052 165.406 8.22656 165.109V162.555H5.59375V161.336H9.71875V165.508ZM17.2188 166.164C16.6562 166.826 15.8307 167.156 14.7422 167.156C13.8411 167.156 13.1536 166.896 12.6797 166.375C12.2109 165.849 11.974 165.073 11.9688 164.047V158.547H13.4141V164.008C13.4141 165.289 13.9349 165.93 14.9766 165.93C16.0807 165.93 16.8151 165.518 17.1797 164.695V158.547H18.625V167H17.25L17.2188 166.164ZM22.3984 167H20.9531V158.547H22.3984V167ZM20.8359 156.305C20.8359 156.07 20.9062 155.872 21.0469 155.711C21.1927 155.549 21.4062 155.469 21.6875 155.469C21.9688 155.469 22.1823 155.549 22.3281 155.711C22.474 155.872 22.5469 156.07 22.5469 156.305C22.5469 156.539 22.474 156.734 22.3281 156.891C22.1823 157.047 21.9688 157.125 21.6875 157.125C21.4062 157.125 21.1927 157.047 21.0469 156.891C20.9062 156.734 20.8359 156.539 20.8359 156.305ZM26.2891 167H24.8438V155H26.2891V167ZM30.0547 159.57C30.6953 158.784 31.5286 158.391 32.5547 158.391C34.3411 158.391 35.2422 159.398 35.2578 161.414V167H33.8125V161.406C33.8073 160.797 33.6667 160.346 33.3906 160.055C33.1198 159.763 32.6953 159.617 32.1172 159.617C31.6484 159.617 31.237 159.742 30.8828 159.992C30.5286 160.242 30.2526 160.57 30.0547 160.977V167H28.6094V155H30.0547V159.57ZM40.9297 167.156C39.7839 167.156 38.8516 166.781 38.1328 166.031C37.4141 165.276 37.0547 164.268 37.0547 163.008V162.742C37.0547 161.904 37.2135 161.156 37.5312 160.5C37.8542 159.839 38.3021 159.323 38.875 158.953C39.4531 158.578 40.0781 158.391 40.75 158.391C41.849 158.391 42.7031 158.753 43.3125 159.477C43.9219 160.201 44.2266 161.237 44.2266 162.586V163.188H38.5C38.5208 164.021 38.763 164.695 39.2266 165.211C39.6953 165.721 40.2891 165.977 41.0078 165.977C41.5182 165.977 41.9505 165.872 42.3047 165.664C42.6589 165.456 42.9688 165.18 43.2344 164.836L44.1172 165.523C43.4089 166.612 42.3464 167.156 40.9297 167.156ZM40.75 159.578C40.1667 159.578 39.6771 159.792 39.2812 160.219C38.8854 160.641 38.6406 161.234 38.5469 162H42.7812V161.891C42.7396 161.156 42.5417 160.589 42.1875 160.188C41.8333 159.781 41.3542 159.578 40.75 159.578ZM49.9922 159.844C49.7734 159.807 49.5365 159.789 49.2812 159.789C48.3333 159.789 47.6901 160.193 47.3516 161V167H45.9062V158.547H47.3125L47.3359 159.523C47.8099 158.768 48.4818 158.391 49.3516 158.391C49.6328 158.391 49.8464 158.427 49.9922 158.5V159.844ZM52.6875 158.547L52.7266 159.484C53.3464 158.755 54.1823 158.391 55.2344 158.391C56.4167 158.391 57.2214 158.844 57.6484 159.75C57.9297 159.344 58.2943 159.016 58.7422 158.766C59.1953 158.516 59.7292 158.391 60.3438 158.391C62.1979 158.391 63.1406 159.372 63.1719 161.336V167H61.7266V161.422C61.7266 160.818 61.5885 160.367 61.3125 160.07C61.0365 159.768 60.5729 159.617 59.9219 159.617C59.3854 159.617 58.9401 159.779 58.5859 160.102C58.2318 160.419 58.026 160.849 57.9688 161.391V167H56.5156V161.461C56.5156 160.232 55.9141 159.617 54.7109 159.617C53.763 159.617 53.1146 160.021 52.7656 160.828V167H51.3203V158.547H52.6875ZM68.8672 167.156C67.7214 167.156 66.7891 166.781 66.0703 166.031C65.3516 165.276 64.9922 164.268 64.9922 163.008V162.742C64.9922 161.904 65.151 161.156 65.4688 160.5C65.7917 159.839 66.2396 159.323 66.8125 158.953C67.3906 158.578 68.0156 158.391 68.6875 158.391C69.7865 158.391 70.6406 158.753 71.25 159.477C71.8594 160.201 72.1641 161.237 72.1641 162.586V163.188H66.4375C66.4583 164.021 66.7005 164.695 67.1641 165.211C67.6328 165.721 68.2266 165.977 68.9453 165.977C69.4557 165.977 69.888 165.872 70.2422 165.664C70.5964 165.456 70.9062 165.18 71.1719 164.836L72.0547 165.523C71.3464 166.612 70.2839 167.156 68.8672 167.156ZM68.6875 159.578C68.1042 159.578 67.6146 159.792 67.2188 160.219C66.8229 160.641 66.5781 161.234 66.4844 162H70.7188V161.891C70.6771 161.156 70.4792 160.589 70.125 160.188C69.7708 159.781 69.2917 159.578 68.6875 159.578ZM86.4375 165.508C86.0521 166.06 85.513 166.474 84.8203 166.75C84.1328 167.021 83.3307 167.156 82.4141 167.156C81.487 167.156 80.6641 166.94 79.9453 166.508C79.2266 166.07 78.6693 165.451 78.2734 164.648C77.8828 163.846 77.6823 162.917 77.6719 161.859V160.867C77.6719 159.154 78.0703 157.826 78.8672 156.883C79.6693 155.94 80.7943 155.469 82.2422 155.469C83.4297 155.469 84.3854 155.773 85.1094 156.383C85.8333 156.987 86.276 157.846 86.4375 158.961H84.9375C84.6562 157.456 83.7604 156.703 82.25 156.703C81.2448 156.703 80.4818 157.057 79.9609 157.766C79.4453 158.469 79.1849 159.49 79.1797 160.828V161.758C79.1797 163.034 79.4714 164.049 80.0547 164.805C80.638 165.555 81.4271 165.93 82.4219 165.93C82.9844 165.93 83.4766 165.867 83.8984 165.742C84.3203 165.617 84.6693 165.406 84.9453 165.109V162.555H82.3125V161.336H86.4375V165.508ZM92.2266 167.156C91.0807 167.156 90.1484 166.781 89.4297 166.031C88.7109 165.276 88.3516 164.268 88.3516 163.008V162.742C88.3516 161.904 88.5104 161.156 88.8281 160.5C89.151 159.839 89.599 159.323 90.1719 158.953C90.75 158.578 91.375 158.391 92.0469 158.391C93.1458 158.391 94 158.753 94.6094 159.477C95.2188 160.201 95.5234 161.237 95.5234 162.586V163.188H89.7969C89.8177 164.021 90.0599 164.695 90.5234 165.211C90.9922 165.721 91.5859 165.977 92.3047 165.977C92.8151 165.977 93.2474 165.872 93.6016 165.664C93.9557 165.456 94.2656 165.18 94.5312 164.836L95.4141 165.523C94.7057 166.612 93.6432 167.156 92.2266 167.156ZM92.0469 159.578C91.4635 159.578 90.974 159.792 90.5781 160.219C90.1823 160.641 89.9375 161.234 89.8438 162H94.0781V161.891C94.0365 161.156 93.8385 160.589 93.4844 160.188C93.1302 159.781 92.651 159.578 92.0469 159.578ZM98.5625 158.547L98.6016 159.484C99.2214 158.755 100.057 158.391 101.109 158.391C102.292 158.391 103.096 158.844 103.523 159.75C103.805 159.344 104.169 159.016 104.617 158.766C105.07 158.516 105.604 158.391 106.219 158.391C108.073 158.391 109.016 159.372 109.047 161.336V167H107.602V161.422C107.602 160.818 107.464 160.367 107.188 160.07C106.911 159.768 106.448 159.617 105.797 159.617C105.26 159.617 104.815 159.779 104.461 160.102C104.107 160.419 103.901 160.849 103.844 161.391V167H102.391V161.461C102.391 160.232 101.789 159.617 100.586 159.617C99.638 159.617 98.9896 160.021 98.6406 160.828V167H97.1953V158.547H98.5625ZM118.391 162.867C118.391 164.159 118.094 165.198 117.5 165.984C116.906 166.766 116.109 167.156 115.109 167.156C114.042 167.156 113.216 166.779 112.633 166.023L112.562 167H111.234V155H112.68V159.477C113.263 158.753 114.068 158.391 115.094 158.391C116.12 158.391 116.924 158.779 117.508 159.555C118.096 160.331 118.391 161.393 118.391 162.742V162.867ZM116.945 162.703C116.945 161.719 116.755 160.958 116.375 160.422C115.995 159.885 115.448 159.617 114.734 159.617C113.781 159.617 113.096 160.06 112.68 160.945V164.602C113.122 165.487 113.812 165.93 114.75 165.93C115.443 165.93 115.982 165.661 116.367 165.125C116.753 164.589 116.945 163.781 116.945 162.703ZM125.438 167C125.354 166.833 125.286 166.536 125.234 166.109C124.562 166.807 123.76 167.156 122.828 167.156C121.995 167.156 121.31 166.922 120.773 166.453C120.242 165.979 119.977 165.38 119.977 164.656C119.977 163.776 120.31 163.094 120.977 162.609C121.648 162.12 122.591 161.875 123.805 161.875H125.211V161.211C125.211 160.706 125.06 160.305 124.758 160.008C124.456 159.706 124.01 159.555 123.422 159.555C122.906 159.555 122.474 159.685 122.125 159.945C121.776 160.206 121.602 160.521 121.602 160.891H120.148C120.148 160.469 120.297 160.062 120.594 159.672C120.896 159.276 121.302 158.964 121.812 158.734C122.328 158.505 122.893 158.391 123.508 158.391C124.482 158.391 125.245 158.635 125.797 159.125C126.349 159.609 126.635 160.279 126.656 161.133V165.023C126.656 165.799 126.755 166.417 126.953 166.875V167H125.438ZM123.039 165.898C123.492 165.898 123.922 165.781 124.328 165.547C124.734 165.312 125.029 165.008 125.211 164.633V162.898H124.078C122.307 162.898 121.422 163.417 121.422 164.453C121.422 164.906 121.573 165.26 121.875 165.516C122.177 165.771 122.565 165.898 123.039 165.898ZM130.492 167H129.047V155H130.492V167ZM134.383 167H132.938V155H134.383V167ZM141.922 167C141.839 166.833 141.771 166.536 141.719 166.109C141.047 166.807 140.245 167.156 139.312 167.156C138.479 167.156 137.794 166.922 137.258 166.453C136.727 165.979 136.461 165.38 136.461 164.656C136.461 163.776 136.794 163.094 137.461 162.609C138.133 162.12 139.076 161.875 140.289 161.875H141.695V161.211C141.695 160.706 141.544 160.305 141.242 160.008C140.94 159.706 140.495 159.555 139.906 159.555C139.391 159.555 138.958 159.685 138.609 159.945C138.26 160.206 138.086 160.521 138.086 160.891H136.633C136.633 160.469 136.781 160.062 137.078 159.672C137.38 159.276 137.786 158.964 138.297 158.734C138.812 158.505 139.378 158.391 139.992 158.391C140.966 158.391 141.729 158.635 142.281 159.125C142.833 159.609 143.12 160.279 143.141 161.133V165.023C143.141 165.799 143.24 166.417 143.438 166.875V167H141.922ZM139.523 165.898C139.977 165.898 140.406 165.781 140.812 165.547C141.219 165.312 141.513 165.008 141.695 164.633V162.898H140.562C138.792 162.898 137.906 163.417 137.906 164.453C137.906 164.906 138.057 165.26 138.359 165.516C138.661 165.771 139.049 165.898 139.523 165.898ZM145.359 169.266L144.539 168.703C145.029 168.021 145.284 167.318 145.305 166.594V165.289H146.719V166.422C146.719 166.948 146.589 167.474 146.328 168C146.073 168.526 145.75 168.948 145.359 169.266ZM157.508 155.625H159.016V163.68C159.016 164.768 158.688 165.62 158.031 166.234C157.38 166.849 156.51 167.156 155.422 167.156C154.292 167.156 153.411 166.867 152.781 166.289C152.151 165.711 151.836 164.901 151.836 163.859H153.336C153.336 164.51 153.513 165.018 153.867 165.383C154.227 165.747 154.745 165.93 155.422 165.93C156.042 165.93 156.542 165.734 156.922 165.344C157.307 164.953 157.503 164.406 157.508 163.703V155.625ZM166.562 167C166.479 166.833 166.411 166.536 166.359 166.109C165.688 166.807 164.885 167.156 163.953 167.156C163.12 167.156 162.435 166.922 161.898 166.453C161.367 165.979 161.102 165.38 161.102 164.656C161.102 163.776 161.435 163.094 162.102 162.609C162.773 162.12 163.716 161.875 164.93 161.875H166.336V161.211C166.336 160.706 166.185 160.305 165.883 160.008C165.581 159.706 165.135 159.555 164.547 159.555C164.031 159.555 163.599 159.685 163.25 159.945C162.901 160.206 162.727 160.521 162.727 160.891H161.273C161.273 160.469 161.422 160.062 161.719 159.672C162.021 159.276 162.427 158.964 162.938 158.734C163.453 158.505 164.018 158.391 164.633 158.391C165.607 158.391 166.37 158.635 166.922 159.125C167.474 159.609 167.76 160.279 167.781 161.133V165.023C167.781 165.799 167.88 166.417 168.078 166.875V167H166.562ZM164.164 165.898C164.617 165.898 165.047 165.781 165.453 165.547C165.859 165.312 166.154 165.008 166.336 164.633V162.898H165.203C163.432 162.898 162.547 163.417 162.547 164.453C162.547 164.906 162.698 165.26 163 165.516C163.302 165.771 163.69 165.898 164.164 165.898ZM174.133 159.844C173.914 159.807 173.677 159.789 173.422 159.789C172.474 159.789 171.831 160.193 171.492 161V167H170.047V158.547H171.453L171.477 159.523C171.951 158.768 172.622 158.391 173.492 158.391C173.773 158.391 173.987 158.427 174.133 158.5V159.844ZM174.961 162.703C174.961 161.406 175.268 160.365 175.883 159.578C176.497 158.786 177.302 158.391 178.297 158.391C179.286 158.391 180.07 158.729 180.648 159.406V155H182.094V167H180.766L180.695 166.094C180.117 166.802 179.312 167.156 178.281 167.156C177.302 167.156 176.503 166.755 175.883 165.953C175.268 165.151 174.961 164.104 174.961 162.812V162.703ZM176.406 162.867C176.406 163.826 176.604 164.576 177 165.117C177.396 165.659 177.943 165.93 178.641 165.93C179.557 165.93 180.227 165.518 180.648 164.695V160.812C180.216 160.016 179.552 159.617 178.656 159.617C177.948 159.617 177.396 159.891 177 160.438C176.604 160.984 176.406 161.794 176.406 162.867ZM185.914 167H184.469V158.547H185.914V167ZM184.352 156.305C184.352 156.07 184.422 155.872 184.562 155.711C184.708 155.549 184.922 155.469 185.203 155.469C185.484 155.469 185.698 155.549 185.844 155.711C185.99 155.872 186.062 156.07 186.062 156.305C186.062 156.539 185.99 156.734 185.844 156.891C185.698 157.047 185.484 157.125 185.203 157.125C184.922 157.125 184.708 157.047 184.562 156.891C184.422 156.734 184.352 156.539 184.352 156.305ZM189.594 158.547L189.633 159.484C190.253 158.755 191.089 158.391 192.141 158.391C193.323 158.391 194.128 158.844 194.555 159.75C194.836 159.344 195.201 159.016 195.648 158.766C196.102 158.516 196.635 158.391 197.25 158.391C199.104 158.391 200.047 159.372 200.078 161.336V167H198.633V161.422C198.633 160.818 198.495 160.367 198.219 160.07C197.943 159.768 197.479 159.617 196.828 159.617C196.292 159.617 195.846 159.779 195.492 160.102C195.138 160.419 194.932 160.849 194.875 161.391V167H193.422V161.461C193.422 160.232 192.82 159.617 191.617 159.617C190.669 159.617 190.021 160.021 189.672 160.828V167H188.227V158.547H189.594ZM212.742 164.031H207.977L206.906 167H205.359L209.703 155.625H211.016L215.367 167H213.828L212.742 164.031ZM208.43 162.797H212.297L210.359 157.477L208.43 162.797ZM218.031 158.547L218.07 159.484C218.69 158.755 219.526 158.391 220.578 158.391C221.76 158.391 222.565 158.844 222.992 159.75C223.273 159.344 223.638 159.016 224.086 158.766C224.539 158.516 225.073 158.391 225.688 158.391C227.542 158.391 228.484 159.372 228.516 161.336V167H227.07V161.422C227.07 160.818 226.932 160.367 226.656 160.07C226.38 159.768 225.917 159.617 225.266 159.617C224.729 159.617 224.284 159.779 223.93 160.102C223.576 160.419 223.37 160.849 223.312 161.391V167H221.859V161.461C221.859 160.232 221.258 159.617 220.055 159.617C219.107 159.617 218.458 160.021 218.109 160.828V167H216.664V158.547H218.031ZM234.211 167.156C233.065 167.156 232.133 166.781 231.414 166.031C230.695 165.276 230.336 164.268 230.336 163.008V162.742C230.336 161.904 230.495 161.156 230.812 160.5C231.135 159.839 231.583 159.323 232.156 158.953C232.734 158.578 233.359 158.391 234.031 158.391C235.13 158.391 235.984 158.753 236.594 159.477C237.203 160.201 237.508 161.237 237.508 162.586V163.188H231.781C231.802 164.021 232.044 164.695 232.508 165.211C232.977 165.721 233.57 165.977 234.289 165.977C234.799 165.977 235.232 165.872 235.586 165.664C235.94 165.456 236.25 165.18 236.516 164.836L237.398 165.523C236.69 166.612 235.628 167.156 234.211 167.156ZM234.031 159.578C233.448 159.578 232.958 159.792 232.562 160.219C232.167 160.641 231.922 161.234 231.828 162H236.062V161.891C236.021 161.156 235.823 160.589 235.469 160.188C235.115 159.781 234.635 159.578 234.031 159.578ZM234.734 155H236.484L234.391 157.297H233.227L234.734 155ZM243.273 159.844C243.055 159.807 242.818 159.789 242.562 159.789C241.615 159.789 240.971 160.193 240.633 161V167H239.188V158.547H240.594L240.617 159.523C241.091 158.768 241.763 158.391 242.633 158.391C242.914 158.391 243.128 158.427 243.273 158.5V159.844ZM246.18 167H244.734V158.547H246.18V167ZM244.617 156.305C244.617 156.07 244.688 155.872 244.828 155.711C244.974 155.549 245.188 155.469 245.469 155.469C245.75 155.469 245.964 155.549 246.109 155.711C246.255 155.872 246.328 156.07 246.328 156.305C246.328 156.539 246.255 156.734 246.109 156.891C245.964 157.047 245.75 157.125 245.469 157.125C245.188 157.125 244.974 157.047 244.828 156.891C244.688 156.734 244.617 156.539 244.617 156.305ZM251.891 165.977C252.406 165.977 252.857 165.82 253.242 165.508C253.628 165.195 253.841 164.805 253.883 164.336H255.25C255.224 164.82 255.057 165.281 254.75 165.719C254.443 166.156 254.031 166.505 253.516 166.766C253.005 167.026 252.464 167.156 251.891 167.156C250.74 167.156 249.823 166.773 249.141 166.008C248.464 165.237 248.125 164.185 248.125 162.852V162.609C248.125 161.786 248.276 161.055 248.578 160.414C248.88 159.773 249.312 159.276 249.875 158.922C250.443 158.568 251.112 158.391 251.883 158.391C252.831 158.391 253.617 158.674 254.242 159.242C254.872 159.81 255.208 160.547 255.25 161.453H253.883C253.841 160.906 253.633 160.458 253.258 160.109C252.888 159.755 252.43 159.578 251.883 159.578C251.148 159.578 250.578 159.844 250.172 160.375C249.771 160.901 249.57 161.664 249.57 162.664V162.938C249.57 163.911 249.771 164.661 250.172 165.188C250.573 165.714 251.146 165.977 251.891 165.977ZM262.094 167C262.01 166.833 261.943 166.536 261.891 166.109C261.219 166.807 260.417 167.156 259.484 167.156C258.651 167.156 257.966 166.922 257.43 166.453C256.898 165.979 256.633 165.38 256.633 164.656C256.633 163.776 256.966 163.094 257.633 162.609C258.305 162.12 259.247 161.875 260.461 161.875H261.867V161.211C261.867 160.706 261.716 160.305 261.414 160.008C261.112 159.706 260.667 159.555 260.078 159.555C259.562 159.555 259.13 159.685 258.781 159.945C258.432 160.206 258.258 160.521 258.258 160.891H256.805C256.805 160.469 256.953 160.062 257.25 159.672C257.552 159.276 257.958 158.964 258.469 158.734C258.984 158.505 259.549 158.391 260.164 158.391C261.138 158.391 261.901 158.635 262.453 159.125C263.005 159.609 263.292 160.279 263.312 161.133V165.023C263.312 165.799 263.411 166.417 263.609 166.875V167H262.094ZM259.695 165.898C260.148 165.898 260.578 165.781 260.984 165.547C261.391 165.312 261.685 165.008 261.867 164.633V162.898H260.734C258.964 162.898 258.078 163.417 258.078 164.453C258.078 164.906 258.229 165.26 258.531 165.516C258.833 165.771 259.221 165.898 259.695 165.898ZM10.0625 193H8.55469L2.82812 184.234V193H1.32031V181.625H2.82812L8.57031 190.43V181.625H10.0625V193ZM12.3594 184.227C12.3594 183.404 12.6042 182.74 13.0938 182.234C13.5833 181.724 14.2292 181.469 15.0312 181.469C15.8385 181.469 16.487 181.721 16.9766 182.227C17.4661 182.727 17.7109 183.409 17.7109 184.273V184.852C17.7109 185.68 17.4661 186.346 16.9766 186.852C16.4922 187.357 15.849 187.609 15.0469 187.609C14.2448 187.609 13.5964 187.357 13.1016 186.852C12.6068 186.346 12.3594 185.664 12.3594 184.805V184.227ZM13.6328 184.852C13.6328 185.372 13.7578 185.781 14.0078 186.078C14.263 186.375 14.6094 186.523 15.0469 186.523C15.4792 186.523 15.8177 186.375 16.0625 186.078C16.3125 185.776 16.4375 185.362 16.4375 184.836V184.227C16.4375 183.711 16.3099 183.305 16.0547 183.008C15.8047 182.711 15.4635 182.562 15.0312 182.562C14.6094 182.562 14.2734 182.706 14.0234 182.992C13.7734 183.279 13.6432 183.674 13.6328 184.18V184.852ZM31.0547 193H23.6016V191.961L27.5391 187.586C28.1224 186.924 28.5234 186.388 28.7422 185.977C28.9661 185.56 29.0781 185.13 29.0781 184.688C29.0781 184.094 28.8984 183.607 28.5391 183.227C28.1797 182.846 27.7005 182.656 27.1016 182.656C26.3828 182.656 25.8229 182.862 25.4219 183.273C25.026 183.68 24.8281 184.247 24.8281 184.977H23.3828C23.3828 183.93 23.7188 183.083 24.3906 182.438C25.0677 181.792 25.9714 181.469 27.1016 181.469C28.1589 181.469 28.9948 181.747 29.6094 182.305C30.224 182.857 30.5312 183.594 30.5312 184.516C30.5312 185.635 29.8177 186.969 28.3906 188.516L25.3438 191.82H31.0547V193ZM38.2578 181.617V182.844H37.9922C36.8672 182.865 35.9714 183.198 35.3047 183.844C34.638 184.49 34.2526 185.398 34.1484 186.57C34.7474 185.883 35.5651 185.539 36.6016 185.539C37.5911 185.539 38.3802 185.888 38.9688 186.586C39.5625 187.284 39.8594 188.185 39.8594 189.289C39.8594 190.461 39.5391 191.398 38.8984 192.102C38.263 192.805 37.4089 193.156 36.3359 193.156C35.2474 193.156 34.3646 192.74 33.6875 191.906C33.0104 191.068 32.6719 189.99 32.6719 188.672V188.117C32.6719 186.023 33.1172 184.424 34.0078 183.32C34.9036 182.211 36.2344 181.643 38 181.617H38.2578ZM36.3594 186.742C35.8646 186.742 35.4089 186.891 34.9922 187.188C34.5755 187.484 34.2865 187.857 34.125 188.305V188.836C34.125 189.773 34.3359 190.529 34.7578 191.102C35.1797 191.674 35.7057 191.961 36.3359 191.961C36.987 191.961 37.4974 191.721 37.8672 191.242C38.2422 190.763 38.4297 190.135 38.4297 189.359C38.4297 188.578 38.2396 187.948 37.8594 187.469C37.4844 186.984 36.9844 186.742 36.3594 186.742ZM48.7031 188.148C48.7031 189.841 48.4141 191.099 47.8359 191.922C47.2578 192.745 46.3542 193.156 45.125 193.156C43.9115 193.156 43.013 192.755 42.4297 191.953C41.8464 191.146 41.5443 189.943 41.5234 188.344V186.414C41.5234 184.742 41.8125 183.5 42.3906 182.688C42.9688 181.875 43.875 181.469 45.1094 181.469C46.3333 181.469 47.2344 181.862 47.8125 182.648C48.3906 183.43 48.6875 184.638 48.7031 186.273V188.148ZM47.2578 186.172C47.2578 184.948 47.0859 184.057 46.7422 183.5C46.3984 182.938 45.8542 182.656 45.1094 182.656C44.3698 182.656 43.8307 182.935 43.4922 183.492C43.1536 184.049 42.9792 184.906 42.9688 186.062V188.375C42.9688 189.604 43.1458 190.513 43.5 191.102C43.8594 191.685 44.401 191.977 45.125 191.977C45.8385 191.977 46.3672 191.701 46.7109 191.148C47.0599 190.596 47.2422 189.727 47.2578 188.539V186.172Z" fill="#6C6C80"/>
<path d="M4.69922 83.6602V90H1.73438V72.9375H8.26172C10.168 72.9375 11.6797 73.4336 12.7969 74.4258C13.9219 75.418 14.4844 76.7305 14.4844 78.3633C14.4844 80.0352 13.9336 81.3359 12.832 82.2656C11.7383 83.1953 10.2031 83.6602 8.22656 83.6602H4.69922ZM4.69922 81.2812H8.26172C9.31641 81.2812 10.1211 81.0352 10.6758 80.543C11.2305 80.043 11.5078 79.3242 11.5078 78.3867C11.5078 77.4648 11.2266 76.7305 10.6641 76.1836C10.1016 75.6289 9.32812 75.3438 8.34375 75.3281H4.69922V81.2812ZM24.2461 90C24.1211 89.7578 24.0117 89.3633 23.918 88.8164C23.0117 89.7617 21.9023 90.2344 20.5898 90.2344C19.3164 90.2344 18.2773 89.8711 17.4727 89.1445C16.668 88.418 16.2656 87.5195 16.2656 86.4492C16.2656 85.0977 16.7656 84.0625 17.7656 83.3438C18.7734 82.6172 20.2109 82.2539 22.0781 82.2539H23.8242V81.4219C23.8242 80.7656 23.6406 80.2422 23.2734 79.8516C22.9062 79.4531 22.3477 79.2539 21.5977 79.2539C20.9492 79.2539 20.418 79.418 20.0039 79.7461C19.5898 80.0664 19.3828 80.4766 19.3828 80.9766H16.5352C16.5352 80.2812 16.7656 79.6328 17.2266 79.0312C17.6875 78.4219 18.3125 77.9453 19.1016 77.6016C19.8984 77.2578 20.7852 77.0859 21.7617 77.0859C23.2461 77.0859 24.4297 77.4609 25.3125 78.2109C26.1953 78.9531 26.6484 80 26.6719 81.3516V87.0703C26.6719 88.2109 26.832 89.1211 27.1523 89.8008V90H24.2461ZM21.1172 87.9492C21.6797 87.9492 22.207 87.8125 22.6992 87.5391C23.1992 87.2656 23.5742 86.8984 23.8242 86.4375V84.0469H22.2891C21.2344 84.0469 20.4414 84.2305 19.9102 84.5977C19.3789 84.9648 19.1133 85.4844 19.1133 86.1562C19.1133 86.7031 19.293 87.1406 19.6523 87.4688C20.0195 87.7891 20.5078 87.9492 21.1172 87.9492ZM40.7578 83.7891C40.7578 85.75 40.3125 87.3164 39.4219 88.4883C38.5312 89.6523 37.3359 90.2344 35.8359 90.2344C34.4453 90.2344 33.332 89.7773 32.4961 88.8633V94.875H29.6484V77.3203H32.2734L32.3906 78.6094C33.2266 77.5938 34.3633 77.0859 35.8008 77.0859C37.3477 77.0859 38.5586 77.6641 39.4336 78.8203C40.3164 79.9688 40.7578 81.5664 40.7578 83.6133V83.7891ZM37.9219 83.543C37.9219 82.2773 37.668 81.2734 37.1602 80.5312C36.6602 79.7891 35.9414 79.418 35.0039 79.418C33.8398 79.418 33.0039 79.8984 32.4961 80.8594V86.4844C33.0117 87.4688 33.8555 87.9609 35.0273 87.9609C35.9336 87.9609 36.6406 87.5977 37.1484 86.8711C37.6641 86.1367 37.9219 85.0273 37.9219 83.543ZM48.7617 90.2344C46.957 90.2344 45.4922 89.668 44.3672 88.5352C43.25 87.3945 42.6914 85.8789 42.6914 83.9883V83.6367C42.6914 82.3711 42.9336 81.2422 43.418 80.25C43.9102 79.25 44.5977 78.4727 45.4805 77.918C46.3633 77.3633 47.3477 77.0859 48.4336 77.0859C50.1602 77.0859 51.4922 77.6367 52.4297 78.7383C53.375 79.8398 53.8477 81.3984 53.8477 83.4141V84.5625H45.5625C45.6484 85.6094 45.9961 86.4375 46.6055 87.0469C47.2227 87.6562 47.9961 87.9609 48.9258 87.9609C50.2305 87.9609 51.293 87.4336 52.1133 86.3789L53.6484 87.8438C53.1406 88.6016 52.4609 89.1914 51.6094 89.6133C50.7656 90.0273 49.8164 90.2344 48.7617 90.2344ZM48.4219 79.3711C47.6406 79.3711 47.0078 79.6445 46.5234 80.1914C46.0469 80.7383 45.7422 81.5 45.6094 82.4766H51.0352V82.2656C50.9727 81.3125 50.7188 80.5938 50.2734 80.1094C49.8281 79.6172 49.2109 79.3711 48.4219 79.3711ZM49.0664 72H52.3125L49.0664 75.5508H46.7812L49.0664 72ZM59.0977 90H56.25V77.3203H59.0977V90ZM56.0742 74.0273C56.0742 73.5898 56.2109 73.2266 56.4844 72.9375C56.7656 72.6484 57.1641 72.5039 57.6797 72.5039C58.1953 72.5039 58.5938 72.6484 58.875 72.9375C59.1562 73.2266 59.2969 73.5898 59.2969 74.0273C59.2969 74.457 59.1562 74.8164 58.875 75.1055C58.5938 75.3867 58.1953 75.5273 57.6797 75.5273C57.1641 75.5273 56.7656 75.3867 56.4844 75.1055C56.2109 74.8164 56.0742 74.457 56.0742 74.0273ZM69.3164 86.5547C69.3164 86.0469 69.1055 85.6602 68.6836 85.3945C68.2695 85.1289 67.5781 84.8945 66.6094 84.6914C65.6406 84.4883 64.832 84.2305 64.1836 83.918C62.7617 83.2305 62.0508 82.2344 62.0508 80.9297C62.0508 79.8359 62.5117 78.9219 63.4336 78.1875C64.3555 77.4531 65.5273 77.0859 66.9492 77.0859C68.4648 77.0859 69.6875 77.4609 70.6172 78.2109C71.5547 78.9609 72.0234 79.9336 72.0234 81.1289H69.1758C69.1758 80.582 68.9727 80.1289 68.5664 79.7695C68.1602 79.4023 67.6211 79.2188 66.9492 79.2188C66.3242 79.2188 65.8125 79.3633 65.4141 79.6523C65.0234 79.9414 64.8281 80.3281 64.8281 80.8125C64.8281 81.25 65.0117 81.5898 65.3789 81.832C65.7461 82.0742 66.4883 82.3203 67.6055 82.5703C68.7227 82.8125 69.5977 83.1055 70.2305 83.4492C70.8711 83.7852 71.3438 84.1914 71.6484 84.668C71.9609 85.1445 72.1172 85.7227 72.1172 86.4023C72.1172 87.543 71.6445 88.4688 70.6992 89.1797C69.7539 89.8828 68.5156 90.2344 66.9844 90.2344C65.9453 90.2344 65.0195 90.0469 64.207 89.6719C63.3945 89.2969 62.7617 88.7812 62.3086 88.125C61.8555 87.4688 61.6289 86.7617 61.6289 86.0039H64.3945C64.4336 86.6758 64.6875 87.1953 65.1562 87.5625C65.625 87.9219 66.2461 88.1016 67.0195 88.1016C67.7695 88.1016 68.3398 87.9609 68.7305 87.6797C69.1211 87.3906 69.3164 87.0156 69.3164 86.5547ZM86.168 90.2344C84.3633 90.2344 82.8984 89.668 81.7734 88.5352C80.6562 87.3945 80.0977 85.8789 80.0977 83.9883V83.6367C80.0977 82.3711 80.3398 81.2422 80.8242 80.25C81.3164 79.25 82.0039 78.4727 82.8867 77.918C83.7695 77.3633 84.7539 77.0859 85.8398 77.0859C87.5664 77.0859 88.8984 77.6367 89.8359 78.7383C90.7812 79.8398 91.2539 81.3984 91.2539 83.4141V84.5625H82.9688C83.0547 85.6094 83.4023 86.4375 84.0117 87.0469C84.6289 87.6562 85.4023 87.9609 86.332 87.9609C87.6367 87.9609 88.6992 87.4336 89.5195 86.3789L91.0547 87.8438C90.5469 88.6016 89.8672 89.1914 89.0156 89.6133C88.1719 90.0273 87.2227 90.2344 86.168 90.2344ZM85.8281 79.3711C85.0469 79.3711 84.4141 79.6445 83.9297 80.1914C83.4531 80.7383 83.1484 81.5 83.0156 82.4766H88.4414V82.2656C88.3789 81.3125 88.125 80.5938 87.6797 80.1094C87.2344 79.6172 86.6172 79.3711 85.8281 79.3711ZM102.691 83.6602V90H99.7266V72.9375H106.254C108.16 72.9375 109.672 73.4336 110.789 74.4258C111.914 75.418 112.477 76.7305 112.477 78.3633C112.477 80.0352 111.926 81.3359 110.824 82.2656C109.73 83.1953 108.195 83.6602 106.219 83.6602H102.691ZM102.691 81.2812H106.254C107.309 81.2812 108.113 81.0352 108.668 80.543C109.223 80.043 109.5 79.3242 109.5 78.3867C109.5 77.4648 109.219 76.7305 108.656 76.1836C108.094 75.6289 107.32 75.3438 106.336 75.3281H102.691V81.2812ZM122.238 90C122.113 89.7578 122.004 89.3633 121.91 88.8164C121.004 89.7617 119.895 90.2344 118.582 90.2344C117.309 90.2344 116.27 89.8711 115.465 89.1445C114.66 88.418 114.258 87.5195 114.258 86.4492C114.258 85.0977 114.758 84.0625 115.758 83.3438C116.766 82.6172 118.203 82.2539 120.07 82.2539H121.816V81.4219C121.816 80.7656 121.633 80.2422 121.266 79.8516C120.898 79.4531 120.34 79.2539 119.59 79.2539C118.941 79.2539 118.41 79.418 117.996 79.7461C117.582 80.0664 117.375 80.4766 117.375 80.9766H114.527C114.527 80.2812 114.758 79.6328 115.219 79.0312C115.68 78.4219 116.305 77.9453 117.094 77.6016C117.891 77.2578 118.777 77.0859 119.754 77.0859C121.238 77.0859 122.422 77.4609 123.305 78.2109C124.188 78.9531 124.641 80 124.664 81.3516V87.0703C124.664 88.2109 124.824 89.1211 125.145 89.8008V90H122.238ZM119.109 87.9492C119.672 87.9492 120.199 87.8125 120.691 87.5391C121.191 87.2656 121.566 86.8984 121.816 86.4375V84.0469H120.281C119.227 84.0469 118.434 84.2305 117.902 84.5977C117.371 84.9648 117.105 85.4844 117.105 86.1562C117.105 86.7031 117.285 87.1406 117.645 87.4688C118.012 87.7891 118.5 87.9492 119.109 87.9492ZM138.75 83.7891C138.75 85.75 138.305 87.3164 137.414 88.4883C136.523 89.6523 135.328 90.2344 133.828 90.2344C132.438 90.2344 131.324 89.7773 130.488 88.8633V94.875H127.641V77.3203H130.266L130.383 78.6094C131.219 77.5938 132.355 77.0859 133.793 77.0859C135.34 77.0859 136.551 77.6641 137.426 78.8203C138.309 79.9688 138.75 81.5664 138.75 83.6133V83.7891ZM135.914 83.543C135.914 82.2773 135.66 81.2734 135.152 80.5312C134.652 79.7891 133.934 79.418 132.996 79.418C131.832 79.418 130.996 79.8984 130.488 80.8594V86.4844C131.004 87.4688 131.848 87.9609 133.02 87.9609C133.926 87.9609 134.633 87.5977 135.141 86.8711C135.656 86.1367 135.914 85.0273 135.914 83.543ZM146.754 90.2344C144.949 90.2344 143.484 89.668 142.359 88.5352C141.242 87.3945 140.684 85.8789 140.684 83.9883V83.6367C140.684 82.3711 140.926 81.2422 141.41 80.25C141.902 79.25 142.59 78.4727 143.473 77.918C144.355 77.3633 145.34 77.0859 146.426 77.0859C148.152 77.0859 149.484 77.6367 150.422 78.7383C151.367 79.8398 151.84 81.3984 151.84 83.4141V84.5625H143.555C143.641 85.6094 143.988 86.4375 144.598 87.0469C145.215 87.6562 145.988 87.9609 146.918 87.9609C148.223 87.9609 149.285 87.4336 150.105 86.3789L151.641 87.8438C151.133 88.6016 150.453 89.1914 149.602 89.6133C148.758 90.0273 147.809 90.2344 146.754 90.2344ZM146.414 79.3711C145.633 79.3711 145 79.6445 144.516 80.1914C144.039 80.7383 143.734 81.5 143.602 82.4766H149.027V82.2656C148.965 81.3125 148.711 80.5938 148.266 80.1094C147.82 79.6172 147.203 79.3711 146.414 79.3711ZM157.09 90H154.242V72H157.09V90ZM167.777 90C167.652 89.7578 167.543 89.3633 167.449 88.8164C166.543 89.7617 165.434 90.2344 164.121 90.2344C162.848 90.2344 161.809 89.8711 161.004 89.1445C160.199 88.418 159.797 87.5195 159.797 86.4492C159.797 85.0977 160.297 84.0625 161.297 83.3438C162.305 82.6172 163.742 82.2539 165.609 82.2539H167.355V81.4219C167.355 80.7656 167.172 80.2422 166.805 79.8516C166.438 79.4531 165.879 79.2539 165.129 79.2539C164.48 79.2539 163.949 79.418 163.535 79.7461C163.121 80.0664 162.914 80.4766 162.914 80.9766H160.066C160.066 80.2812 160.297 79.6328 160.758 79.0312C161.219 78.4219 161.844 77.9453 162.633 77.6016C163.43 77.2578 164.316 77.0859 165.293 77.0859C166.777 77.0859 167.961 77.4609 168.844 78.2109C169.727 78.9531 170.18 80 170.203 81.3516V87.0703C170.203 88.2109 170.363 89.1211 170.684 89.8008V90H167.777ZM164.648 87.9492C165.211 87.9492 165.738 87.8125 166.23 87.5391C166.73 87.2656 167.105 86.8984 167.355 86.4375V84.0469H165.82C164.766 84.0469 163.973 84.2305 163.441 84.5977C162.91 84.9648 162.645 85.4844 162.645 86.1562C162.645 86.7031 162.824 87.1406 163.184 87.4688C163.551 87.7891 164.039 87.9492 164.648 87.9492ZM169.688 72.2578C169.688 73.1172 169.438 73.832 168.938 74.4023C168.445 74.9727 167.824 75.2578 167.074 75.2578C166.77 75.2578 166.504 75.2266 166.277 75.1641C166.059 75.0938 165.742 74.9414 165.328 74.707C164.922 74.4727 164.633 74.332 164.461 74.2852C164.297 74.2383 164.113 74.2148 163.91 74.2148C163.613 74.2148 163.359 74.3281 163.148 74.5547C162.945 74.7734 162.844 75.0625 162.844 75.4219L161.098 75.3281C161.098 74.4688 161.344 73.7461 161.836 73.1602C162.336 72.5742 162.957 72.2812 163.699 72.2812C164.145 72.2812 164.68 72.457 165.305 72.8086C165.938 73.1602 166.457 73.3359 166.863 73.3359C167.16 73.3359 167.414 73.2266 167.625 73.0078C167.836 72.7812 167.941 72.4844 167.941 72.1172L169.688 72.2578ZM172.652 83.543C172.652 82.3008 172.898 81.1836 173.391 80.1914C173.883 79.1914 174.574 78.4258 175.465 77.8945C176.355 77.3555 177.379 77.0859 178.535 77.0859C180.246 77.0859 181.633 77.6367 182.695 78.7383C183.766 79.8398 184.344 81.3008 184.43 83.1211L184.441 83.7891C184.441 85.0391 184.199 86.1562 183.715 87.1406C183.238 88.125 182.551 88.8867 181.652 89.4258C180.762 89.9648 179.73 90.2344 178.559 90.2344C176.77 90.2344 175.336 89.6406 174.258 88.4531C173.188 87.2578 172.652 85.668 172.652 83.6836V83.543ZM175.5 83.7891C175.5 85.0938 175.77 86.1172 176.309 86.8594C176.848 87.5938 177.598 87.9609 178.559 87.9609C179.52 87.9609 180.266 87.5859 180.797 86.8359C181.336 86.0859 181.605 84.9883 181.605 83.543C181.605 82.2617 181.328 81.2461 180.773 80.4961C180.227 79.7461 179.48 79.3711 178.535 79.3711C177.605 79.3711 176.867 79.7422 176.32 80.4844C175.773 81.2188 175.5 82.3203 175.5 83.7891Z" fill="#34CB79"/>
</svg>
