<svg width="265" height="235" viewBox="0 0 265 235" fill="none" xmlns="http://www.w3.org/2000/svg">
<path d="M14.256 34.504C10.2 34.504 7.104 33.376 4.968 31.12C2.856 28.864 1.8 25.66 1.8 21.508C1.8 19.444 2.124 17.608 2.772 16C3.42 14.368 4.308 13 5.436 11.896C6.564 10.768 7.908 9.916 9.468 9.34C11.028 8.764 12.72 8.476 14.544 8.476C15.6 8.476 16.56 8.56 17.424 8.728C18.288 8.872 19.044 9.052 19.692 9.268C20.34 9.46 20.88 9.664 21.312 9.88C21.744 10.096 22.056 10.264 22.248 10.384L20.628 14.92C19.86 14.512 18.96 14.164 17.928 13.876C16.92 13.588 15.768 13.444 14.472 13.444C13.608 13.444 12.756 13.588 11.916 13.876C11.1 14.164 10.368 14.632 9.72 15.28C9.096 15.904 8.592 16.72 8.208 17.728C7.824 18.736 7.632 19.96 7.632 21.4C7.632 22.552 7.752 23.632 7.992 24.64C8.256 25.624 8.664 26.476 9.216 27.196C9.792 27.916 10.536 28.492 11.448 28.924C12.36 29.332 13.464 29.536 14.76 29.536C15.576 29.536 16.308 29.488 16.956 29.392C17.604 29.296 18.18 29.188 18.684 29.068C19.188 28.924 19.632 28.768 20.016 28.6C20.4 28.432 20.748 28.276 21.06 28.132L22.608 32.632C21.816 33.112 20.7 33.544 19.26 33.928C17.82 34.312 16.152 34.504 14.256 34.504ZM43.1539 24.496C43.1539 25.984 42.9379 27.352 42.5059 28.6C42.0739 29.824 41.4499 30.88 40.6339 31.768C39.8179 32.632 38.8339 33.304 37.6819 33.784C36.5539 34.264 35.2819 34.504 33.8659 34.504C32.4739 34.504 31.2019 34.264 30.0499 33.784C28.9219 33.304 27.9499 32.632 27.1339 31.768C26.3179 30.88 25.6819 29.824 25.2259 28.6C24.7699 27.352 24.5419 25.984 24.5419 24.496C24.5419 23.008 24.7699 21.652 25.2259 20.428C25.7059 19.204 26.3539 18.16 27.1699 17.296C28.0099 16.432 28.9939 15.76 30.1219 15.28C31.2739 14.8 32.5219 14.56 33.8659 14.56C35.2339 14.56 36.4819 14.8 37.6099 15.28C38.7619 15.76 39.7459 16.432 40.5619 17.296C41.3779 18.16 42.0139 19.204 42.4699 20.428C42.9259 21.652 43.1539 23.008 43.1539 24.496ZM37.6819 24.496C37.6819 22.84 37.3459 21.544 36.6739 20.608C36.0259 19.648 35.0899 19.168 33.8659 19.168C32.6419 19.168 31.6939 19.648 31.0219 20.608C30.3499 21.544 30.0139 22.84 30.0139 24.496C30.0139 26.152 30.3499 27.472 31.0219 28.456C31.6939 29.416 32.6419 29.896 33.8659 29.896C35.0899 29.896 36.0259 29.416 36.6739 28.456C37.3459 27.472 37.6819 26.152 37.6819 24.496ZM54.8691 34.36C53.3091 34.336 52.0371 34.168 51.0531 33.856C50.0931 33.544 49.3251 33.112 48.7491 32.56C48.1971 31.984 47.8131 31.3 47.5971 30.508C47.4051 29.692 47.3091 28.78 47.3091 27.772V6.928L52.6731 6.064V26.692C52.6731 27.172 52.7091 27.604 52.7811 27.988C52.8531 28.372 52.9851 28.696 53.1771 28.96C53.3931 29.224 53.6931 29.44 54.0771 29.608C54.4611 29.776 54.9771 29.884 55.6251 29.932L54.8691 34.36ZM57.7997 24.676C57.7997 22.996 58.0517 21.532 58.5557 20.284C59.0837 19.012 59.7677 17.956 60.6077 17.116C61.4477 16.276 62.4077 15.64 63.4877 15.208C64.5917 14.776 65.7197 14.56 66.8717 14.56C69.5597 14.56 71.6837 15.388 73.2437 17.044C74.8037 18.676 75.5837 21.088 75.5837 24.28C75.5837 24.592 75.5717 24.94 75.5477 25.324C75.5237 25.684 75.4997 26.008 75.4757 26.296H63.3077C63.4277 27.4 63.9437 28.276 64.8557 28.924C65.7677 29.572 66.9917 29.896 68.5277 29.896C69.5117 29.896 70.4717 29.812 71.4077 29.644C72.3677 29.452 73.1477 29.224 73.7477 28.96L74.4677 33.316C74.1797 33.46 73.7957 33.604 73.3157 33.748C72.8357 33.892 72.2957 34.012 71.6957 34.108C71.1197 34.228 70.4957 34.324 69.8237 34.396C69.1517 34.468 68.4797 34.504 67.8077 34.504C66.1037 34.504 64.6157 34.252 63.3437 33.748C62.0957 33.244 61.0517 32.56 60.2117 31.696C59.3957 30.808 58.7837 29.764 58.3757 28.564C57.9917 27.364 57.7997 26.068 57.7997 24.676ZM70.3997 22.624C70.3757 22.168 70.2917 21.724 70.1477 21.292C70.0277 20.86 69.8237 20.476 69.5357 20.14C69.2717 19.804 68.9237 19.528 68.4917 19.312C68.0837 19.096 67.5677 18.988 66.9437 18.988C66.3437 18.988 65.8277 19.096 65.3957 19.312C64.9637 19.504 64.6037 19.768 64.3157 20.104C64.0277 20.44 63.7997 20.836 63.6317 21.292C63.4877 21.724 63.3797 22.168 63.3077 22.624H70.3997ZM78.8231 24.532C78.8231 23.164 79.0391 21.88 79.4711 20.68C79.9271 19.456 80.5751 18.4 81.4151 17.512C82.2551 16.6 83.2751 15.88 84.4751 15.352C85.6751 14.824 87.0431 14.56 88.5791 14.56C89.5871 14.56 90.5111 14.656 91.3511 14.848C92.1911 15.016 93.0071 15.268 93.7991 15.604L92.6831 19.888C92.1791 19.696 91.6271 19.528 91.0271 19.384C90.4271 19.24 89.7551 19.168 89.0111 19.168C87.4271 19.168 86.2391 19.66 85.4471 20.644C84.6791 21.628 84.2951 22.924 84.2951 24.532C84.2951 26.236 84.6551 27.556 85.3751 28.492C86.1191 29.428 87.4031 29.896 89.2271 29.896C89.8751 29.896 90.5711 29.836 91.3151 29.716C92.0591 29.596 92.7431 29.404 93.3671 29.14L94.1231 33.532C93.4991 33.796 92.7191 34.024 91.7831 34.216C90.8471 34.408 89.8151 34.504 88.6871 34.504C86.9591 34.504 85.4711 34.252 84.2231 33.748C82.9751 33.22 81.9431 32.512 81.1271 31.624C80.3351 30.736 79.7471 29.692 79.3631 28.492C79.0031 27.268 78.8231 25.948 78.8231 24.532ZM97.5431 10.348L102.907 9.484V15.064H109.351V19.528H102.907V26.188C102.907 27.316 103.099 28.216 103.483 28.888C103.891 29.56 104.695 29.896 105.895 29.896C106.471 29.896 107.059 29.848 107.659 29.752C108.283 29.632 108.847 29.476 109.351 29.284L110.107 33.46C109.459 33.724 108.739 33.952 107.947 34.144C107.155 34.336 106.183 34.432 105.031 34.432C103.567 34.432 102.355 34.24 101.395 33.856C100.435 33.448 99.6671 32.896 99.0911 32.2C98.5151 31.48 98.1071 30.616 97.8671 29.608C97.6511 28.6 97.5431 27.484 97.5431 26.26V10.348ZM130.728 24.496C130.728 25.984 130.512 27.352 130.08 28.6C129.648 29.824 129.024 30.88 128.208 31.768C127.392 32.632 126.408 33.304 125.256 33.784C124.128 34.264 122.856 34.504 121.44 34.504C120.048 34.504 118.776 34.264 117.624 33.784C116.496 33.304 115.524 32.632 114.708 31.768C113.892 30.88 113.256 29.824 112.8 28.6C112.344 27.352 112.116 25.984 112.116 24.496C112.116 23.008 112.344 21.652 112.8 20.428C113.28 19.204 113.928 18.16 114.744 17.296C115.584 16.432 116.568 15.76 117.696 15.28C118.848 14.8 120.096 14.56 121.44 14.56C122.808 14.56 124.056 14.8 125.184 15.28C126.336 15.76 127.32 16.432 128.136 17.296C128.952 18.16 129.588 19.204 130.044 20.428C130.5 21.652 130.728 23.008 130.728 24.496ZM125.256 24.496C125.256 22.84 124.92 21.544 124.248 20.608C123.6 19.648 122.664 19.168 121.44 19.168C120.216 19.168 119.268 19.648 118.596 20.608C117.924 21.544 117.588 22.84 117.588 24.496C117.588 26.152 117.924 27.472 118.596 28.456C119.268 29.416 120.216 29.896 121.44 29.896C122.664 29.896 123.6 29.416 124.248 28.456C124.92 27.472 125.256 26.152 125.256 24.496ZM146.295 19.816C145.815 19.696 145.251 19.576 144.603 19.456C143.955 19.312 143.259 19.24 142.515 19.24C142.179 19.24 141.771 19.276 141.291 19.348C140.835 19.396 140.487 19.456 140.247 19.528V34H134.883V16.072C135.843 15.736 136.971 15.424 138.267 15.136C139.587 14.824 141.051 14.668 142.659 14.668C142.947 14.668 143.295 14.692 143.703 14.74C144.111 14.764 144.519 14.812 144.927 14.884C145.335 14.932 145.743 15.004 146.151 15.1C146.559 15.172 146.907 15.268 147.195 15.388L146.295 19.816ZM155.435 34H150.071V15.064H155.435V34ZM155.939 9.592C155.939 10.576 155.615 11.356 154.967 11.932C154.343 12.484 153.599 12.76 152.735 12.76C151.871 12.76 151.115 12.484 150.467 11.932C149.843 11.356 149.531 10.576 149.531 9.592C149.531 8.608 149.843 7.84 150.467 7.288C151.115 6.712 151.871 6.424 152.735 6.424C153.599 6.424 154.343 6.712 154.967 7.288C155.615 7.84 155.939 8.608 155.939 9.592ZM167.713 30.256C168.241 30.256 168.745 30.244 169.225 30.22C169.705 30.196 170.089 30.16 170.377 30.112V26.044C170.161 25.996 169.837 25.948 169.405 25.9C168.973 25.852 168.577 25.828 168.217 25.828C167.713 25.828 167.233 25.864 166.777 25.936C166.345 25.984 165.961 26.092 165.625 26.26C165.289 26.428 165.025 26.656 164.833 26.944C164.641 27.232 164.545 27.592 164.545 28.024C164.545 28.864 164.821 29.452 165.373 29.788C165.949 30.1 166.729 30.256 167.713 30.256ZM167.281 14.56C168.865 14.56 170.185 14.74 171.241 15.1C172.297 15.46 173.137 15.976 173.761 16.648C174.409 17.32 174.865 18.136 175.129 19.096C175.393 20.056 175.525 21.124 175.525 22.3V33.46C174.757 33.628 173.689 33.82 172.321 34.036C170.953 34.276 169.297 34.396 167.353 34.396C166.129 34.396 165.013 34.288 164.005 34.072C163.021 33.856 162.169 33.508 161.449 33.028C160.729 32.524 160.177 31.876 159.793 31.084C159.409 30.292 159.217 29.32 159.217 28.168C159.217 27.064 159.433 26.128 159.865 25.36C160.321 24.592 160.921 23.98 161.665 23.524C162.409 23.068 163.261 22.744 164.221 22.552C165.181 22.336 166.177 22.228 167.209 22.228C167.905 22.228 168.517 22.264 169.045 22.336C169.597 22.384 170.041 22.456 170.377 22.552V22.048C170.377 21.136 170.101 20.404 169.549 19.852C168.997 19.3 168.037 19.024 166.669 19.024C165.757 19.024 164.857 19.096 163.969 19.24C163.081 19.36 162.313 19.54 161.665 19.78L160.981 15.46C161.293 15.364 161.677 15.268 162.133 15.172C162.613 15.052 163.129 14.956 163.681 14.884C164.233 14.788 164.809 14.716 165.409 14.668C166.033 14.596 166.657 14.56 167.281 14.56Z" fill="#322153"/>
<path d="M5.49219 170.398H2.82031V175H1.3125V163.625H5.07812C6.35938 163.625 7.34375 163.917 8.03125 164.5C8.72396 165.083 9.07031 165.932 9.07031 167.047C9.07031 167.755 8.8776 168.372 8.49219 168.898C8.11198 169.424 7.58073 169.818 6.89844 170.078L9.57031 174.906V175H7.96094L5.49219 170.398ZM2.82031 169.172H5.125C5.86979 169.172 6.46094 168.979 6.89844 168.594C7.34115 168.208 7.5625 167.693 7.5625 167.047C7.5625 166.344 7.35156 165.805 6.92969 165.43C6.51302 165.055 5.90885 164.865 5.11719 164.859H2.82031V169.172ZM12.5234 175H11.0781V166.547H12.5234V175ZM10.9609 164.305C10.9609 164.07 11.0312 163.872 11.1719 163.711C11.3177 163.549 11.5312 163.469 11.8125 163.469C12.0938 163.469 12.3073 163.549 12.4531 163.711C12.599 163.872 12.6719 164.07 12.6719 164.305C12.6719 164.539 12.599 164.734 12.4531 164.891C12.3073 165.047 12.0938 165.125 11.8125 165.125C11.5312 165.125 11.3177 165.047 11.1719 164.891C11.0312 164.734 10.9609 164.539 10.9609 164.305ZM14.4609 170.695C14.4609 169.867 14.6224 169.122 14.9453 168.461C15.2734 167.799 15.7266 167.289 16.3047 166.93C16.888 166.57 17.5521 166.391 18.2969 166.391C19.4479 166.391 20.3776 166.789 21.0859 167.586C21.7995 168.383 22.1562 169.443 22.1562 170.766V170.867C22.1562 171.69 21.9974 172.43 21.6797 173.086C21.3672 173.737 20.9167 174.245 20.3281 174.609C19.7448 174.974 19.0729 175.156 18.3125 175.156C17.1667 175.156 16.237 174.758 15.5234 173.961C14.8151 173.164 14.4609 172.109 14.4609 170.797V170.695ZM15.9141 170.867C15.9141 171.805 16.1302 172.557 16.5625 173.125C17 173.693 17.5833 173.977 18.3125 173.977C19.0469 173.977 19.6302 173.69 20.0625 173.117C20.4948 172.539 20.7109 171.732 20.7109 170.695C20.7109 169.768 20.4896 169.018 20.0469 168.445C19.6094 167.867 19.026 167.578 18.2969 167.578C17.5833 167.578 17.0078 167.862 16.5703 168.43C16.1328 168.997 15.9141 169.81 15.9141 170.867ZM27.5859 170.703C27.5859 169.406 27.8932 168.365 28.5078 167.578C29.1224 166.786 29.9271 166.391 30.9219 166.391C31.9115 166.391 32.6953 166.729 33.2734 167.406V163H34.7188V175H33.3906L33.3203 174.094C32.7422 174.802 31.9375 175.156 30.9062 175.156C29.9271 175.156 29.1276 174.755 28.5078 173.953C27.8932 173.151 27.5859 172.104 27.5859 170.812V170.703ZM29.0312 170.867C29.0312 171.826 29.2292 172.576 29.625 173.117C30.0208 173.659 30.5677 173.93 31.2656 173.93C32.1823 173.93 32.8516 173.518 33.2734 172.695V168.812C32.8411 168.016 32.1771 167.617 31.2812 167.617C30.5729 167.617 30.0208 167.891 29.625 168.438C29.2292 168.984 29.0312 169.794 29.0312 170.867ZM36.5859 170.695C36.5859 169.867 36.7474 169.122 37.0703 168.461C37.3984 167.799 37.8516 167.289 38.4297 166.93C39.013 166.57 39.6771 166.391 40.4219 166.391C41.5729 166.391 42.5026 166.789 43.2109 167.586C43.9245 168.383 44.2812 169.443 44.2812 170.766V170.867C44.2812 171.69 44.1224 172.43 43.8047 173.086C43.4922 173.737 43.0417 174.245 42.4531 174.609C41.8698 174.974 41.1979 175.156 40.4375 175.156C39.2917 175.156 38.362 174.758 37.6484 173.961C36.9401 173.164 36.5859 172.109 36.5859 170.797V170.695ZM38.0391 170.867C38.0391 171.805 38.2552 172.557 38.6875 173.125C39.125 173.693 39.7083 173.977 40.4375 173.977C41.1719 173.977 41.7552 173.69 42.1875 173.117C42.6198 172.539 42.8359 171.732 42.8359 170.695C42.8359 169.768 42.6146 169.018 42.1719 168.445C41.7344 167.867 41.151 167.578 40.4219 167.578C39.7083 167.578 39.1328 167.862 38.6953 168.43C38.2578 168.997 38.0391 169.81 38.0391 170.867ZM53.6406 169.93C52.3542 169.56 51.4167 169.107 50.8281 168.57C50.2448 168.029 49.9531 167.362 49.9531 166.57C49.9531 165.674 50.3099 164.935 51.0234 164.352C51.7422 163.763 52.6745 163.469 53.8203 163.469C54.6016 163.469 55.2969 163.62 55.9062 163.922C56.5208 164.224 56.9948 164.641 57.3281 165.172C57.6667 165.703 57.8359 166.284 57.8359 166.914H56.3281C56.3281 166.227 56.1094 165.688 55.6719 165.297C55.2344 164.901 54.6172 164.703 53.8203 164.703C53.0807 164.703 52.5026 164.867 52.0859 165.195C51.6745 165.518 51.4688 165.969 51.4688 166.547C51.4688 167.01 51.6641 167.404 52.0547 167.727C52.4505 168.044 53.1198 168.336 54.0625 168.602C55.0104 168.867 55.75 169.161 56.2812 169.484C56.8177 169.802 57.2135 170.174 57.4688 170.602C57.7292 171.029 57.8594 171.531 57.8594 172.109C57.8594 173.031 57.5 173.771 56.7812 174.328C56.0625 174.88 55.1016 175.156 53.8984 175.156C53.1172 175.156 52.388 175.008 51.7109 174.711C51.0339 174.409 50.5104 173.997 50.1406 173.477C49.776 172.956 49.5938 172.365 49.5938 171.703H51.1016C51.1016 172.391 51.3542 172.935 51.8594 173.336C52.3698 173.732 53.0495 173.93 53.8984 173.93C54.6901 173.93 55.2969 173.768 55.7188 173.445C56.1406 173.122 56.3516 172.682 56.3516 172.125C56.3516 171.568 56.1562 171.138 55.7656 170.836C55.375 170.529 54.6667 170.227 53.6406 169.93ZM64.7812 174.164C64.2188 174.826 63.3932 175.156 62.3047 175.156C61.4036 175.156 60.7161 174.896 60.2422 174.375C59.7734 173.849 59.5365 173.073 59.5312 172.047V166.547H60.9766V172.008C60.9766 173.289 61.4974 173.93 62.5391 173.93C63.6432 173.93 64.3776 173.518 64.7422 172.695V166.547H66.1875V175H64.8125L64.7812 174.164ZM69.9609 175H68.5156V163H69.9609V175ZM72.2344 177.266L71.4141 176.703C71.9036 176.021 72.1589 175.318 72.1797 174.594V173.289H73.5938V174.422C73.5938 174.948 73.4635 175.474 73.2031 176C72.9479 176.526 72.625 176.948 72.2344 177.266ZM82.9688 169.93C81.6823 169.56 80.7448 169.107 80.1562 168.57C79.5729 168.029 79.2812 167.362 79.2812 166.57C79.2812 165.674 79.638 164.935 80.3516 164.352C81.0703 163.763 82.0026 163.469 83.1484 163.469C83.9297 163.469 84.625 163.62 85.2344 163.922C85.849 164.224 86.3229 164.641 86.6562 165.172C86.9948 165.703 87.1641 166.284 87.1641 166.914H85.6562C85.6562 166.227 85.4375 165.688 85 165.297C84.5625 164.901 83.9453 164.703 83.1484 164.703C82.4089 164.703 81.8307 164.867 81.4141 165.195C81.0026 165.518 80.7969 165.969 80.7969 166.547C80.7969 167.01 80.9922 167.404 81.3828 167.727C81.7786 168.044 82.4479 168.336 83.3906 168.602C84.3385 168.867 85.0781 169.161 85.6094 169.484C86.1458 169.802 86.5417 170.174 86.7969 170.602C87.0573 171.029 87.1875 171.531 87.1875 172.109C87.1875 173.031 86.8281 173.771 86.1094 174.328C85.3906 174.88 84.4297 175.156 83.2266 175.156C82.4453 175.156 81.7161 175.008 81.0391 174.711C80.362 174.409 79.8385 173.997 79.4688 173.477C79.1042 172.956 78.9219 172.365 78.9219 171.703H80.4297C80.4297 172.391 80.6823 172.935 81.1875 173.336C81.6979 173.732 82.3776 173.93 83.2266 173.93C84.0182 173.93 84.625 173.768 85.0469 173.445C85.4688 173.122 85.6797 172.682 85.6797 172.125C85.6797 171.568 85.4844 171.138 85.0938 170.836C84.7031 170.529 83.9948 170.227 82.9688 169.93ZM94.1094 175C94.026 174.833 93.9583 174.536 93.9062 174.109C93.2344 174.807 92.4323 175.156 91.5 175.156C90.6667 175.156 89.9818 174.922 89.4453 174.453C88.9141 173.979 88.6484 173.38 88.6484 172.656C88.6484 171.776 88.9818 171.094 89.6484 170.609C90.3203 170.12 91.263 169.875 92.4766 169.875H93.8828V169.211C93.8828 168.706 93.7318 168.305 93.4297 168.008C93.1276 167.706 92.6823 167.555 92.0938 167.555C91.5781 167.555 91.1458 167.685 90.7969 167.945C90.4479 168.206 90.2734 168.521 90.2734 168.891H88.8203C88.8203 168.469 88.9688 168.062 89.2656 167.672C89.5677 167.276 89.974 166.964 90.4844 166.734C91 166.505 91.5651 166.391 92.1797 166.391C93.1536 166.391 93.9167 166.635 94.4688 167.125C95.0208 167.609 95.3073 168.279 95.3281 169.133V173.023C95.3281 173.799 95.4271 174.417 95.625 174.875V175H94.1094ZM91.7109 173.898C92.1641 173.898 92.5938 173.781 93 173.547C93.4062 173.312 93.7005 173.008 93.8828 172.633V170.898H92.75C90.9792 170.898 90.0938 171.417 90.0938 172.453C90.0938 172.906 90.2448 173.26 90.5469 173.516C90.849 173.771 91.237 173.898 91.7109 173.898ZM98.9609 166.547L99.0078 167.609C99.6536 166.797 100.497 166.391 101.539 166.391C103.326 166.391 104.227 167.398 104.242 169.414V175H102.797V169.406C102.792 168.797 102.651 168.346 102.375 168.055C102.104 167.763 101.68 167.617 101.102 167.617C100.633 167.617 100.221 167.742 99.8672 167.992C99.513 168.242 99.237 168.57 99.0391 168.977V175H97.5938V166.547H98.9609ZM108.383 164.5V166.547H109.961V167.664H108.383V172.906C108.383 173.245 108.453 173.5 108.594 173.672C108.734 173.839 108.974 173.922 109.312 173.922C109.479 173.922 109.708 173.891 110 173.828V175C109.62 175.104 109.25 175.156 108.891 175.156C108.245 175.156 107.758 174.961 107.43 174.57C107.102 174.18 106.938 173.625 106.938 172.906V167.664H105.398V166.547H106.938V164.5H108.383ZM116.875 175C116.792 174.833 116.724 174.536 116.672 174.109C116 174.807 115.198 175.156 114.266 175.156C113.432 175.156 112.747 174.922 112.211 174.453C111.68 173.979 111.414 173.38 111.414 172.656C111.414 171.776 111.747 171.094 112.414 170.609C113.086 170.12 114.029 169.875 115.242 169.875H116.648V169.211C116.648 168.706 116.497 168.305 116.195 168.008C115.893 167.706 115.448 167.555 114.859 167.555C114.344 167.555 113.911 167.685 113.562 167.945C113.214 168.206 113.039 168.521 113.039 168.891H111.586C111.586 168.469 111.734 168.062 112.031 167.672C112.333 167.276 112.74 166.964 113.25 166.734C113.766 166.505 114.331 166.391 114.945 166.391C115.919 166.391 116.682 166.635 117.234 167.125C117.786 167.609 118.073 168.279 118.094 169.133V173.023C118.094 173.799 118.193 174.417 118.391 174.875V175H116.875ZM114.477 173.898C114.93 173.898 115.359 173.781 115.766 173.547C116.172 173.312 116.466 173.008 116.648 172.633V170.898H115.516C113.745 170.898 112.859 171.417 112.859 172.453C112.859 172.906 113.01 173.26 113.312 173.516C113.615 173.771 114.003 173.898 114.477 173.898ZM132.922 171.391C132.781 172.594 132.336 173.523 131.586 174.18C130.841 174.831 129.849 175.156 128.609 175.156C127.266 175.156 126.188 174.674 125.375 173.711C124.568 172.747 124.164 171.458 124.164 169.844V168.75C124.164 167.693 124.352 166.763 124.727 165.961C125.107 165.159 125.643 164.544 126.336 164.117C127.029 163.685 127.831 163.469 128.742 163.469C129.951 163.469 130.919 163.807 131.648 164.484C132.378 165.156 132.802 166.089 132.922 167.281H131.414C131.284 166.375 131 165.719 130.562 165.312C130.13 164.906 129.523 164.703 128.742 164.703C127.784 164.703 127.031 165.057 126.484 165.766C125.943 166.474 125.672 167.482 125.672 168.789V169.891C125.672 171.125 125.93 172.107 126.445 172.836C126.961 173.565 127.682 173.93 128.609 173.93C129.443 173.93 130.081 173.742 130.523 173.367C130.971 172.987 131.268 172.328 131.414 171.391H132.922ZM139.969 175C139.885 174.833 139.818 174.536 139.766 174.109C139.094 174.807 138.292 175.156 137.359 175.156C136.526 175.156 135.841 174.922 135.305 174.453C134.773 173.979 134.508 173.38 134.508 172.656C134.508 171.776 134.841 171.094 135.508 170.609C136.18 170.12 137.122 169.875 138.336 169.875H139.742V169.211C139.742 168.706 139.591 168.305 139.289 168.008C138.987 167.706 138.542 167.555 137.953 167.555C137.438 167.555 137.005 167.685 136.656 167.945C136.307 168.206 136.133 168.521 136.133 168.891H134.68C134.68 168.469 134.828 168.062 135.125 167.672C135.427 167.276 135.833 166.964 136.344 166.734C136.859 166.505 137.424 166.391 138.039 166.391C139.013 166.391 139.776 166.635 140.328 167.125C140.88 167.609 141.167 168.279 141.188 169.133V173.023C141.188 173.799 141.286 174.417 141.484 174.875V175H139.969ZM137.57 173.898C138.023 173.898 138.453 173.781 138.859 173.547C139.266 173.312 139.56 173.008 139.742 172.633V170.898H138.609C136.839 170.898 135.953 171.417 135.953 172.453C135.953 172.906 136.104 173.26 136.406 173.516C136.708 173.771 137.096 173.898 137.57 173.898ZM145.414 164.5V166.547H146.992V167.664H145.414V172.906C145.414 173.245 145.484 173.5 145.625 173.672C145.766 173.839 146.005 173.922 146.344 173.922C146.51 173.922 146.74 173.891 147.031 173.828V175C146.651 175.104 146.281 175.156 145.922 175.156C145.276 175.156 144.789 174.961 144.461 174.57C144.133 174.18 143.969 173.625 143.969 172.906V167.664H142.43V166.547H143.969V164.5H145.414ZM153.906 175C153.823 174.833 153.755 174.536 153.703 174.109C153.031 174.807 152.229 175.156 151.297 175.156C150.464 175.156 149.779 174.922 149.242 174.453C148.711 173.979 148.445 173.38 148.445 172.656C148.445 171.776 148.779 171.094 149.445 170.609C150.117 170.12 151.06 169.875 152.273 169.875H153.68V169.211C153.68 168.706 153.529 168.305 153.227 168.008C152.924 167.706 152.479 167.555 151.891 167.555C151.375 167.555 150.943 167.685 150.594 167.945C150.245 168.206 150.07 168.521 150.07 168.891H148.617C148.617 168.469 148.766 168.062 149.062 167.672C149.365 167.276 149.771 166.964 150.281 166.734C150.797 166.505 151.362 166.391 151.977 166.391C152.951 166.391 153.714 166.635 154.266 167.125C154.818 167.609 155.104 168.279 155.125 169.133V173.023C155.125 173.799 155.224 174.417 155.422 174.875V175H153.906ZM151.508 173.898C151.961 173.898 152.391 173.781 152.797 173.547C153.203 173.312 153.497 173.008 153.68 172.633V170.898H152.547C150.776 170.898 149.891 171.417 149.891 172.453C149.891 172.906 150.042 173.26 150.344 173.516C150.646 173.771 151.034 173.898 151.508 173.898ZM161.477 167.844C161.258 167.807 161.021 167.789 160.766 167.789C159.818 167.789 159.174 168.193 158.836 169V175H157.391V166.547H158.797L158.82 167.523C159.294 166.768 159.966 166.391 160.836 166.391C161.117 166.391 161.331 166.427 161.477 166.5V167.844ZM164.383 175H162.938V166.547H164.383V175ZM162.82 164.305C162.82 164.07 162.891 163.872 163.031 163.711C163.177 163.549 163.391 163.469 163.672 163.469C163.953 163.469 164.167 163.549 164.312 163.711C164.458 163.872 164.531 164.07 164.531 164.305C164.531 164.539 164.458 164.734 164.312 164.891C164.167 165.047 163.953 165.125 163.672 165.125C163.391 165.125 163.177 165.047 163.031 164.891C162.891 164.734 162.82 164.539 162.82 164.305ZM168.07 166.547L168.117 167.609C168.763 166.797 169.607 166.391 170.648 166.391C172.435 166.391 173.336 167.398 173.352 169.414V175H171.906V169.406C171.901 168.797 171.76 168.346 171.484 168.055C171.214 167.763 170.789 167.617 170.211 167.617C169.742 167.617 169.331 167.742 168.977 167.992C168.622 168.242 168.346 168.57 168.148 168.977V175H166.703V166.547H168.07ZM180.75 175C180.667 174.833 180.599 174.536 180.547 174.109C179.875 174.807 179.073 175.156 178.141 175.156C177.307 175.156 176.622 174.922 176.086 174.453C175.555 173.979 175.289 173.38 175.289 172.656C175.289 171.776 175.622 171.094 176.289 170.609C176.961 170.12 177.904 169.875 179.117 169.875H180.523V169.211C180.523 168.706 180.372 168.305 180.07 168.008C179.768 167.706 179.323 167.555 178.734 167.555C178.219 167.555 177.786 167.685 177.438 167.945C177.089 168.206 176.914 168.521 176.914 168.891H175.461C175.461 168.469 175.609 168.062 175.906 167.672C176.208 167.276 176.615 166.964 177.125 166.734C177.641 166.505 178.206 166.391 178.82 166.391C179.794 166.391 180.557 166.635 181.109 167.125C181.661 167.609 181.948 168.279 181.969 169.133V173.023C181.969 173.799 182.068 174.417 182.266 174.875V175H180.75ZM178.352 173.898C178.805 173.898 179.234 173.781 179.641 173.547C180.047 173.312 180.341 173.008 180.523 172.633V170.898H179.391C177.62 170.898 176.734 171.417 176.734 172.453C176.734 172.906 176.885 173.26 177.188 173.516C177.49 173.771 177.878 173.898 178.352 173.898ZM9.71875 199.508C9.33333 200.06 8.79427 200.474 8.10156 200.75C7.41406 201.021 6.61198 201.156 5.69531 201.156C4.76823 201.156 3.94531 200.94 3.22656 200.508C2.50781 200.07 1.95052 199.451 1.55469 198.648C1.16406 197.846 0.963542 196.917 0.953125 195.859V194.867C0.953125 193.154 1.35156 191.826 2.14844 190.883C2.95052 189.94 4.07552 189.469 5.52344 189.469C6.71094 189.469 7.66667 189.773 8.39062 190.383C9.11458 190.987 9.55729 191.846 9.71875 192.961H8.21875C7.9375 191.456 7.04167 190.703 5.53125 190.703C4.52604 190.703 3.76302 191.057 3.24219 191.766C2.72656 192.469 2.46615 193.49 2.46094 194.828V195.758C2.46094 197.034 2.7526 198.049 3.33594 198.805C3.91927 199.555 4.70833 199.93 5.70312 199.93C6.26562 199.93 6.75781 199.867 7.17969 199.742C7.60156 199.617 7.95052 199.406 8.22656 199.109V196.555H5.59375V195.336H9.71875V199.508ZM17.2188 200.164C16.6562 200.826 15.8307 201.156 14.7422 201.156C13.8411 201.156 13.1536 200.896 12.6797 200.375C12.2109 199.849 11.974 199.073 11.9688 198.047V192.547H13.4141V198.008C13.4141 199.289 13.9349 199.93 14.9766 199.93C16.0807 199.93 16.8151 199.518 17.1797 198.695V192.547H18.625V201H17.25L17.2188 200.164ZM22.3984 201H20.9531V192.547H22.3984V201ZM20.8359 190.305C20.8359 190.07 20.9062 189.872 21.0469 189.711C21.1927 189.549 21.4062 189.469 21.6875 189.469C21.9688 189.469 22.1823 189.549 22.3281 189.711C22.474 189.872 22.5469 190.07 22.5469 190.305C22.5469 190.539 22.474 190.734 22.3281 190.891C22.1823 191.047 21.9688 191.125 21.6875 191.125C21.4062 191.125 21.1927 191.047 21.0469 190.891C20.9062 190.734 20.8359 190.539 20.8359 190.305ZM26.2891 201H24.8438V189H26.2891V201ZM30.0547 193.57C30.6953 192.784 31.5286 192.391 32.5547 192.391C34.3411 192.391 35.2422 193.398 35.2578 195.414V201H33.8125V195.406C33.8073 194.797 33.6667 194.346 33.3906 194.055C33.1198 193.763 32.6953 193.617 32.1172 193.617C31.6484 193.617 31.237 193.742 30.8828 193.992C30.5286 194.242 30.2526 194.57 30.0547 194.977V201H28.6094V189H30.0547V193.57ZM40.9297 201.156C39.7839 201.156 38.8516 200.781 38.1328 200.031C37.4141 199.276 37.0547 198.268 37.0547 197.008V196.742C37.0547 195.904 37.2135 195.156 37.5312 194.5C37.8542 193.839 38.3021 193.323 38.875 192.953C39.4531 192.578 40.0781 192.391 40.75 192.391C41.849 192.391 42.7031 192.753 43.3125 193.477C43.9219 194.201 44.2266 195.237 44.2266 196.586V197.188H38.5C38.5208 198.021 38.763 198.695 39.2266 199.211C39.6953 199.721 40.2891 199.977 41.0078 199.977C41.5182 199.977 41.9505 199.872 42.3047 199.664C42.6589 199.456 42.9688 199.18 43.2344 198.836L44.1172 199.523C43.4089 200.612 42.3464 201.156 40.9297 201.156ZM40.75 193.578C40.1667 193.578 39.6771 193.792 39.2812 194.219C38.8854 194.641 38.6406 195.234 38.5469 196H42.7812V195.891C42.7396 195.156 42.5417 194.589 42.1875 194.188C41.8333 193.781 41.3542 193.578 40.75 193.578ZM49.9922 193.844C49.7734 193.807 49.5365 193.789 49.2812 193.789C48.3333 193.789 47.6901 194.193 47.3516 195V201H45.9062V192.547H47.3125L47.3359 193.523C47.8099 192.768 48.4818 192.391 49.3516 192.391C49.6328 192.391 49.8464 192.427 49.9922 192.5V193.844ZM52.6875 192.547L52.7266 193.484C53.3464 192.755 54.1823 192.391 55.2344 192.391C56.4167 192.391 57.2214 192.844 57.6484 193.75C57.9297 193.344 58.2943 193.016 58.7422 192.766C59.1953 192.516 59.7292 192.391 60.3438 192.391C62.1979 192.391 63.1406 193.372 63.1719 195.336V201H61.7266V195.422C61.7266 194.818 61.5885 194.367 61.3125 194.07C61.0365 193.768 60.5729 193.617 59.9219 193.617C59.3854 193.617 58.9401 193.779 58.5859 194.102C58.2318 194.419 58.026 194.849 57.9688 195.391V201H56.5156V195.461C56.5156 194.232 55.9141 193.617 54.7109 193.617C53.763 193.617 53.1146 194.021 52.7656 194.828V201H51.3203V192.547H52.6875ZM68.8672 201.156C67.7214 201.156 66.7891 200.781 66.0703 200.031C65.3516 199.276 64.9922 198.268 64.9922 197.008V196.742C64.9922 195.904 65.151 195.156 65.4688 194.5C65.7917 193.839 66.2396 193.323 66.8125 192.953C67.3906 192.578 68.0156 192.391 68.6875 192.391C69.7865 192.391 70.6406 192.753 71.25 193.477C71.8594 194.201 72.1641 195.237 72.1641 196.586V197.188H66.4375C66.4583 198.021 66.7005 198.695 67.1641 199.211C67.6328 199.721 68.2266 199.977 68.9453 199.977C69.4557 199.977 69.888 199.872 70.2422 199.664C70.5964 199.456 70.9062 199.18 71.1719 198.836L72.0547 199.523C71.3464 200.612 70.2839 201.156 68.8672 201.156ZM68.6875 193.578C68.1042 193.578 67.6146 193.792 67.2188 194.219C66.8229 194.641 66.5781 195.234 66.4844 196H70.7188V195.891C70.6771 195.156 70.4792 194.589 70.125 194.188C69.7708 193.781 69.2917 193.578 68.6875 193.578ZM86.4375 199.508C86.0521 200.06 85.513 200.474 84.8203 200.75C84.1328 201.021 83.3307 201.156 82.4141 201.156C81.487 201.156 80.6641 200.94 79.9453 200.508C79.2266 200.07 78.6693 199.451 78.2734 198.648C77.8828 197.846 77.6823 196.917 77.6719 195.859V194.867C77.6719 193.154 78.0703 191.826 78.8672 190.883C79.6693 189.94 80.7943 189.469 82.2422 189.469C83.4297 189.469 84.3854 189.773 85.1094 190.383C85.8333 190.987 86.276 191.846 86.4375 192.961H84.9375C84.6562 191.456 83.7604 190.703 82.25 190.703C81.2448 190.703 80.4818 191.057 79.9609 191.766C79.4453 192.469 79.1849 193.49 79.1797 194.828V195.758C79.1797 197.034 79.4714 198.049 80.0547 198.805C80.638 199.555 81.4271 199.93 82.4219 199.93C82.9844 199.93 83.4766 199.867 83.8984 199.742C84.3203 199.617 84.6693 199.406 84.9453 199.109V196.555H82.3125V195.336H86.4375V199.508ZM92.2266 201.156C91.0807 201.156 90.1484 200.781 89.4297 200.031C88.7109 199.276 88.3516 198.268 88.3516 197.008V196.742C88.3516 195.904 88.5104 195.156 88.8281 194.5C89.151 193.839 89.599 193.323 90.1719 192.953C90.75 192.578 91.375 192.391 92.0469 192.391C93.1458 192.391 94 192.753 94.6094 193.477C95.2188 194.201 95.5234 195.237 95.5234 196.586V197.188H89.7969C89.8177 198.021 90.0599 198.695 90.5234 199.211C90.9922 199.721 91.5859 199.977 92.3047 199.977C92.8151 199.977 93.2474 199.872 93.6016 199.664C93.9557 199.456 94.2656 199.18 94.5312 198.836L95.4141 199.523C94.7057 200.612 93.6432 201.156 92.2266 201.156ZM92.0469 193.578C91.4635 193.578 90.974 193.792 90.5781 194.219C90.1823 194.641 89.9375 195.234 89.8438 196H94.0781V195.891C94.0365 195.156 93.8385 194.589 93.4844 194.188C93.1302 193.781 92.651 193.578 92.0469 193.578ZM98.5625 192.547L98.6016 193.484C99.2214 192.755 100.057 192.391 101.109 192.391C102.292 192.391 103.096 192.844 103.523 193.75C103.805 193.344 104.169 193.016 104.617 192.766C105.07 192.516 105.604 192.391 106.219 192.391C108.073 192.391 109.016 193.372 109.047 195.336V201H107.602V195.422C107.602 194.818 107.464 194.367 107.188 194.07C106.911 193.768 106.448 193.617 105.797 193.617C105.26 193.617 104.815 193.779 104.461 194.102C104.107 194.419 103.901 194.849 103.844 195.391V201H102.391V195.461C102.391 194.232 101.789 193.617 100.586 193.617C99.638 193.617 98.9896 194.021 98.6406 194.828V201H97.1953V192.547H98.5625ZM118.391 196.867C118.391 198.159 118.094 199.198 117.5 199.984C116.906 200.766 116.109 201.156 115.109 201.156C114.042 201.156 113.216 200.779 112.633 200.023L112.562 201H111.234V189H112.68V193.477C113.263 192.753 114.068 192.391 115.094 192.391C116.12 192.391 116.924 192.779 117.508 193.555C118.096 194.331 118.391 195.393 118.391 196.742V196.867ZM116.945 196.703C116.945 195.719 116.755 194.958 116.375 194.422C115.995 193.885 115.448 193.617 114.734 193.617C113.781 193.617 113.096 194.06 112.68 194.945V198.602C113.122 199.487 113.812 199.93 114.75 199.93C115.443 199.93 115.982 199.661 116.367 199.125C116.753 198.589 116.945 197.781 116.945 196.703ZM125.438 201C125.354 200.833 125.286 200.536 125.234 200.109C124.562 200.807 123.76 201.156 122.828 201.156C121.995 201.156 121.31 200.922 120.773 200.453C120.242 199.979 119.977 199.38 119.977 198.656C119.977 197.776 120.31 197.094 120.977 196.609C121.648 196.12 122.591 195.875 123.805 195.875H125.211V195.211C125.211 194.706 125.06 194.305 124.758 194.008C124.456 193.706 124.01 193.555 123.422 193.555C122.906 193.555 122.474 193.685 122.125 193.945C121.776 194.206 121.602 194.521 121.602 194.891H120.148C120.148 194.469 120.297 194.062 120.594 193.672C120.896 193.276 121.302 192.964 121.812 192.734C122.328 192.505 122.893 192.391 123.508 192.391C124.482 192.391 125.245 192.635 125.797 193.125C126.349 193.609 126.635 194.279 126.656 195.133V199.023C126.656 199.799 126.755 200.417 126.953 200.875V201H125.438ZM123.039 199.898C123.492 199.898 123.922 199.781 124.328 199.547C124.734 199.312 125.029 199.008 125.211 198.633V196.898H124.078C122.307 196.898 121.422 197.417 121.422 198.453C121.422 198.906 121.573 199.26 121.875 199.516C122.177 199.771 122.565 199.898 123.039 199.898ZM130.492 201H129.047V189H130.492V201ZM134.383 201H132.938V189H134.383V201ZM141.922 201C141.839 200.833 141.771 200.536 141.719 200.109C141.047 200.807 140.245 201.156 139.312 201.156C138.479 201.156 137.794 200.922 137.258 200.453C136.727 199.979 136.461 199.38 136.461 198.656C136.461 197.776 136.794 197.094 137.461 196.609C138.133 196.12 139.076 195.875 140.289 195.875H141.695V195.211C141.695 194.706 141.544 194.305 141.242 194.008C140.94 193.706 140.495 193.555 139.906 193.555C139.391 193.555 138.958 193.685 138.609 193.945C138.26 194.206 138.086 194.521 138.086 194.891H136.633C136.633 194.469 136.781 194.062 137.078 193.672C137.38 193.276 137.786 192.964 138.297 192.734C138.812 192.505 139.378 192.391 139.992 192.391C140.966 192.391 141.729 192.635 142.281 193.125C142.833 193.609 143.12 194.279 143.141 195.133V199.023C143.141 199.799 143.24 200.417 143.438 200.875V201H141.922ZM139.523 199.898C139.977 199.898 140.406 199.781 140.812 199.547C141.219 199.312 141.513 199.008 141.695 198.633V196.898H140.562C138.792 196.898 137.906 197.417 137.906 198.453C137.906 198.906 138.057 199.26 138.359 199.516C138.661 199.771 139.049 199.898 139.523 199.898ZM145.359 203.266L144.539 202.703C145.029 202.021 145.284 201.318 145.305 200.594V199.289H146.719V200.422C146.719 200.948 146.589 201.474 146.328 202C146.073 202.526 145.75 202.948 145.359 203.266ZM157.508 189.625H159.016V197.68C159.016 198.768 158.688 199.62 158.031 200.234C157.38 200.849 156.51 201.156 155.422 201.156C154.292 201.156 153.411 200.867 152.781 200.289C152.151 199.711 151.836 198.901 151.836 197.859H153.336C153.336 198.51 153.513 199.018 153.867 199.383C154.227 199.747 154.745 199.93 155.422 199.93C156.042 199.93 156.542 199.734 156.922 199.344C157.307 198.953 157.503 198.406 157.508 197.703V189.625ZM166.562 201C166.479 200.833 166.411 200.536 166.359 200.109C165.688 200.807 164.885 201.156 163.953 201.156C163.12 201.156 162.435 200.922 161.898 200.453C161.367 199.979 161.102 199.38 161.102 198.656C161.102 197.776 161.435 197.094 162.102 196.609C162.773 196.12 163.716 195.875 164.93 195.875H166.336V195.211C166.336 194.706 166.185 194.305 165.883 194.008C165.581 193.706 165.135 193.555 164.547 193.555C164.031 193.555 163.599 193.685 163.25 193.945C162.901 194.206 162.727 194.521 162.727 194.891H161.273C161.273 194.469 161.422 194.062 161.719 193.672C162.021 193.276 162.427 192.964 162.938 192.734C163.453 192.505 164.018 192.391 164.633 192.391C165.607 192.391 166.37 192.635 166.922 193.125C167.474 193.609 167.76 194.279 167.781 195.133V199.023C167.781 199.799 167.88 200.417 168.078 200.875V201H166.562ZM164.164 199.898C164.617 199.898 165.047 199.781 165.453 199.547C165.859 199.312 166.154 199.008 166.336 198.633V196.898H165.203C163.432 196.898 162.547 197.417 162.547 198.453C162.547 198.906 162.698 199.26 163 199.516C163.302 199.771 163.69 199.898 164.164 199.898ZM174.133 193.844C173.914 193.807 173.677 193.789 173.422 193.789C172.474 193.789 171.831 194.193 171.492 195V201H170.047V192.547H171.453L171.477 193.523C171.951 192.768 172.622 192.391 173.492 192.391C173.773 192.391 173.987 192.427 174.133 192.5V193.844ZM174.961 196.703C174.961 195.406 175.268 194.365 175.883 193.578C176.497 192.786 177.302 192.391 178.297 192.391C179.286 192.391 180.07 192.729 180.648 193.406V189H182.094V201H180.766L180.695 200.094C180.117 200.802 179.312 201.156 178.281 201.156C177.302 201.156 176.503 200.755 175.883 199.953C175.268 199.151 174.961 198.104 174.961 196.812V196.703ZM176.406 196.867C176.406 197.826 176.604 198.576 177 199.117C177.396 199.659 177.943 199.93 178.641 199.93C179.557 199.93 180.227 199.518 180.648 198.695V194.812C180.216 194.016 179.552 193.617 178.656 193.617C177.948 193.617 177.396 193.891 177 194.438C176.604 194.984 176.406 195.794 176.406 196.867ZM185.914 201H184.469V192.547H185.914V201ZM184.352 190.305C184.352 190.07 184.422 189.872 184.562 189.711C184.708 189.549 184.922 189.469 185.203 189.469C185.484 189.469 185.698 189.549 185.844 189.711C185.99 189.872 186.062 190.07 186.062 190.305C186.062 190.539 185.99 190.734 185.844 190.891C185.698 191.047 185.484 191.125 185.203 191.125C184.922 191.125 184.708 191.047 184.562 190.891C184.422 190.734 184.352 190.539 184.352 190.305ZM189.594 192.547L189.633 193.484C190.253 192.755 191.089 192.391 192.141 192.391C193.323 192.391 194.128 192.844 194.555 193.75C194.836 193.344 195.201 193.016 195.648 192.766C196.102 192.516 196.635 192.391 197.25 192.391C199.104 192.391 200.047 193.372 200.078 195.336V201H198.633V195.422C198.633 194.818 198.495 194.367 198.219 194.07C197.943 193.768 197.479 193.617 196.828 193.617C196.292 193.617 195.846 193.779 195.492 194.102C195.138 194.419 194.932 194.849 194.875 195.391V201H193.422V195.461C193.422 194.232 192.82 193.617 191.617 193.617C190.669 193.617 190.021 194.021 189.672 194.828V201H188.227V192.547H189.594ZM212.742 198.031H207.977L206.906 201H205.359L209.703 189.625H211.016L215.367 201H213.828L212.742 198.031ZM208.43 196.797H212.297L210.359 191.477L208.43 196.797ZM218.031 192.547L218.07 193.484C218.69 192.755 219.526 192.391 220.578 192.391C221.76 192.391 222.565 192.844 222.992 193.75C223.273 193.344 223.638 193.016 224.086 192.766C224.539 192.516 225.073 192.391 225.688 192.391C227.542 192.391 228.484 193.372 228.516 195.336V201H227.07V195.422C227.07 194.818 226.932 194.367 226.656 194.07C226.38 193.768 225.917 193.617 225.266 193.617C224.729 193.617 224.284 193.779 223.93 194.102C223.576 194.419 223.37 194.849 223.312 195.391V201H221.859V195.461C221.859 194.232 221.258 193.617 220.055 193.617C219.107 193.617 218.458 194.021 218.109 194.828V201H216.664V192.547H218.031ZM234.211 201.156C233.065 201.156 232.133 200.781 231.414 200.031C230.695 199.276 230.336 198.268 230.336 197.008V196.742C230.336 195.904 230.495 195.156 230.812 194.5C231.135 193.839 231.583 193.323 232.156 192.953C232.734 192.578 233.359 192.391 234.031 192.391C235.13 192.391 235.984 192.753 236.594 193.477C237.203 194.201 237.508 195.237 237.508 196.586V197.188H231.781C231.802 198.021 232.044 198.695 232.508 199.211C232.977 199.721 233.57 199.977 234.289 199.977C234.799 199.977 235.232 199.872 235.586 199.664C235.94 199.456 236.25 199.18 236.516 198.836L237.398 199.523C236.69 200.612 235.628 201.156 234.211 201.156ZM234.031 193.578C233.448 193.578 232.958 193.792 232.562 194.219C232.167 194.641 231.922 195.234 231.828 196H236.062V195.891C236.021 195.156 235.823 194.589 235.469 194.188C235.115 193.781 234.635 193.578 234.031 193.578ZM234.734 189H236.484L234.391 191.297H233.227L234.734 189ZM243.273 193.844C243.055 193.807 242.818 193.789 242.562 193.789C241.615 193.789 240.971 194.193 240.633 195V201H239.188V192.547H240.594L240.617 193.523C241.091 192.768 241.763 192.391 242.633 192.391C242.914 192.391 243.128 192.427 243.273 192.5V193.844ZM246.18 201H244.734V192.547H246.18V201ZM244.617 190.305C244.617 190.07 244.688 189.872 244.828 189.711C244.974 189.549 245.188 189.469 245.469 189.469C245.75 189.469 245.964 189.549 246.109 189.711C246.255 189.872 246.328 190.07 246.328 190.305C246.328 190.539 246.255 190.734 246.109 190.891C245.964 191.047 245.75 191.125 245.469 191.125C245.188 191.125 244.974 191.047 244.828 190.891C244.688 190.734 244.617 190.539 244.617 190.305ZM251.891 199.977C252.406 199.977 252.857 199.82 253.242 199.508C253.628 199.195 253.841 198.805 253.883 198.336H255.25C255.224 198.82 255.057 199.281 254.75 199.719C254.443 200.156 254.031 200.505 253.516 200.766C253.005 201.026 252.464 201.156 251.891 201.156C250.74 201.156 249.823 200.773 249.141 200.008C248.464 199.237 248.125 198.185 248.125 196.852V196.609C248.125 195.786 248.276 195.055 248.578 194.414C248.88 193.773 249.312 193.276 249.875 192.922C250.443 192.568 251.112 192.391 251.883 192.391C252.831 192.391 253.617 192.674 254.242 193.242C254.872 193.81 255.208 194.547 255.25 195.453H253.883C253.841 194.906 253.633 194.458 253.258 194.109C252.888 193.755 252.43 193.578 251.883 193.578C251.148 193.578 250.578 193.844 250.172 194.375C249.771 194.901 249.57 195.664 249.57 196.664V196.938C249.57 197.911 249.771 198.661 250.172 199.188C250.573 199.714 251.146 199.977 251.891 199.977ZM262.094 201C262.01 200.833 261.943 200.536 261.891 200.109C261.219 200.807 260.417 201.156 259.484 201.156C258.651 201.156 257.966 200.922 257.43 200.453C256.898 199.979 256.633 199.38 256.633 198.656C256.633 197.776 256.966 197.094 257.633 196.609C258.305 196.12 259.247 195.875 260.461 195.875H261.867V195.211C261.867 194.706 261.716 194.305 261.414 194.008C261.112 193.706 260.667 193.555 260.078 193.555C259.562 193.555 259.13 193.685 258.781 193.945C258.432 194.206 258.258 194.521 258.258 194.891H256.805C256.805 194.469 256.953 194.062 257.25 193.672C257.552 193.276 257.958 192.964 258.469 192.734C258.984 192.505 259.549 192.391 260.164 192.391C261.138 192.391 261.901 192.635 262.453 193.125C263.005 193.609 263.292 194.279 263.312 195.133V199.023C263.312 199.799 263.411 200.417 263.609 200.875V201H262.094ZM259.695 199.898C260.148 199.898 260.578 199.781 260.984 199.547C261.391 199.312 261.685 199.008 261.867 198.633V196.898H260.734C258.964 196.898 258.078 197.417 258.078 198.453C258.078 198.906 258.229 199.26 258.531 199.516C258.833 199.771 259.221 199.898 259.695 199.898ZM10.0625 227H8.55469L2.82812 218.234V227H1.32031V215.625H2.82812L8.57031 224.43V215.625H10.0625V227ZM12.3594 218.227C12.3594 217.404 12.6042 216.74 13.0938 216.234C13.5833 215.724 14.2292 215.469 15.0312 215.469C15.8385 215.469 16.487 215.721 16.9766 216.227C17.4661 216.727 17.7109 217.409 17.7109 218.273V218.852C17.7109 219.68 17.4661 220.346 16.9766 220.852C16.4922 221.357 15.849 221.609 15.0469 221.609C14.2448 221.609 13.5964 221.357 13.1016 220.852C12.6068 220.346 12.3594 219.664 12.3594 218.805V218.227ZM13.6328 218.852C13.6328 219.372 13.7578 219.781 14.0078 220.078C14.263 220.375 14.6094 220.523 15.0469 220.523C15.4792 220.523 15.8177 220.375 16.0625 220.078C16.3125 219.776 16.4375 219.362 16.4375 218.836V218.227C16.4375 217.711 16.3099 217.305 16.0547 217.008C15.8047 216.711 15.4635 216.562 15.0312 216.562C14.6094 216.562 14.2734 216.706 14.0234 216.992C13.7734 217.279 13.6432 217.674 13.6328 218.18V218.852ZM31.0547 227H23.6016V225.961L27.5391 221.586C28.1224 220.924 28.5234 220.388 28.7422 219.977C28.9661 219.56 29.0781 219.13 29.0781 218.688C29.0781 218.094 28.8984 217.607 28.5391 217.227C28.1797 216.846 27.7005 216.656 27.1016 216.656C26.3828 216.656 25.8229 216.862 25.4219 217.273C25.026 217.68 24.8281 218.247 24.8281 218.977H23.3828C23.3828 217.93 23.7188 217.083 24.3906 216.438C25.0677 215.792 25.9714 215.469 27.1016 215.469C28.1589 215.469 28.9948 215.747 29.6094 216.305C30.224 216.857 30.5312 217.594 30.5312 218.516C30.5312 219.635 29.8177 220.969 28.3906 222.516L25.3438 225.82H31.0547V227ZM38.2578 215.617V216.844H37.9922C36.8672 216.865 35.9714 217.198 35.3047 217.844C34.638 218.49 34.2526 219.398 34.1484 220.57C34.7474 219.883 35.5651 219.539 36.6016 219.539C37.5911 219.539 38.3802 219.888 38.9688 220.586C39.5625 221.284 39.8594 222.185 39.8594 223.289C39.8594 224.461 39.5391 225.398 38.8984 226.102C38.263 226.805 37.4089 227.156 36.3359 227.156C35.2474 227.156 34.3646 226.74 33.6875 225.906C33.0104 225.068 32.6719 223.99 32.6719 222.672V222.117C32.6719 220.023 33.1172 218.424 34.0078 217.32C34.9036 216.211 36.2344 215.643 38 215.617H38.2578ZM36.3594 220.742C35.8646 220.742 35.4089 220.891 34.9922 221.188C34.5755 221.484 34.2865 221.857 34.125 222.305V222.836C34.125 223.773 34.3359 224.529 34.7578 225.102C35.1797 225.674 35.7057 225.961 36.3359 225.961C36.987 225.961 37.4974 225.721 37.8672 225.242C38.2422 224.763 38.4297 224.135 38.4297 223.359C38.4297 222.578 38.2396 221.948 37.8594 221.469C37.4844 220.984 36.9844 220.742 36.3594 220.742ZM48.7031 222.148C48.7031 223.841 48.4141 225.099 47.8359 225.922C47.2578 226.745 46.3542 227.156 45.125 227.156C43.9115 227.156 43.013 226.755 42.4297 225.953C41.8464 225.146 41.5443 223.943 41.5234 222.344V220.414C41.5234 218.742 41.8125 217.5 42.3906 216.688C42.9688 215.875 43.875 215.469 45.1094 215.469C46.3333 215.469 47.2344 215.862 47.8125 216.648C48.3906 217.43 48.6875 218.638 48.7031 220.273V222.148ZM47.2578 220.172C47.2578 218.948 47.0859 218.057 46.7422 217.5C46.3984 216.938 45.8542 216.656 45.1094 216.656C44.3698 216.656 43.8307 216.935 43.4922 217.492C43.1536 218.049 42.9792 218.906 42.9688 220.062V222.375C42.9688 223.604 43.1458 224.513 43.5 225.102C43.8594 225.685 44.401 225.977 45.125 225.977C45.8385 225.977 46.3672 225.701 46.7109 225.148C47.0599 224.596 47.2422 223.727 47.2578 222.539V220.172Z" fill="#6C6C80"/>
<path d="M8.00391 83.4258H4.69922V90H1.73438V72.9375H7.73438C9.70312 72.9375 11.2227 73.3789 12.293 74.2617C13.3633 75.1445 13.8984 76.4219 13.8984 78.0938C13.8984 79.2344 13.6211 80.1914 13.0664 80.9648C12.5195 81.7305 11.7539 82.3203 10.7695 82.7344L14.6016 89.8477V90H11.4258L8.00391 83.4258ZM4.69922 81.0469H7.74609C8.74609 81.0469 9.52734 80.7969 10.0898 80.2969C10.6523 79.7891 10.9336 79.0977 10.9336 78.2227C10.9336 77.3086 10.6719 76.6016 10.1484 76.1016C9.63281 75.6016 8.85938 75.3438 7.82812 75.3281H4.69922V81.0469ZM22.0195 90.2344C20.2148 90.2344 18.75 89.668 17.625 88.5352C16.5078 87.3945 15.9492 85.8789 15.9492 83.9883V83.6367C15.9492 82.3711 16.1914 81.2422 16.6758 80.25C17.168 79.25 17.8555 78.4727 18.7383 77.918C19.6211 77.3633 20.6055 77.0859 21.6914 77.0859C23.418 77.0859 24.75 77.6367 25.6875 78.7383C26.6328 79.8398 27.1055 81.3984 27.1055 83.4141V84.5625H18.8203C18.9062 85.6094 19.2539 86.4375 19.8633 87.0469C20.4805 87.6562 21.2539 87.9609 22.1836 87.9609C23.4883 87.9609 24.5508 87.4336 25.3711 86.3789L26.9062 87.8438C26.3984 88.6016 25.7188 89.1914 24.8672 89.6133C24.0234 90.0273 23.0742 90.2344 22.0195 90.2344ZM21.6797 79.3711C20.8984 79.3711 20.2656 79.6445 19.7812 80.1914C19.3047 80.7383 19 81.5 18.8672 82.4766H24.293V82.2656C24.2305 81.3125 23.9766 80.5938 23.5312 80.1094C23.0859 79.6172 22.4688 79.3711 21.6797 79.3711ZM36.4336 86.5547C36.4336 86.0469 36.2227 85.6602 35.8008 85.3945C35.3867 85.1289 34.6953 84.8945 33.7266 84.6914C32.7578 84.4883 31.9492 84.2305 31.3008 83.918C29.8789 83.2305 29.168 82.2344 29.168 80.9297C29.168 79.8359 29.6289 78.9219 30.5508 78.1875C31.4727 77.4531 32.6445 77.0859 34.0664 77.0859C35.582 77.0859 36.8047 77.4609 37.7344 78.2109C38.6719 78.9609 39.1406 79.9336 39.1406 81.1289H36.293C36.293 80.582 36.0898 80.1289 35.6836 79.7695C35.2773 79.4023 34.7383 79.2188 34.0664 79.2188C33.4414 79.2188 32.9297 79.3633 32.5312 79.6523C32.1406 79.9414 31.9453 80.3281 31.9453 80.8125C31.9453 81.25 32.1289 81.5898 32.4961 81.832C32.8633 82.0742 33.6055 82.3203 34.7227 82.5703C35.8398 82.8125 36.7148 83.1055 37.3477 83.4492C37.9883 83.7852 38.4609 84.1914 38.7656 84.668C39.0781 85.1445 39.2344 85.7227 39.2344 86.4023C39.2344 87.543 38.7617 88.4688 37.8164 89.1797C36.8711 89.8828 35.6328 90.2344 34.1016 90.2344C33.0625 90.2344 32.1367 90.0469 31.3242 89.6719C30.5117 89.2969 29.8789 88.7812 29.4258 88.125C28.9727 87.4688 28.7461 86.7617 28.7461 86.0039H31.5117C31.5508 86.6758 31.8047 87.1953 32.2734 87.5625C32.7422 87.9219 33.3633 88.1016 34.1367 88.1016C34.8867 88.1016 35.457 87.9609 35.8477 87.6797C36.2383 87.3906 36.4336 87.0156 36.4336 86.5547ZM44.7891 90H41.9414V77.3203H44.7891V90ZM44.25 72.082H47.4961L44.25 75.6328H41.9648L44.25 72.082ZM47.4961 83.5664C47.4961 81.6133 47.9492 80.0469 48.8555 78.8672C49.7617 77.6797 50.9766 77.0859 52.5 77.0859C53.8438 77.0859 54.9297 77.5547 55.7578 78.4922V72H58.6055V90H56.0273L55.8867 88.6875C55.0352 89.7188 53.8984 90.2344 52.4766 90.2344C50.9922 90.2344 49.7891 89.6367 48.8672 88.4414C47.9531 87.2461 47.4961 85.6211 47.4961 83.5664ZM50.3438 83.8125C50.3438 85.1016 50.5898 86.1094 51.082 86.8359C51.582 87.5547 52.2891 87.9141 53.2031 87.9141C54.3672 87.9141 55.2188 87.3945 55.7578 86.3555V80.9414C55.2344 79.9258 54.3906 79.418 53.2266 79.418C52.3047 79.418 51.5938 79.7852 51.0938 80.5195C50.5938 81.2461 50.3438 82.3438 50.3438 83.8125ZM69.2578 88.7578C68.4219 89.7422 67.2344 90.2344 65.6953 90.2344C64.3203 90.2344 63.2773 89.832 62.5664 89.0273C61.8633 88.2227 61.5117 87.0586 61.5117 85.5352V77.3203H64.3594V85.5C64.3594 87.1094 65.0273 87.9141 66.3633 87.9141C67.7461 87.9141 68.6797 87.418 69.1641 86.4258V77.3203H72.0117V90H69.3281L69.2578 88.7578ZM74.3789 83.543C74.3789 82.3008 74.625 81.1836 75.1172 80.1914C75.6094 79.1914 76.3008 78.4258 77.1914 77.8945C78.082 77.3555 79.1055 77.0859 80.2617 77.0859C81.9727 77.0859 83.3594 77.6367 84.4219 78.7383C85.4922 79.8398 86.0703 81.3008 86.1562 83.1211L86.168 83.7891C86.168 85.0391 85.9258 86.1562 85.4414 87.1406C84.9648 88.125 84.2773 88.8867 83.3789 89.4258C82.4883 89.9648 81.457 90.2344 80.2852 90.2344C78.4961 90.2344 77.0625 89.6406 75.9844 88.4531C74.9141 87.2578 74.3789 85.668 74.3789 83.6836V83.543ZM77.2266 83.7891C77.2266 85.0938 77.4961 86.1172 78.0352 86.8594C78.5742 87.5938 79.3242 87.9609 80.2852 87.9609C81.2461 87.9609 81.9922 87.5859 82.5234 86.8359C83.0625 86.0859 83.332 84.9883 83.332 83.543C83.332 82.2617 83.0547 81.2461 82.5 80.4961C81.9531 79.7461 81.207 79.3711 80.2617 79.3711C79.332 79.3711 78.5938 79.7422 78.0469 80.4844C77.5 81.2188 77.2266 82.3203 77.2266 83.7891ZM95.6836 86.5547C95.6836 86.0469 95.4727 85.6602 95.0508 85.3945C94.6367 85.1289 93.9453 84.8945 92.9766 84.6914C92.0078 84.4883 91.1992 84.2305 90.5508 83.918C89.1289 83.2305 88.418 82.2344 88.418 80.9297C88.418 79.8359 88.8789 78.9219 89.8008 78.1875C90.7227 77.4531 91.8945 77.0859 93.3164 77.0859C94.832 77.0859 96.0547 77.4609 96.9844 78.2109C97.9219 78.9609 98.3906 79.9336 98.3906 81.1289H95.543C95.543 80.582 95.3398 80.1289 94.9336 79.7695C94.5273 79.4023 93.9883 79.2188 93.3164 79.2188C92.6914 79.2188 92.1797 79.3633 91.7812 79.6523C91.3906 79.9414 91.1953 80.3281 91.1953 80.8125C91.1953 81.25 91.3789 81.5898 91.7461 81.832C92.1133 82.0742 92.8555 82.3203 93.9727 82.5703C95.0898 82.8125 95.9648 83.1055 96.5977 83.4492C97.2383 83.7852 97.7109 84.1914 98.0156 84.668C98.3281 85.1445 98.4844 85.7227 98.4844 86.4023C98.4844 87.543 98.0117 88.4688 97.0664 89.1797C96.1211 89.8828 94.8828 90.2344 93.3516 90.2344C92.3125 90.2344 91.3867 90.0469 90.5742 89.6719C89.7617 89.2969 89.1289 88.7812 88.6758 88.125C88.2227 87.4688 87.9961 86.7617 87.9961 86.0039H90.7617C90.8008 86.6758 91.0547 87.1953 91.5234 87.5625C91.9922 87.9219 92.6133 88.1016 93.3867 88.1016C94.1367 88.1016 94.707 87.9609 95.0977 87.6797C95.4883 87.3906 95.6836 87.0156 95.6836 86.5547ZM117.199 82.3828H110.191V87.6328H118.383V90H107.227V72.9375H118.301V75.3281H110.191V80.0391H117.199V82.3828ZM123.551 90H120.703V72H123.551V90ZM132.246 90.2344C130.441 90.2344 128.977 89.668 127.852 88.5352C126.734 87.3945 126.176 85.8789 126.176 83.9883V83.6367C126.176 82.3711 126.418 81.2422 126.902 80.25C127.395 79.25 128.082 78.4727 128.965 77.918C129.848 77.3633 130.832 77.0859 131.918 77.0859C133.645 77.0859 134.977 77.6367 135.914 78.7383C136.859 79.8398 137.332 81.3984 137.332 83.4141V84.5625H129.047C129.133 85.6094 129.48 86.4375 130.09 87.0469C130.707 87.6562 131.48 87.9609 132.41 87.9609C133.715 87.9609 134.777 87.4336 135.598 86.3789L137.133 87.8438C136.625 88.6016 135.945 89.1914 135.094 89.6133C134.25 90.0273 133.301 90.2344 132.246 90.2344ZM131.906 79.3711C131.125 79.3711 130.492 79.6445 130.008 80.1914C129.531 80.7383 129.227 81.5 129.094 82.4766H134.52V82.2656C134.457 81.3125 134.203 80.5938 133.758 80.1094C133.312 79.6172 132.695 79.3711 131.906 79.3711ZM143.121 74.2383V77.3203H145.359V79.4297H143.121V86.5078C143.121 86.9922 143.215 87.3438 143.402 87.5625C143.598 87.7734 143.941 87.8789 144.434 87.8789C144.762 87.8789 145.094 87.8398 145.43 87.7617V89.9648C144.781 90.1445 144.156 90.2344 143.555 90.2344C141.367 90.2344 140.273 89.0273 140.273 86.6133V79.4297H138.188V77.3203H140.273V74.2383H143.121ZM154.184 79.9219C153.809 79.8594 153.422 79.8281 153.023 79.8281C151.719 79.8281 150.84 80.3281 150.387 81.3281V90H147.539V77.3203H150.258L150.328 78.7383C151.016 77.6367 151.969 77.0859 153.188 77.0859C153.594 77.0859 153.93 77.1406 154.195 77.25L154.184 79.9219ZM155.027 83.543C155.027 82.3008 155.273 81.1836 155.766 80.1914C156.258 79.1914 156.949 78.4258 157.84 77.8945C158.73 77.3555 159.754 77.0859 160.91 77.0859C162.621 77.0859 164.008 77.6367 165.07 78.7383C166.141 79.8398 166.719 81.3008 166.805 83.1211L166.816 83.7891C166.816 85.0391 166.574 86.1562 166.09 87.1406C165.613 88.125 164.926 88.8867 164.027 89.4258C163.137 89.9648 162.105 90.2344 160.934 90.2344C159.145 90.2344 157.711 89.6406 156.633 88.4531C155.562 87.2578 155.027 85.668 155.027 83.6836V83.543ZM157.875 83.7891C157.875 85.0938 158.145 86.1172 158.684 86.8594C159.223 87.5938 159.973 87.9609 160.934 87.9609C161.895 87.9609 162.641 87.5859 163.172 86.8359C163.711 86.0859 163.98 84.9883 163.98 83.543C163.98 82.2617 163.703 81.2461 163.148 80.4961C162.602 79.7461 161.855 79.3711 160.91 79.3711C159.98 79.3711 159.242 79.7422 158.695 80.4844C158.148 81.2188 157.875 82.3203 157.875 83.7891ZM164.895 75.2461V75.375H162.609L160.852 73.5469L159.105 75.375H156.844V75.2227L160.02 71.9883H161.695L164.895 75.2461ZM171.867 77.3203L171.949 78.7852C172.887 77.6523 174.117 77.0859 175.641 77.0859C178.281 77.0859 179.625 78.5977 179.672 81.6211V90H176.824V81.7852C176.824 80.9805 176.648 80.3867 176.297 80.0039C175.953 79.6133 175.387 79.418 174.598 79.418C173.449 79.418 172.594 79.9375 172.031 80.9766V90H169.184V77.3203H171.867ZM185.613 90H182.766V77.3203H185.613V90ZM182.59 74.0273C182.59 73.5898 182.727 73.2266 183 72.9375C183.281 72.6484 183.68 72.5039 184.195 72.5039C184.711 72.5039 185.109 72.6484 185.391 72.9375C185.672 73.2266 185.812 73.5898 185.812 74.0273C185.812 74.457 185.672 74.8164 185.391 75.1055C185.109 75.3867 184.711 75.5273 184.195 75.5273C183.68 75.5273 183.281 75.3867 183 75.1055C182.727 74.8164 182.59 74.457 182.59 74.0273ZM188.191 83.543C188.191 82.3008 188.438 81.1836 188.93 80.1914C189.422 79.1914 190.113 78.4258 191.004 77.8945C191.895 77.3555 192.918 77.0859 194.074 77.0859C195.785 77.0859 197.172 77.6367 198.234 78.7383C199.305 79.8398 199.883 81.3008 199.969 83.1211L199.98 83.7891C199.98 85.0391 199.738 86.1562 199.254 87.1406C198.777 88.125 198.09 88.8867 197.191 89.4258C196.301 89.9648 195.27 90.2344 194.098 90.2344C192.309 90.2344 190.875 89.6406 189.797 88.4531C188.727 87.2578 188.191 85.668 188.191 83.6836V83.543ZM191.039 83.7891C191.039 85.0938 191.309 86.1172 191.848 86.8594C192.387 87.5938 193.137 87.9609 194.098 87.9609C195.059 87.9609 195.805 87.5859 196.336 86.8359C196.875 86.0859 197.145 84.9883 197.145 83.543C197.145 82.2617 196.867 81.2461 196.312 80.4961C195.766 79.7461 195.02 79.3711 194.074 79.3711C193.145 79.3711 192.406 79.7422 191.859 80.4844C191.312 81.2188 191.039 82.3203 191.039 83.7891ZM207.598 87.9609C208.309 87.9609 208.898 87.7539 209.367 87.3398C209.836 86.9258 210.086 86.4141 210.117 85.8047H212.801C212.77 86.5938 212.523 87.332 212.062 88.0195C211.602 88.6992 210.977 89.2383 210.188 89.6367C209.398 90.0352 208.547 90.2344 207.633 90.2344C205.859 90.2344 204.453 89.6602 203.414 88.5117C202.375 87.3633 201.855 85.7773 201.855 83.7539V83.4609C201.855 81.5312 202.371 79.9883 203.402 78.832C204.434 77.668 205.84 77.0859 207.621 77.0859C209.129 77.0859 210.355 77.5273 211.301 78.4102C212.254 79.2852 212.754 80.4375 212.801 81.8672H210.117C210.086 81.1406 209.836 80.543 209.367 80.0742C208.906 79.6055 208.316 79.3711 207.598 79.3711C206.676 79.3711 205.965 79.707 205.465 80.3789C204.965 81.043 204.711 82.0547 204.703 83.4141V83.8711C204.703 85.2461 204.949 86.2734 205.441 86.9531C205.941 87.625 206.66 87.9609 207.598 87.9609ZM214.418 83.543C214.418 82.3008 214.664 81.1836 215.156 80.1914C215.648 79.1914 216.34 78.4258 217.23 77.8945C218.121 77.3555 219.145 77.0859 220.301 77.0859C222.012 77.0859 223.398 77.6367 224.461 78.7383C225.531 79.8398 226.109 81.3008 226.195 83.1211L226.207 83.7891C226.207 85.0391 225.965 86.1562 225.48 87.1406C225.004 88.125 224.316 88.8867 223.418 89.4258C222.527 89.9648 221.496 90.2344 220.324 90.2344C218.535 90.2344 217.102 89.6406 216.023 88.4531C214.953 87.2578 214.418 85.668 214.418 83.6836V83.543ZM217.266 83.7891C217.266 85.0938 217.535 86.1172 218.074 86.8594C218.613 87.5938 219.363 87.9609 220.324 87.9609C221.285 87.9609 222.031 87.5859 222.562 86.8359C223.102 86.0859 223.371 84.9883 223.371 83.543C223.371 82.2617 223.094 81.2461 222.539 80.4961C221.992 79.7461 221.246 79.3711 220.301 79.3711C219.371 79.3711 218.633 79.7422 218.086 80.4844C217.539 81.2188 217.266 82.3203 217.266 83.7891ZM235.723 86.5547C235.723 86.0469 235.512 85.6602 235.09 85.3945C234.676 85.1289 233.984 84.8945 233.016 84.6914C232.047 84.4883 231.238 84.2305 230.59 83.918C229.168 83.2305 228.457 82.2344 228.457 80.9297C228.457 79.8359 228.918 78.9219 229.84 78.1875C230.762 77.4531 231.934 77.0859 233.355 77.0859C234.871 77.0859 236.094 77.4609 237.023 78.2109C237.961 78.9609 238.43 79.9336 238.43 81.1289H235.582C235.582 80.582 235.379 80.1289 234.973 79.7695C234.566 79.4023 234.027 79.2188 233.355 79.2188C232.73 79.2188 232.219 79.3633 231.82 79.6523C231.43 79.9414 231.234 80.3281 231.234 80.8125C231.234 81.25 231.418 81.5898 231.785 81.832C232.152 82.0742 232.895 82.3203 234.012 82.5703C235.129 82.8125 236.004 83.1055 236.637 83.4492C237.277 83.7852 237.75 84.1914 238.055 84.668C238.367 85.1445 238.523 85.7227 238.523 86.4023C238.523 87.543 238.051 88.4688 237.105 89.1797C236.16 89.8828 234.922 90.2344 233.391 90.2344C232.352 90.2344 231.426 90.0469 230.613 89.6719C229.801 89.2969 229.168 88.7812 228.715 88.125C228.262 87.4688 228.035 86.7617 228.035 86.0039H230.801C230.84 86.6758 231.094 87.1953 231.562 87.5625C232.031 87.9219 232.652 88.1016 233.426 88.1016C234.176 88.1016 234.746 87.9609 235.137 87.6797C235.527 87.3906 235.723 87.0156 235.723 86.5547ZM241.418 93.8438L239.883 92.9297C240.336 92.2188 240.645 91.5977 240.809 91.0664C240.98 90.543 241.07 90.0078 241.078 89.4609V87.2461H243.645L243.633 89.2969C243.625 90.125 243.414 90.9531 243 91.7812C242.594 92.6172 242.066 93.3047 241.418 93.8438ZM4.69922 121.633H12.4453V124H1.73438V106.938H4.69922V121.633ZM22.0195 124C21.8945 123.758 21.7852 123.363 21.6914 122.816C20.7852 123.762 19.6758 124.234 18.3633 124.234C17.0898 124.234 16.0508 123.871 15.2461 123.145C14.4414 122.418 14.0391 121.52 14.0391 120.449C14.0391 119.098 14.5391 118.062 15.5391 117.344C16.5469 116.617 17.9844 116.254 19.8516 116.254H21.5977V115.422C21.5977 114.766 21.4141 114.242 21.0469 113.852C20.6797 113.453 20.1211 113.254 19.3711 113.254C18.7227 113.254 18.1914 113.418 17.7773 113.746C17.3633 114.066 17.1562 114.477 17.1562 114.977H14.3086C14.3086 114.281 14.5391 113.633 15 113.031C15.4609 112.422 16.0859 111.945 16.875 111.602C17.6719 111.258 18.5586 111.086 19.5352 111.086C21.0195 111.086 22.2031 111.461 23.0859 112.211C23.9688 112.953 24.4219 114 24.4453 115.352V121.07C24.4453 122.211 24.6055 123.121 24.9258 123.801V124H22.0195ZM18.8906 121.949C19.4531 121.949 19.9805 121.812 20.4727 121.539C20.9727 121.266 21.3477 120.898 21.5977 120.438V118.047H20.0625C19.0078 118.047 18.2148 118.23 17.6836 118.598C17.1523 118.965 16.8867 119.484 16.8867 120.156C16.8867 120.703 17.0664 121.141 17.4258 121.469C17.793 121.789 18.2812 121.949 18.8906 121.949ZM23.6719 109.246V109.375H21.3867L19.6289 107.547L17.8828 109.375H15.6211V109.223L18.7969 105.988H20.4727L23.6719 109.246ZM30.1055 111.32L30.1875 112.645C31.0781 111.605 32.2969 111.086 33.8438 111.086C35.5391 111.086 36.6992 111.734 37.3242 113.031C38.2461 111.734 39.543 111.086 41.2148 111.086C42.6133 111.086 43.6523 111.473 44.332 112.246C45.0195 113.02 45.3711 114.16 45.3867 115.668V124H42.5391V115.75C42.5391 114.945 42.3633 114.355 42.0117 113.98C41.6602 113.605 41.0781 113.418 40.2656 113.418C39.6172 113.418 39.0859 113.594 38.6719 113.945C38.2656 114.289 37.9805 114.742 37.8164 115.305L37.8281 124H34.9805V115.656C34.9414 114.164 34.1797 113.418 32.6953 113.418C31.5547 113.418 30.7461 113.883 30.2695 114.812V124H27.4219V111.32H30.1055ZM59.4141 117.789C59.4141 119.75 58.9688 121.316 58.0781 122.488C57.1875 123.652 55.9922 124.234 54.4922 124.234C53.1016 124.234 51.9883 123.777 51.1523 122.863V128.875H48.3047V111.32H50.9297L51.0469 112.609C51.8828 111.594 53.0195 111.086 54.457 111.086C56.0039 111.086 57.2148 111.664 58.0898 112.82C58.9727 113.969 59.4141 115.566 59.4141 117.613V117.789ZM56.5781 117.543C56.5781 116.277 56.3242 115.273 55.8164 114.531C55.3164 113.789 54.5977 113.418 53.6602 113.418C52.4961 113.418 51.6602 113.898 51.1523 114.859V120.484C51.668 121.469 52.5117 121.961 53.6836 121.961C54.5898 121.961 55.2969 121.598 55.8047 120.871C56.3203 120.137 56.5781 119.027 56.5781 117.543ZM69.4102 124C69.2852 123.758 69.1758 123.363 69.082 122.816C68.1758 123.762 67.0664 124.234 65.7539 124.234C64.4805 124.234 63.4414 123.871 62.6367 123.145C61.832 122.418 61.4297 121.52 61.4297 120.449C61.4297 119.098 61.9297 118.062 62.9297 117.344C63.9375 116.617 65.375 116.254 67.2422 116.254H68.9883V115.422C68.9883 114.766 68.8047 114.242 68.4375 113.852C68.0703 113.453 67.5117 113.254 66.7617 113.254C66.1133 113.254 65.582 113.418 65.168 113.746C64.7539 114.066 64.5469 114.477 64.5469 114.977H61.6992C61.6992 114.281 61.9297 113.633 62.3906 113.031C62.8516 112.422 63.4766 111.945 64.2656 111.602C65.0625 111.258 65.9492 111.086 66.9258 111.086C68.4102 111.086 69.5938 111.461 70.4766 112.211C71.3594 112.953 71.8125 114 71.8359 115.352V121.07C71.8359 122.211 71.9961 123.121 72.3164 123.801V124H69.4102ZM66.2812 121.949C66.8438 121.949 67.3711 121.812 67.8633 121.539C68.3633 121.266 68.7383 120.898 68.9883 120.438V118.047H67.4531C66.3984 118.047 65.6055 118.23 65.0742 118.598C64.543 118.965 64.2773 119.484 64.2773 120.156C64.2773 120.703 64.457 121.141 64.8164 121.469C65.1836 121.789 65.6719 121.949 66.2812 121.949ZM74.2852 117.566C74.2852 115.613 74.7383 114.047 75.6445 112.867C76.5508 111.68 77.7656 111.086 79.2891 111.086C80.6328 111.086 81.7188 111.555 82.5469 112.492V106H85.3945V124H82.8164L82.6758 122.688C81.8242 123.719 80.6875 124.234 79.2656 124.234C77.7812 124.234 76.5781 123.637 75.6562 122.441C74.7422 121.246 74.2852 119.621 74.2852 117.566ZM77.1328 117.812C77.1328 119.102 77.3789 120.109 77.8711 120.836C78.3711 121.555 79.0781 121.914 79.9922 121.914C81.1562 121.914 82.0078 121.395 82.5469 120.355V114.941C82.0234 113.926 81.1797 113.418 80.0156 113.418C79.0938 113.418 78.3828 113.785 77.8828 114.52C77.3828 115.246 77.1328 116.344 77.1328 117.812ZM95.9414 124C95.8164 123.758 95.707 123.363 95.6133 122.816C94.707 123.762 93.5977 124.234 92.2852 124.234C91.0117 124.234 89.9727 123.871 89.168 123.145C88.3633 122.418 87.9609 121.52 87.9609 120.449C87.9609 119.098 88.4609 118.062 89.4609 117.344C90.4688 116.617 91.9062 116.254 93.7734 116.254H95.5195V115.422C95.5195 114.766 95.3359 114.242 94.9688 113.852C94.6016 113.453 94.043 113.254 93.293 113.254C92.6445 113.254 92.1133 113.418 91.6992 113.746C91.2852 114.066 91.0781 114.477 91.0781 114.977H88.2305C88.2305 114.281 88.4609 113.633 88.9219 113.031C89.3828 112.422 90.0078 111.945 90.7969 111.602C91.5938 111.258 92.4805 111.086 93.457 111.086C94.9414 111.086 96.125 111.461 97.0078 112.211C97.8906 112.953 98.3438 114 98.3672 115.352V121.07C98.3672 122.211 98.5273 123.121 98.8477 123.801V124H95.9414ZM92.8125 121.949C93.375 121.949 93.9023 121.812 94.3945 121.539C94.8945 121.266 95.2695 120.898 95.5195 120.438V118.047H93.9844C92.9297 118.047 92.1367 118.23 91.6055 118.598C91.0742 118.965 90.8086 119.484 90.8086 120.156C90.8086 120.703 90.9883 121.141 91.3477 121.469C91.7148 121.789 92.2031 121.949 92.8125 121.949ZM108.457 120.555C108.457 120.047 108.246 119.66 107.824 119.395C107.41 119.129 106.719 118.895 105.75 118.691C104.781 118.488 103.973 118.23 103.324 117.918C101.902 117.23 101.191 116.234 101.191 114.93C101.191 113.836 101.652 112.922 102.574 112.188C103.496 111.453 104.668 111.086 106.09 111.086C107.605 111.086 108.828 111.461 109.758 112.211C110.695 112.961 111.164 113.934 111.164 115.129H108.316C108.316 114.582 108.113 114.129 107.707 113.77C107.301 113.402 106.762 113.219 106.09 113.219C105.465 113.219 104.953 113.363 104.555 113.652C104.164 113.941 103.969 114.328 103.969 114.812C103.969 115.25 104.152 115.59 104.52 115.832C104.887 116.074 105.629 116.32 106.746 116.57C107.863 116.812 108.738 117.105 109.371 117.449C110.012 117.785 110.484 118.191 110.789 118.668C111.102 119.145 111.258 119.723 111.258 120.402C111.258 121.543 110.785 122.469 109.84 123.18C108.895 123.883 107.656 124.234 106.125 124.234C105.086 124.234 104.16 124.047 103.348 123.672C102.535 123.297 101.902 122.781 101.449 122.125C100.996 121.469 100.77 120.762 100.77 120.004H103.535C103.574 120.676 103.828 121.195 104.297 121.562C104.766 121.922 105.387 122.102 106.16 122.102C106.91 122.102 107.48 121.961 107.871 121.68C108.262 121.391 108.457 121.016 108.457 120.555Z" fill="#34CB79"/>
</svg>
