<svg width="156" height="20" viewBox="0 0 156 20" fill="none" xmlns="http://www.w3.org/2000/svg">
<path d="M37.7188 13.1797L40.2969 4.625H42.9062L38.9453 16H36.5L32.5547 4.625H35.1562L37.7188 13.1797ZM43.125 11.6953C43.125 10.8568 43.2865 10.1094 43.6094 9.45312C43.9323 8.79688 44.3958 8.28906 45 7.92969C45.6094 7.57031 46.3151 7.39062 47.1172 7.39062C48.2578 7.39062 49.1875 7.73958 49.9062 8.4375C50.6302 9.13542 51.0339 10.0833 51.1172 11.2812L51.1328 11.8594C51.1328 13.1562 50.7708 14.1979 50.0469 14.9844C49.3229 15.7656 48.3516 16.1562 47.1328 16.1562C45.9141 16.1562 44.9401 15.7656 44.2109 14.9844C43.487 14.2031 43.125 13.1406 43.125 11.7969V11.6953ZM45.3828 11.8594C45.3828 12.6615 45.5339 13.276 45.8359 13.7031C46.138 14.125 46.5703 14.3359 47.1328 14.3359C47.6797 14.3359 48.1068 14.1276 48.4141 13.7109C48.7214 13.2891 48.875 12.6172 48.875 11.6953C48.875 10.9089 48.7214 10.2995 48.4141 9.86719C48.1068 9.4349 47.6745 9.21875 47.1172 9.21875C46.5651 9.21875 46.138 9.4349 45.8359 9.86719C45.5339 10.2943 45.3828 10.9583 45.3828 11.8594ZM54.9062 16H52.6406V4H54.9062V16ZM59.4766 5.46875V7.54688H60.9219V9.20312H59.4766V13.4219C59.4766 13.7344 59.5365 13.9583 59.6562 14.0938C59.776 14.2292 60.0052 14.2969 60.3438 14.2969C60.5938 14.2969 60.8151 14.2786 61.0078 14.2422V15.9531C60.5651 16.0885 60.1094 16.1562 59.6406 16.1562C58.0573 16.1562 57.25 15.3568 57.2188 13.7578V9.20312H55.9844V7.54688H57.2188V5.46875H59.4766ZM67.0781 16C66.974 15.7969 66.8984 15.5443 66.8516 15.2422C66.3047 15.8516 65.5938 16.1562 64.7188 16.1562C63.8906 16.1562 63.2031 15.9167 62.6562 15.4375C62.1146 14.9583 61.8438 14.3542 61.8438 13.625C61.8438 12.7292 62.1745 12.0417 62.8359 11.5625C63.5026 11.0833 64.4635 10.8411 65.7188 10.8359H66.7578V10.3516C66.7578 9.96094 66.6562 9.64844 66.4531 9.41406C66.2552 9.17969 65.9401 9.0625 65.5078 9.0625C65.1276 9.0625 64.8281 9.15365 64.6094 9.33594C64.3958 9.51823 64.2891 9.76823 64.2891 10.0859H62.0312C62.0312 9.59635 62.1823 9.14323 62.4844 8.72656C62.7865 8.3099 63.2135 7.98438 63.7656 7.75C64.3177 7.51042 64.9375 7.39062 65.625 7.39062C66.6667 7.39062 67.4922 7.65365 68.1016 8.17969C68.7161 8.70052 69.0234 9.4349 69.0234 10.3828V14.0469C69.0286 14.849 69.1406 15.4557 69.3594 15.8672V16H67.0781ZM65.2109 14.4297C65.5443 14.4297 65.8516 14.3568 66.1328 14.2109C66.4141 14.0599 66.6224 13.8594 66.7578 13.6094V12.1562H65.9141C64.7839 12.1562 64.1823 12.5469 64.1094 13.3281L64.1016 13.4609C64.1016 13.7422 64.2005 13.974 64.3984 14.1562C64.5964 14.3385 64.8672 14.4297 65.2109 14.4297ZM75.5078 9.66406C75.2005 9.6224 74.9297 9.60156 74.6953 9.60156C73.8411 9.60156 73.2812 9.89062 73.0156 10.4688V16H70.7578V7.54688H72.8906L72.9531 8.55469C73.4062 7.77865 74.0339 7.39062 74.8359 7.39062C75.0859 7.39062 75.3203 7.42448 75.5391 7.49219L75.5078 9.66406ZM88.1953 11.8516C88.1953 13.1536 87.8984 14.1979 87.3047 14.9844C86.7161 15.7656 85.9193 16.1562 84.9141 16.1562C84.0599 16.1562 83.3698 15.8594 82.8438 15.2656V19.25H80.5859V7.54688H82.6797L82.7578 8.375C83.3047 7.71875 84.0182 7.39062 84.8984 7.39062C85.9401 7.39062 86.75 7.77604 87.3281 8.54688C87.9062 9.31771 88.1953 10.3802 88.1953 11.7344V11.8516ZM85.9375 11.6875C85.9375 10.901 85.7969 10.2943 85.5156 9.86719C85.2396 9.4401 84.8359 9.22656 84.3047 9.22656C83.5964 9.22656 83.1094 9.4974 82.8438 10.0391V13.5C83.1198 14.0573 83.612 14.3359 84.3203 14.3359C85.3984 14.3359 85.9375 13.4531 85.9375 11.6875ZM94.5 16C94.3958 15.7969 94.3203 15.5443 94.2734 15.2422C93.7266 15.8516 93.0156 16.1562 92.1406 16.1562C91.3125 16.1562 90.625 15.9167 90.0781 15.4375C89.5365 14.9583 89.2656 14.3542 89.2656 13.625C89.2656 12.7292 89.5964 12.0417 90.2578 11.5625C90.9245 11.0833 91.8854 10.8411 93.1406 10.8359H94.1797V10.3516C94.1797 9.96094 94.0781 9.64844 93.875 9.41406C93.6771 9.17969 93.362 9.0625 92.9297 9.0625C92.5495 9.0625 92.25 9.15365 92.0312 9.33594C91.8177 9.51823 91.7109 9.76823 91.7109 10.0859H89.4531C89.4531 9.59635 89.6042 9.14323 89.9062 8.72656C90.2083 8.3099 90.6354 7.98438 91.1875 7.75C91.7396 7.51042 92.3594 7.39062 93.0469 7.39062C94.0885 7.39062 94.9141 7.65365 95.5234 8.17969C96.138 8.70052 96.4453 9.4349 96.4453 10.3828V14.0469C96.4505 14.849 96.5625 15.4557 96.7812 15.8672V16H94.5ZM92.6328 14.4297C92.9661 14.4297 93.2734 14.3568 93.5547 14.2109C93.8359 14.0599 94.0443 13.8594 94.1797 13.6094V12.1562H93.3359C92.2057 12.1562 91.6042 12.5469 91.5312 13.3281L91.5234 13.4609C91.5234 13.7422 91.6224 13.974 91.8203 14.1562C92.0182 14.3385 92.2891 14.4297 92.6328 14.4297ZM102.93 9.66406C102.622 9.6224 102.352 9.60156 102.117 9.60156C101.263 9.60156 100.703 9.89062 100.438 10.4688V16H98.1797V7.54688H100.312L100.375 8.55469C100.828 7.77865 101.456 7.39062 102.258 7.39062C102.508 7.39062 102.742 7.42448 102.961 7.49219L102.93 9.66406ZM108.688 16C108.583 15.7969 108.508 15.5443 108.461 15.2422C107.914 15.8516 107.203 16.1562 106.328 16.1562C105.5 16.1562 104.812 15.9167 104.266 15.4375C103.724 14.9583 103.453 14.3542 103.453 13.625C103.453 12.7292 103.784 12.0417 104.445 11.5625C105.112 11.0833 106.073 10.8411 107.328 10.8359H108.367V10.3516C108.367 9.96094 108.266 9.64844 108.062 9.41406C107.865 9.17969 107.549 9.0625 107.117 9.0625C106.737 9.0625 106.438 9.15365 106.219 9.33594C106.005 9.51823 105.898 9.76823 105.898 10.0859H103.641C103.641 9.59635 103.792 9.14323 104.094 8.72656C104.396 8.3099 104.823 7.98438 105.375 7.75C105.927 7.51042 106.547 7.39062 107.234 7.39062C108.276 7.39062 109.102 7.65365 109.711 8.17969C110.326 8.70052 110.633 9.4349 110.633 10.3828V14.0469C110.638 14.849 110.75 15.4557 110.969 15.8672V16H108.688ZM106.82 14.4297C107.154 14.4297 107.461 14.3568 107.742 14.2109C108.023 14.0599 108.232 13.8594 108.367 13.6094V12.1562H107.523C106.393 12.1562 105.792 12.5469 105.719 13.3281L105.711 13.4609C105.711 13.7422 105.81 13.974 106.008 14.1562C106.206 14.3385 106.477 14.4297 106.82 14.4297ZM118.555 8.46875C119.154 7.75 119.906 7.39062 120.812 7.39062C122.646 7.39062 123.576 8.45573 123.602 10.5859V16H121.344V10.6484C121.344 10.1641 121.24 9.80729 121.031 9.57812C120.823 9.34375 120.477 9.22656 119.992 9.22656C119.331 9.22656 118.852 9.48177 118.555 9.99219V16H116.297V4H118.555V8.46875ZM124.953 11.6953C124.953 10.8568 125.115 10.1094 125.438 9.45312C125.76 8.79688 126.224 8.28906 126.828 7.92969C127.438 7.57031 128.143 7.39062 128.945 7.39062C130.086 7.39062 131.016 7.73958 131.734 8.4375C132.458 9.13542 132.862 10.0833 132.945 11.2812L132.961 11.8594C132.961 13.1562 132.599 14.1979 131.875 14.9844C131.151 15.7656 130.18 16.1562 128.961 16.1562C127.742 16.1562 126.768 15.7656 126.039 14.9844C125.315 14.2031 124.953 13.1406 124.953 11.7969V11.6953ZM127.211 11.8594C127.211 12.6615 127.362 13.276 127.664 13.7031C127.966 14.125 128.398 14.3359 128.961 14.3359C129.508 14.3359 129.935 14.1276 130.242 13.7109C130.549 13.2891 130.703 12.6172 130.703 11.6953C130.703 10.9089 130.549 10.2995 130.242 9.86719C129.935 9.4349 129.503 9.21875 128.945 9.21875C128.393 9.21875 127.966 9.4349 127.664 9.86719C127.362 10.2943 127.211 10.9583 127.211 11.8594ZM136.469 7.54688L136.539 8.49219C137.138 7.75781 137.948 7.39062 138.969 7.39062C140.057 7.39062 140.805 7.82031 141.211 8.67969C141.805 7.82031 142.651 7.39062 143.75 7.39062C144.667 7.39062 145.349 7.65885 145.797 8.19531C146.245 8.72656 146.469 9.52865 146.469 10.6016V16H144.203V10.6094C144.203 10.1302 144.109 9.78125 143.922 9.5625C143.734 9.33854 143.404 9.22656 142.93 9.22656C142.253 9.22656 141.784 9.54948 141.523 10.1953L141.531 16H139.273V10.6172C139.273 10.1276 139.177 9.77344 138.984 9.55469C138.792 9.33594 138.464 9.22656 138 9.22656C137.359 9.22656 136.896 9.49219 136.609 10.0234V16H134.352V7.54688H136.469ZM152.102 16.1562C150.862 16.1562 149.852 15.776 149.07 15.0156C148.294 14.2552 147.906 13.2422 147.906 11.9766V11.7578C147.906 10.9089 148.07 10.151 148.398 9.48438C148.727 8.8125 149.19 8.29688 149.789 7.9375C150.393 7.57292 151.081 7.39062 151.852 7.39062C153.008 7.39062 153.917 7.75521 154.578 8.48438C155.245 9.21354 155.578 10.2474 155.578 11.5859V12.5078H150.195C150.268 13.0599 150.487 13.5026 150.852 13.8359C151.221 14.1693 151.688 14.3359 152.25 14.3359C153.12 14.3359 153.799 14.0208 154.289 13.3906L155.398 14.6328C155.06 15.112 154.602 15.487 154.023 15.7578C153.445 16.0234 152.805 16.1562 152.102 16.1562ZM151.844 9.21875C151.396 9.21875 151.031 9.36979 150.75 9.67188C150.474 9.97396 150.297 10.4062 150.219 10.9688H153.359V10.7891C153.349 10.2891 153.214 9.90365 152.953 9.63281C152.693 9.35677 152.323 9.21875 151.844 9.21875Z" fill="#322153"/>
<path d="M15.8334 10H4.16669" stroke="#34CB79" stroke-width="2" stroke-linecap="round" stroke-linejoin="round"/>
<path d="M10 15.8334L4.16669 10L10 4.16669" stroke="#34CB79" stroke-width="2" stroke-linecap="round" stroke-linejoin="round"/>
</svg>
